<?xml version="1.0" encoding="UTF-8"?>
<svg id="Layer_2" data-name="Layer 2" xmlns="http://www.w3.org/2000/svg" viewBox="0 0 308.75 309.28">
  <defs>
    <style>
      .cls-1 {
        fill: #0068ff;
      }

      .cls-2 {
        fill: #005be0;
      }

      .cls-3 {
        fill: #fff;
      }
    </style>
  </defs>
  <g id="Layer_1-2" data-name="Layer 1">
    <g>
      <g>
        <path class="cls-1" d="M57.34,1.55C67.93-.12,78.7-.13,89.4,.11l-.92,.85c-14,9.17-25.61,21.76-34,36.21-16.82,28.93-22.95,63.14-21.56,96.3,1.38,27,7.86,54.15,21.6,77.62,2.3,4.2,6.13,7.91,6.19,13.01,.43,10.94-4.98,21.25-12.3,29.07,.48,.5,.95,1,1.43,1.5,6.85,7.48,14.16,14.51,21.12,21.89,9.89,11.18,21.16,21.08,30.85,32.46-16.12,.24-32.43,.99-48.36-2.02-20.05-3.89-37.85-17.79-46.35-36.37C1.95,259.89,.41,247.88,0,236.11,0,181.77,0,127.44,0,73.11,.23,54.95,5.04,35.95,17.82,22.48,27.94,11.07,42.27,3.65,57.34,1.55Z"/>
        <path class="cls-1" d="M204.16,101.33h12.88c-.07,25.13-.07,50.27,0,75.4-4.2-.59-11.19,2.1-12.77-3.49-.26-23.96-.02-47.94-.11-71.91Z"/>
        <path class="cls-1" d="M72.92,102.22c19.96-.02,39.9-.15,59.85-.01-.14,3.91-.36,8.17-2.98,11.33-13.64,16.98-26.99,34.18-40.62,51.16,14.49,.09,28.98,.03,43.47,.03-.27,3.39,.92,7.34-1.28,10.28-1.38,1.9-3.88,1.73-5.95,1.75-18.13-.1-36.26,.09-54.38-.1,.05-3.83,.09-8.07,2.77-11.12,13.48-16.91,27.12-33.7,40.54-50.65-13.79,.02-27.59-.09-41.38,.06-.09-4.24-.06-8.49-.04-12.73Z"/>
        <path class="cls-1" d="M248.97,118.86c14.36-3.21,29.94,6.22,33.87,20.36,4.93,14.71-4.07,32.2-18.94,36.68-12.63,4.45-27.75-1.36-34.3-13-5.14-8.6-5.45-19.86-.78-28.71,3.96-7.81,11.61-13.52,20.15-15.33Zm-.24,12.74c-8.76,3.09-13.48,13.75-10.06,22.36,2.83,8.14,12.36,13.12,20.64,10.62,9.45-2.26,15.16-13.33,11.81-22.4-2.8-8.98-13.65-14.16-22.39-10.58Z"/>
        <path class="cls-1" d="M142.59,129.33c6.91-8.56,19.01-12.78,29.67-9.73,3.52,.89,6.71,2.65,9.79,4.52-.03-.94-.1-2.81-.13-3.75,4.03-.02,8.05-.01,12.08-.03-.02,18.8-.04,37.6,0,56.41-2.96-.08-5.97,.27-8.88-.33-2.04-.83-2.67-3.06-3.48-4.88-11.12,8.64-28.59,6.68-37.83-3.84-9.85-10.19-10.36-27.55-1.23-38.37Zm16.28,2.52c-9.26,3.26-13.75,15.19-9.06,23.79,4,8.38,15.26,11.9,23.31,7.28,7.47-3.92,10.92-13.65,7.71-21.43-3.11-8.46-13.6-13.2-21.96-9.64Z"/>
      </g>
      <g>
        <path class="cls-3" d="M88.48,.96c2.24-.64,4.58-.84,6.9-.91,39.99,.15,79.98-.02,119.97,.05,10.69,.13,21.44-.59,32.05,1.04,14.69,1.12,28.83,7.34,39.76,17.17,13.72,13.11,21.04,31.99,21.27,50.82,.01,53.01-.02,106.06,.03,159.05-.14,.31-.41,.95-.55,1.27-14.25,15.94-33.41,26.73-53.44,33.71-26.99,9.2-55.9,12.16-84.27,10-28.37-2.44-56.96-9.85-81.02-25.53-12.3,5.47-25.87,8.15-39.34,7.04-.48-.5-.95-1-1.43-1.5,7.32-7.82,12.73-18.13,12.3-29.07-.06-5.1-3.89-8.81-6.19-13.01-13.74-23.47-20.22-50.62-21.6-77.62-1.39-33.16,4.74-67.37,21.56-96.3C62.87,22.72,74.48,10.13,88.48,.96Zm115.68,100.37c.09,23.97-.15,47.95,.11,71.91,1.58,5.59,8.57,2.9,12.77,3.49-.07-25.13-.07-50.27,0-75.4-4.3,0-8.59,0-12.88,0Zm-131.24,.89c-.02,4.24-.05,8.49,.04,12.73,13.79-.15,27.59-.04,41.38-.06-13.42,16.95-27.06,33.74-40.54,50.65-2.68,3.05-2.72,7.29-2.77,11.12,18.12,.19,36.25,0,54.38,.1,2.07-.02,4.57,.15,5.95-1.75,2.2-2.94,1.01-6.89,1.28-10.28-14.49,0-28.98,.06-43.47-.03,13.63-16.98,26.98-34.18,40.62-51.16,2.62-3.16,2.84-7.42,2.98-11.33-19.95-.14-39.89-.01-59.85,0Zm176.05,16.64c-8.54,1.81-16.19,7.52-20.15,15.33-4.67,8.85-4.36,20.11,.78,28.71,6.55,11.64,21.67,17.45,34.3,13,14.87-4.48,23.87-21.97,18.94-36.68-3.93-14.14-19.51-23.57-33.87-20.36Zm-106.38,10.47c-9.13,10.82-8.62,28.18,1.23,38.37,9.24,10.52,26.71,12.48,37.83,3.84,.81,1.82,1.44,4.05,3.48,4.88,2.91,.6,5.92,.25,8.88,.33-.05-18.81-.03-37.61,0-56.41-4.03,.02-8.05,.01-12.08,.03,.03,.94,.1,2.81,.13,3.75-3.08-1.87-6.27-3.63-9.79-4.52-10.66-3.05-22.76,1.17-29.67,9.73Z"/>
        <path class="cls-3" d="M158.87,131.85c8.36-3.56,18.85,1.18,21.96,9.64,3.21,7.78-.24,17.51-7.71,21.43-8.05,4.62-19.31,1.1-23.31-7.28-4.69-8.6-.2-20.53,9.06-23.79Z"/>
        <path class="cls-3" d="M248.73,131.6c8.74-3.58,19.59,1.6,22.39,10.58,3.35,9.07-2.36,20.14-11.81,22.4-8.28,2.5-17.81-2.48-20.64-10.62-3.42-8.61,1.3-19.27,10.06-22.36Z"/>
      </g>
      <path class="cls-2" d="M307.91,229.45l.79-.86c.41,15.63-1.28,31.94-8.95,45.85-8.92,16.32-25.1,28.44-43.3,32.32-10.21,2.11-20.68,2.58-31.08,2.45-31.99,.01-63.98,0-95.97,.01-9.2-.15-18.42,.28-27.59-.2-9.69-11.38-20.96-21.28-30.85-32.46-6.96-7.38-14.27-14.41-21.12-21.89,13.47,1.11,27.04-1.57,39.34-7.04,24.06,15.68,52.65,23.09,81.02,25.53,28.37,2.16,57.28-.8,84.27-10,20.03-6.98,39.19-17.77,53.44-33.71Z"/>
    </g>
  </g>
</svg>