<svg xmlns="http://www.w3.org/2000/svg" xmlns:xlink="http://www.w3.org/1999/xlink" width="40" zoomAndPan="magnify" viewBox="0 0 30 30.000001" height="40" preserveAspectRatio="xMidYMid meet" version="1.0"><defs><clipPath id="1fa31dbb94"><path d="M 7.558594 6.355469 L 21.347656 6.355469 L 21.347656 22.324219 L 7.558594 22.324219 Z M 7.558594 6.355469 " clip-rule="nonzero"/></clipPath></defs><g clip-path="url(#1fa31dbb94)"><path fill="#445de6" d="M 9.765625 8.523438 L 9.765625 6.355469 L 15.785156 6.355469 C 17.167969 6.355469 18.496094 6.890625 19.476562 7.847656 C 20.457031 8.804688 21.007812 10.101562 21.007812 11.457031 L 21.007812 12.046875 C 21.007812 12.914062 20.78125 13.757812 20.359375 14.503906 L 20.355469 14.511719 C 20.777344 15.261719 21.007812 16.109375 21.007812 16.980469 L 21.007812 17.570312 C 21.007812 18.925781 20.457031 20.222656 19.476562 21.179688 C 18.496094 22.136719 17.167969 22.671875 15.785156 22.671875 L 9.765625 22.671875 L 9.765625 20.503906 L 7.554688 20.503906 L 7.554688 8.523438 Z M 11.402344 8.523438 L 15.535156 8.523438 C 16.410156 8.523438 17.246094 8.871094 17.867188 9.492188 C 18.484375 10.109375 18.832031 10.949219 18.832031 11.824219 L 18.832031 12.039062 C 18.832031 12.914062 18.484375 13.753906 17.867188 14.371094 C 17.816406 14.421875 17.765625 14.46875 17.710938 14.515625 C 17.765625 14.5625 17.816406 14.609375 17.867188 14.660156 C 18.484375 15.277344 18.832031 16.117188 18.832031 16.992188 L 18.832031 17.207031 C 18.832031 18.082031 18.484375 18.921875 17.867188 19.539062 C 17.246094 20.15625 16.410156 20.503906 15.535156 20.503906 L 11.402344 20.503906 L 11.402344 21.070312 L 15.785156 21.070312 C 16.734375 21.070312 17.644531 20.703125 18.316406 20.046875 C 18.988281 19.390625 19.367188 18.5 19.367188 17.570312 L 19.367188 16.980469 C 19.367188 16.613281 19.308594 16.253906 19.195312 15.910156 C 19.023438 15.386719 18.726562 14.910156 18.324219 14.511719 C 18.726562 14.117188 19.023438 13.640625 19.195312 13.117188 L 19.199219 13.109375 C 19.308594 12.769531 19.367188 12.410156 19.367188 12.046875 L 19.367188 11.457031 C 19.367188 10.527344 18.988281 9.636719 18.316406 8.980469 C 17.644531 8.324219 16.734375 7.957031 15.785156 7.957031 C 14.195312 7.957031 12.566406 7.957031 11.402344 7.957031 Z M 9.765625 10.164062 L 9.195312 10.164062 L 9.195312 15.335938 C 9.195312 15.335938 9.195312 18.867188 9.195312 18.867188 L 15.535156 18.867188 C 15.972656 18.867188 16.394531 18.691406 16.707031 18.378906 C 17.019531 18.070312 17.191406 17.644531 17.191406 17.207031 L 17.191406 16.992188 C 17.191406 16.550781 17.019531 16.128906 16.707031 15.816406 C 16.417969 15.53125 16.035156 15.359375 15.632812 15.335938 C 15.597656 15.335938 15.566406 15.335938 15.535156 15.335938 L 11.972656 15.335938 L 11.972656 13.691406 L 15.535156 13.691406 C 15.566406 13.691406 15.597656 13.695312 15.632812 13.695312 C 16.035156 13.671875 16.417969 13.5 16.707031 13.210938 C 17.019531 12.898438 17.191406 12.476562 17.191406 12.039062 L 17.191406 11.824219 C 17.191406 11.382812 17.019531 10.960938 16.707031 10.648438 C 16.394531 10.339844 15.972656 10.164062 15.535156 10.164062 Z M 11.402344 13.691406 L 11.40625 13.691406 L 11.40625 15.335938 L 11.402344 15.335938 L 11.402344 18.296875 L 9.765625 18.296875 L 9.765625 10.734375 L 11.402344 10.734375 Z M 11.402344 13.691406 " fill-opacity="1" fill-rule="evenodd"/></g></svg>