<svg xmlns="http://www.w3.org/2000/svg" xmlns:xlink="http://www.w3.org/1999/xlink" width="1366" zoomAndPan="magnify" viewBox="0 0 1024.5 576" height="768" preserveAspectRatio="xMidYMid meet" version="1.0"><defs><g/><clipPath id="db54d06ad4"><path d="M 0 18.9375 L 435.539062 18.9375 L 435.539062 547.429688 L 0 547.429688 Z M 0 18.9375 " clip-rule="nonzero"/></clipPath><clipPath id="8cb42265c4"><path d="M 417 184 L 1024 184 L 1024 381 L 417 381 Z M 417 184 " clip-rule="nonzero"/></clipPath></defs><g clip-path="url(#db54d06ad4)"><path fill="#445de6" d="M 71.601562 89.214844 L 71.601562 18.917969 L 266.539062 18.917969 C 311.382812 18.917969 354.390625 36.320312 386.101562 67.300781 C 417.8125 98.28125 435.628906 140.296875 435.628906 184.113281 L 435.628906 203.265625 C 435.628906 231.347656 428.304688 258.695312 414.691406 282.863281 L 414.527344 283.148438 C 428.246094 307.382812 435.628906 334.832031 435.628906 363.027344 L 435.628906 382.179688 C 435.628906 425.996094 417.8125 468.011719 386.101562 498.992188 C 354.390625 529.972656 311.382812 547.375 266.539062 547.375 L 71.601562 547.375 L 71.601562 477.160156 L 0.0820312 477.160156 L 0.0820312 89.214844 Z M 124.679688 89.214844 L 258.410156 89.214844 C 286.738281 89.214844 313.910156 100.46875 333.941406 120.5 C 353.972656 140.535156 365.226562 167.703125 365.226562 196.035156 L 365.226562 202.980469 C 365.226562 231.3125 353.972656 258.480469 333.941406 278.511719 C 332.324219 280.128906 330.660156 281.6875 328.957031 283.1875 C 330.660156 284.6875 332.324219 286.246094 333.941406 287.863281 C 353.972656 307.894531 365.226562 335.066406 365.226562 363.394531 L 365.226562 370.34375 C 365.226562 398.671875 353.972656 425.839844 333.941406 445.875 C 313.910156 465.90625 286.738281 477.160156 258.410156 477.160156 L 124.679688 477.160156 L 124.679688 495.519531 L 266.539062 495.519531 C 297.308594 495.519531 326.816406 483.582031 348.570312 462.324219 C 370.324219 441.070312 382.546875 412.242188 382.546875 382.179688 L 382.546875 363.027344 C 382.546875 351.144531 380.640625 339.460938 376.980469 328.355469 C 371.4375 311.476562 361.859375 295.949219 348.832031 283.148438 C 361.855469 270.34375 371.433594 254.816406 376.980469 237.9375 L 377.0625 237.679688 C 380.667969 226.652344 382.546875 215.054688 382.546875 203.265625 L 382.546875 184.113281 C 382.546875 154.054688 370.324219 125.222656 348.570312 103.96875 C 326.816406 82.710938 297.308594 70.777344 266.539062 70.777344 C 215.128906 70.777344 162.335938 70.777344 124.679688 70.777344 Z M 71.601562 142.292969 L 53.160156 142.292969 L 53.160156 309.800781 C 53.160156 309.800781 53.160156 424.082031 53.160156 424.082031 L 258.410156 424.082031 C 272.664062 424.082031 286.328125 418.417969 296.410156 408.34375 C 306.488281 398.265625 312.148438 384.59375 312.148438 370.34375 L 312.148438 363.394531 C 312.148438 349.140625 306.488281 335.472656 296.410156 325.394531 C 287.089844 316.074219 274.695312 310.53125 261.609375 309.75 C 260.542969 309.78125 259.476562 309.800781 258.410156 309.800781 L 143.140625 309.800781 L 143.140625 256.578125 L 258.410156 256.578125 C 259.476562 256.578125 260.542969 256.59375 261.609375 256.625 C 274.695312 255.84375 287.089844 250.300781 296.410156 240.980469 C 306.488281 230.902344 312.148438 217.234375 312.148438 202.980469 L 312.148438 196.035156 C 312.148438 181.78125 306.488281 168.113281 296.410156 158.03125 C 286.328125 147.953125 272.664062 142.292969 258.410156 142.292969 L 124.679688 142.292969 L 124.679688 142.296875 L 71.601562 142.296875 Z M 124.679688 256.578125 L 124.695312 256.578125 L 124.695312 309.800781 L 124.679688 309.800781 L 124.679688 405.652344 L 71.601562 405.652344 L 71.601562 160.738281 L 124.679688 160.738281 Z M 124.679688 256.578125 " fill-opacity="1" fill-rule="evenodd"/></g><g clip-path="url(#8cb42265c4)"><path stroke-linecap="butt" transform="matrix(1.121235, 0, 0, 1.121235, 435.767445, 264.76059)" fill="none" stroke-linejoin="miter" d="M 49.995578 -23.428104 C 56.412889 -23.428104 61.056905 -21.933519 63.917173 -18.944347 C 66.801828 -15.969112 68.240671 -11.457483 68.240671 -5.402495 L 68.240671 -2.584034 C 68.240671 1.446818 67.603121 4.773926 66.324536 7.400774 C 65.066854 10.010202 63.060138 11.940273 60.30787 13.201438 C 63.662849 14.476539 66.024922 16.556417 67.394088 19.437588 C 68.780673 22.30134 69.470482 25.830513 69.470482 30.025108 L 69.470482 36.397129 C 69.470482 42.452117 67.902735 47.068262 64.76724 50.238595 C 61.631746 53.412412 56.959859 55.001063 50.762032 55.001063 L 31.391644 55.001063 L 31.391644 -23.428104 Z M 43.703685 19.709331 L 43.703685 43.78296 L 50.762032 43.78296 C 52.859329 43.78296 54.444496 43.229023 55.521016 42.114181 C 56.614955 41.002822 57.161924 38.989138 57.161924 36.069644 L 57.161924 29.230782 C 57.161924 25.565738 56.541793 23.067794 55.301531 21.733467 C 54.078688 20.385204 52.047584 19.709331 49.201252 19.709331 Z M 43.703685 -12.241357 L 43.703685 8.494713 L 48.546282 8.494713 C 50.85958 8.494713 52.667716 7.902453 53.960236 6.717933 C 55.27366 5.512509 55.932114 3.34205 55.932114 0.206556 L 55.932114 -4.169201 C 55.932114 -6.998114 55.419983 -9.050121 54.399205 -10.325222 C 53.395847 -11.603807 51.81068 -12.241357 49.640222 -12.241357 Z M 126.292608 55.001063 L 113.848179 55.001063 L 111.74043 40.77637 L 96.613412 40.77637 L 94.477792 55.001063 L 83.151689 55.001063 L 95.711086 -23.428104 L 113.736695 -23.428104 Z M 98.170707 30.133108 L 110.04378 30.133108 L 104.107243 -9.53438 Z M 160.138529 -23.428104 C 166.559324 -23.428104 171.199856 -21.933519 174.063608 -18.944347 C 176.944779 -15.969112 178.383622 -11.457483 178.383622 -5.402495 L 178.383622 -2.584034 C 178.383622 1.446818 177.746072 4.773926 176.470971 7.400774 C 175.213289 10.010202 173.206573 11.940273 170.450821 13.201438 C 173.8058 14.476539 176.167873 16.556417 177.537039 19.437588 C 178.923624 22.30134 179.616917 25.830513 179.616917 30.025108 L 179.616917 36.397129 C 179.616917 42.452117 178.04917 47.068262 174.910191 50.238595 C 171.774697 53.412412 167.106294 55.001063 160.904983 55.001063 L 141.538079 55.001063 L 141.538079 -23.428104 Z M 153.846637 19.709331 L 153.846637 43.78296 L 160.904983 43.78296 C 163.00228 43.78296 164.587447 43.229023 165.663967 42.114181 C 166.757906 41.002822 167.304875 38.989138 167.304875 36.069644 L 167.304875 29.230782 C 167.304875 25.565738 166.684744 23.067794 165.444482 21.733467 C 164.225123 20.385204 162.190536 19.709331 159.344203 19.709331 Z M 153.846637 -12.241357 L 153.846637 8.494713 L 158.689233 8.494713 C 161.006015 8.494713 162.810667 7.902453 164.106671 6.717933 C 165.416611 5.512509 166.075065 3.34205 166.075065 0.206556 L 166.075065 -4.169201 C 166.075065 -6.998114 165.562934 -9.050121 164.542156 -10.325222 C 163.538798 -11.603807 161.953632 -12.241357 159.783173 -12.241357 Z M 208.317142 -23.428104 L 208.317142 37.083454 C 208.317142 39.908883 208.888499 41.887728 210.03818 43.016506 C 211.205281 44.131349 212.755609 44.685286 214.689164 44.685286 C 216.640138 44.685286 218.190466 44.131349 219.340147 43.016506 C 220.507248 41.887728 221.089056 39.908883 221.089056 37.083454 L 221.089056 -23.428104 L 232.742644 -23.428104 L 232.742644 36.289129 C 232.742644 42.636763 231.1958 47.514199 228.095144 50.92492 C 224.994489 54.314738 220.416667 56.011389 214.361679 56.011389 C 208.306691 56.011389 203.728869 54.314738 200.628213 50.92492 C 197.527558 47.514199 195.97723 42.636763 195.97723 36.289129 L 195.97723 -23.428104 Z M 275.977628 -4.60817 C 275.977628 -10.955804 277.489633 -15.826272 280.517127 -19.21609 C 283.544621 -22.626811 288.087604 -24.333914 294.142592 -24.333914 C 300.19758 -24.333914 304.73708 -22.626811 307.764574 -19.21609 C 310.792068 -15.826272 312.307557 -10.955804 312.307557 -4.60817 L 312.307557 -2.145065 L 300.653969 -2.145065 L 300.653969 -5.402495 C 300.653969 -8.227924 300.106999 -10.217221 299.009576 -11.366903 C 297.936541 -12.534003 296.421052 -13.115812 294.470077 -13.115812 C 292.536522 -13.115812 291.024517 -12.534003 289.930578 -11.366903 C 288.854058 -10.217221 288.314057 -8.227924 288.314057 -5.402495 C 288.314057 -2.702486 288.906317 -0.322994 290.094321 1.739464 C 291.29626 3.781019 292.790846 5.721542 294.578078 7.564516 C 296.386213 9.390071 298.309316 11.212141 300.350871 13.037696 C 302.41333 14.859766 304.336433 16.856031 306.123665 19.02649 C 307.928316 21.196949 309.426386 23.667022 310.610906 26.440192 C 311.812845 29.195944 312.415557 32.439438 312.415557 36.177645 C 312.415557 42.525279 310.865229 47.402715 307.764574 50.813436 C 304.663918 54.206737 300.086096 55.903388 294.031108 55.903388 C 287.97612 55.903388 283.398298 54.206737 280.301126 50.813436 C 277.200471 47.402715 275.650143 42.525279 275.650143 36.177645 L 275.650143 31.362919 L 287.303731 31.362919 L 287.303731 36.97197 C 287.303731 39.800883 287.878571 41.776244 289.024769 42.908506 C 290.191869 44.019864 291.752649 44.577286 293.703623 44.577286 C 295.637178 44.577286 297.177054 44.019864 298.326735 42.908506 C 299.493836 41.776244 300.079128 39.800883 300.079128 36.97197 C 300.079128 34.271961 299.476417 31.90292 298.270993 29.861365 C 297.086473 27.798907 295.591888 25.858384 293.787236 24.032829 C 292.000004 22.189856 290.073417 20.357333 288.014443 18.535263 C 285.972887 16.692289 284.056752 14.696024 282.26952 12.542984 C 280.482288 10.372525 278.987703 7.912904 277.782279 5.157153 C 276.58034 2.383982 275.977628 -0.869964 275.977628 -4.60817 Z M 325.410439 -23.428104 L 363.489277 -23.428104 L 363.489277 -12.241357 L 350.605879 -12.241357 L 350.605879 55.001063 L 338.293838 55.001063 L 338.293838 -12.241357 L 325.410439 -12.241357 Z M 389.733365 36.97197 C 389.733365 39.800883 390.308206 41.797147 391.457887 42.964248 C 392.624988 44.113929 394.175316 44.685286 396.108871 44.685286 C 398.059845 44.685286 399.610173 44.113929 400.75637 42.964248 C 401.906052 41.797147 402.480892 39.800883 402.480892 36.97197 L 402.480892 -5.402495 C 402.480892 -8.227924 401.906052 -10.217221 400.75637 -11.366903 C 399.610173 -12.534003 398.059845 -13.115812 396.108871 -13.115812 C 394.175316 -13.115812 392.624988 -12.534003 391.457887 -11.366903 C 390.308206 -10.217221 389.733365 -8.227924 389.733365 -5.402495 Z M 377.396937 -4.60817 C 377.396937 -10.955804 378.999523 -15.826272 382.211663 -19.21609 C 385.420319 -22.626811 390.053883 -24.333914 396.108871 -24.333914 C 402.160375 -24.333914 406.793939 -22.626811 410.002595 -19.21609 C 413.214735 -15.826272 414.817321 -10.955804 414.817321 -4.60817 L 414.817321 36.177645 C 414.817321 42.525279 413.214735 47.402715 410.002595 50.813436 C 406.793939 54.206737 402.160375 55.903388 396.108871 55.903388 C 390.053883 55.903388 385.420319 54.206737 382.211663 50.813436 C 378.999523 47.402715 377.396937 42.525279 377.396937 36.177645 Z M 458.073208 55.001063 C 457.926885 54.471512 457.773594 53.987253 457.606368 53.551767 C 457.463529 53.095379 457.334625 52.527506 457.223141 51.855117 C 457.11514 51.179243 457.041979 50.322208 457.00714 49.284011 C 456.968817 48.24233 456.951398 46.939358 456.951398 45.371611 L 456.951398 33.031698 C 456.951398 29.366654 456.313847 26.795548 455.035263 25.318382 C 453.777581 23.823797 451.725574 23.074762 448.882726 23.074762 L 444.614969 23.074762 L 444.614969 55.001063 L 432.302928 55.001063 L 432.302928 -23.428104 L 450.906862 -23.428104 C 457.324173 -23.428104 461.968189 -21.933519 464.828457 -18.944347 C 467.709628 -15.969112 469.151955 -11.457483 469.151955 -5.402495 L 469.151955 0.781396 C 469.151955 8.843101 466.469365 14.138603 461.10767 16.674869 C 464.246648 17.94997 466.389236 20.029848 467.538917 22.911019 C 468.706018 25.774771 469.287827 29.258654 469.287827 33.362667 L 469.287827 45.479611 C 469.287827 47.413166 469.360988 49.109817 469.507311 50.569564 C 469.653634 52.025827 470.02641 53.502993 470.629121 55.001063 Z M 444.614969 -12.241357 L 444.614969 11.860143 L 449.454082 11.860143 C 451.770864 11.860143 453.579 11.267883 454.87152 10.079879 C 456.184944 8.87794 456.843398 6.707481 456.843398 3.571986 L 456.843398 -4.169201 C 456.843398 -6.998114 456.331267 -9.050121 455.310489 -10.325222 C 454.307131 -11.603807 452.718481 -12.241357 450.551505 -12.241357 Z M 499.183024 9.616523 L 516.114694 9.616523 L 516.114694 20.831141 L 499.183024 20.831141 L 499.183024 43.78296 L 520.49045 43.78296 L 520.49045 55.001063 L 486.870982 55.001063 L 486.870982 -23.428104 L 520.49045 -23.428104 L 520.49045 -12.241357 L 499.183024 -12.241357 Z M 499.183024 9.616523 " stroke="#bfbfbf" stroke-width="8.404275" stroke-opacity="1" stroke-miterlimit="4"/></g><g fill="#445de6" fill-opacity="1"><g transform="translate(435.767445, 326.428496)"><g/></g></g><g fill="#445de6" fill-opacity="1"><g transform="translate(465.935665, 326.428496)"><g><path d="M 25.875 -87.953125 C 33.082031 -87.953125 38.296875 -86.273438 41.515625 -82.921875 C 44.742188 -79.566406 46.359375 -74.5 46.359375 -67.71875 L 46.359375 -64.578125 C 46.359375 -60.054688 45.644531 -56.328125 44.21875 -53.390625 C 42.800781 -50.460938 40.539062 -48.285156 37.4375 -46.859375 C 41.207031 -45.441406 43.867188 -43.117188 45.421875 -39.890625 C 46.972656 -36.660156 47.75 -32.703125 47.75 -28.015625 L 47.75 -20.859375 C 47.75 -14.066406 45.988281 -8.890625 42.46875 -5.328125 C 38.945312 -1.773438 33.710938 0 26.765625 0 L 5.03125 0 L 5.03125 -87.953125 Z M 18.84375 -39.578125 L 18.84375 -12.5625 L 26.765625 -12.5625 C 29.109375 -12.5625 30.882812 -13.1875 32.09375 -14.4375 C 33.3125 -15.695312 33.921875 -17.960938 33.921875 -21.234375 L 33.921875 -28.890625 C 33.921875 -32.992188 33.226562 -35.800781 31.84375 -37.3125 C 30.46875 -38.820312 28.1875 -39.578125 25 -39.578125 Z M 18.84375 -75.390625 L 18.84375 -52.140625 L 24.25 -52.140625 C 26.84375 -52.140625 28.875 -52.804688 30.34375 -54.140625 C 31.8125 -55.484375 32.546875 -57.914062 32.546875 -61.4375 L 32.546875 -66.34375 C 32.546875 -69.519531 31.976562 -71.820312 30.84375 -73.25 C 29.71875 -74.675781 27.9375 -75.390625 25.5 -75.390625 Z M 18.84375 -75.390625 "/></g></g></g><g fill="#445de6" fill-opacity="1"><g transform="translate(527.621402, 326.428496)"><g><path d="M 49.75 0 L 35.8125 0 L 33.421875 -15.953125 L 16.453125 -15.953125 L 14.078125 0 L 1.375 0 L 15.453125 -87.953125 L 35.6875 -87.953125 Z M 18.21875 -27.890625 L 31.53125 -27.890625 L 24.875 -72.375 Z M 18.21875 -27.890625 "/></g></g></g><g fill="#445de6" fill-opacity="1"><g transform="translate(589.432785, 326.428496)"><g><path d="M 25.875 -87.953125 C 33.082031 -87.953125 38.296875 -86.273438 41.515625 -82.921875 C 44.742188 -79.566406 46.359375 -74.5 46.359375 -67.71875 L 46.359375 -64.578125 C 46.359375 -60.054688 45.644531 -56.328125 44.21875 -53.390625 C 42.800781 -50.460938 40.539062 -48.285156 37.4375 -46.859375 C 41.207031 -45.441406 43.867188 -43.117188 45.421875 -39.890625 C 46.972656 -36.660156 47.75 -32.703125 47.75 -28.015625 L 47.75 -20.859375 C 47.75 -14.066406 45.988281 -8.890625 42.46875 -5.328125 C 38.945312 -1.773438 33.710938 0 26.765625 0 L 5.03125 0 L 5.03125 -87.953125 Z M 18.84375 -39.578125 L 18.84375 -12.5625 L 26.765625 -12.5625 C 29.109375 -12.5625 30.882812 -13.1875 32.09375 -14.4375 C 33.3125 -15.695312 33.921875 -17.960938 33.921875 -21.234375 L 33.921875 -28.890625 C 33.921875 -32.992188 33.226562 -35.800781 31.84375 -37.3125 C 30.46875 -38.820312 28.1875 -39.578125 25 -39.578125 Z M 18.84375 -75.390625 L 18.84375 -52.140625 L 24.25 -52.140625 C 26.84375 -52.140625 28.875 -52.804688 30.34375 -54.140625 C 31.8125 -55.484375 32.546875 -57.914062 32.546875 -61.4375 L 32.546875 -66.34375 C 32.546875 -69.519531 31.976562 -71.820312 30.84375 -73.25 C 29.71875 -74.675781 27.9375 -75.390625 25.5 -75.390625 Z M 18.84375 -75.390625 "/></g></g></g><g fill="#445de6" fill-opacity="1"><g transform="translate(651.118527, 326.428496)"><g><path d="M 18.21875 -87.953125 L 18.21875 -20.109375 C 18.21875 -16.921875 18.863281 -14.695312 20.15625 -13.4375 C 21.457031 -12.1875 23.195312 -11.5625 25.375 -11.5625 C 27.550781 -11.5625 29.289062 -12.1875 30.59375 -13.4375 C 31.894531 -14.695312 32.546875 -16.921875 32.546875 -20.109375 L 32.546875 -87.953125 L 45.609375 -87.953125 L 45.609375 -20.984375 C 45.609375 -13.859375 43.867188 -8.390625 40.390625 -4.578125 C 36.910156 -0.773438 31.78125 1.125 25 1.125 C 18.21875 1.125 13.085938 -0.773438 9.609375 -4.578125 C 6.128906 -8.390625 4.390625 -13.859375 4.390625 -20.984375 L 4.390625 -87.953125 Z M 18.21875 -87.953125 "/></g></g></g><g fill="#445de6" fill-opacity="1"><g transform="translate(711.799227, 326.428496)"><g/></g></g><g fill="#445de6" fill-opacity="1"><g transform="translate(741.951604, 326.428496)"><g><path d="M 3.265625 -66.84375 C 3.265625 -73.957031 4.957031 -79.421875 8.34375 -83.234375 C 11.738281 -87.046875 16.832031 -88.953125 23.625 -88.953125 C 30.40625 -88.953125 35.488281 -87.046875 38.875 -83.234375 C 42.269531 -79.421875 43.96875 -73.957031 43.96875 -66.84375 L 43.96875 -64.078125 L 30.90625 -64.078125 L 30.90625 -67.71875 C 30.90625 -70.90625 30.296875 -73.144531 29.078125 -74.4375 C 27.867188 -75.738281 26.175781 -76.390625 24 -76.390625 C 21.820312 -76.390625 20.125 -75.738281 18.90625 -74.4375 C 17.695312 -73.144531 17.09375 -70.90625 17.09375 -67.71875 C 17.09375 -64.707031 17.757812 -62.046875 19.09375 -59.734375 C 20.4375 -57.429688 22.113281 -55.253906 24.125 -53.203125 C 26.132812 -51.148438 28.289062 -49.097656 30.59375 -47.046875 C 32.894531 -44.992188 35.050781 -42.753906 37.0625 -40.328125 C 39.070312 -37.898438 40.742188 -35.132812 42.078125 -32.03125 C 43.421875 -28.9375 44.09375 -25.296875 44.09375 -21.109375 C 44.09375 -13.984375 42.351562 -8.515625 38.875 -4.703125 C 35.40625 -0.898438 30.28125 1 23.5 1 C 16.707031 1 11.570312 -0.898438 8.09375 -4.703125 C 4.625 -8.515625 2.890625 -13.984375 2.890625 -21.109375 L 2.890625 -26.515625 L 15.953125 -26.515625 L 15.953125 -20.234375 C 15.953125 -17.046875 16.597656 -14.820312 17.890625 -13.5625 C 19.191406 -12.3125 20.9375 -11.6875 23.125 -11.6875 C 25.300781 -11.6875 27.035156 -12.3125 28.328125 -13.5625 C 29.628906 -14.820312 30.28125 -17.046875 30.28125 -20.234375 C 30.28125 -23.242188 29.609375 -25.898438 28.265625 -28.203125 C 26.929688 -30.503906 25.257812 -32.679688 23.25 -34.734375 C 21.238281 -36.785156 19.078125 -38.835938 16.765625 -40.890625 C 14.460938 -42.941406 12.304688 -45.179688 10.296875 -47.609375 C 8.285156 -50.046875 6.609375 -52.8125 5.265625 -55.90625 C 3.929688 -59.007812 3.265625 -62.65625 3.265625 -66.84375 Z M 3.265625 -66.84375 "/></g></g></g><g fill="#445de6" fill-opacity="1"><g transform="translate(799.617156, 326.428496)"><g><path d="M 1 -87.953125 L 43.71875 -87.953125 L 43.71875 -75.390625 L 29.28125 -75.390625 L 29.28125 0 L 15.453125 0 L 15.453125 -75.390625 L 1 -75.390625 Z M 1 -87.953125 "/></g></g></g><g fill="#445de6" fill-opacity="1"><g transform="translate(855.021368, 326.428496)"><g><path d="M 17.71875 -20.234375 C 17.71875 -17.046875 18.363281 -14.800781 19.65625 -13.5 C 20.957031 -12.207031 22.695312 -11.5625 24.875 -11.5625 C 27.050781 -11.5625 28.785156 -12.207031 30.078125 -13.5 C 31.378906 -14.800781 32.03125 -17.046875 32.03125 -20.234375 L 32.03125 -67.71875 C 32.03125 -70.90625 31.378906 -73.144531 30.078125 -74.4375 C 28.785156 -75.738281 27.050781 -76.390625 24.875 -76.390625 C 22.695312 -76.390625 20.957031 -75.738281 19.65625 -74.4375 C 18.363281 -73.144531 17.71875 -70.90625 17.71875 -67.71875 Z M 3.890625 -66.84375 C 3.890625 -73.957031 5.691406 -79.421875 9.296875 -83.234375 C 12.898438 -87.046875 18.09375 -88.953125 24.875 -88.953125 C 31.65625 -88.953125 36.847656 -87.046875 40.453125 -83.234375 C 44.054688 -79.421875 45.859375 -73.957031 45.859375 -66.84375 L 45.859375 -21.109375 C 45.859375 -13.984375 44.054688 -8.515625 40.453125 -4.703125 C 36.847656 -0.898438 31.65625 1 24.875 1 C 18.09375 1 12.898438 -0.898438 9.296875 -4.703125 C 5.691406 -8.515625 3.890625 -13.984375 3.890625 -21.109375 Z M 3.890625 -66.84375 "/></g></g></g><g fill="#445de6" fill-opacity="1"><g transform="translate(915.450811, 326.428496)"><g><path d="M 33.921875 0 C 33.753906 -0.582031 33.585938 -1.125 33.421875 -1.625 C 33.253906 -2.132812 33.109375 -2.765625 32.984375 -3.515625 C 32.859375 -4.273438 32.773438 -5.238281 32.734375 -6.40625 C 32.691406 -7.582031 32.671875 -9.050781 32.671875 -10.8125 L 32.671875 -24.625 C 32.671875 -28.726562 31.957031 -31.617188 30.53125 -33.296875 C 29.101562 -34.972656 26.800781 -35.8125 23.625 -35.8125 L 18.84375 -35.8125 L 18.84375 0 L 5.03125 0 L 5.03125 -87.953125 L 25.875 -87.953125 C 33.082031 -87.953125 38.296875 -86.273438 41.515625 -82.921875 C 44.742188 -79.566406 46.359375 -74.5 46.359375 -67.71875 L 46.359375 -60.8125 C 46.359375 -51.757812 43.34375 -45.8125 37.3125 -42.96875 C 40.832031 -41.539062 43.238281 -39.210938 44.53125 -35.984375 C 45.832031 -32.765625 46.484375 -28.851562 46.484375 -24.25 L 46.484375 -10.671875 C 46.484375 -8.492188 46.566406 -6.585938 46.734375 -4.953125 C 46.898438 -3.328125 47.320312 -1.675781 48 0 Z M 18.84375 -75.390625 L 18.84375 -48.375 L 24.25 -48.375 C 26.84375 -48.375 28.875 -49.039062 30.34375 -50.375 C 31.8125 -51.71875 32.546875 -54.148438 32.546875 -57.671875 L 32.546875 -66.34375 C 32.546875 -69.519531 31.976562 -71.820312 30.84375 -73.25 C 29.71875 -74.675781 27.9375 -75.390625 25.5 -75.390625 Z M 18.84375 -75.390625 "/></g></g></g><g fill="#445de6" fill-opacity="1"><g transform="translate(976.634028, 326.428496)"><g><path d="M 18.84375 -50.890625 L 37.8125 -50.890625 L 37.8125 -38.328125 L 18.84375 -38.328125 L 18.84375 -12.5625 L 42.71875 -12.5625 L 42.71875 0 L 5.03125 0 L 5.03125 -87.953125 L 42.71875 -87.953125 L 42.71875 -75.390625 L 18.84375 -75.390625 Z M 18.84375 -50.890625 "/></g></g></g></svg>