<svg xmlns="http://www.w3.org/2000/svg" xmlns:xlink="http://www.w3.org/1999/xlink" width="1366" zoomAndPan="magnify" viewBox="0 0 1024.5 576" height="768" preserveAspectRatio="xMidYMid meet" version="1.0"><defs><g/><clipPath id="056389cd9f"><path d="M 0 47.324219 L 396.554688 47.324219 L 396.554688 528.589844 L 0 528.589844 Z M 0 47.324219 " clip-rule="nonzero"/></clipPath></defs><g clip-path="url(#056389cd9f)"><path fill="#445de6" d="M 65.21875 111.335938 L 65.21875 47.304688 L 242.773438 47.304688 C 283.621094 47.304688 322.792969 63.15625 351.675781 91.371094 C 380.558594 119.59375 396.785156 157.863281 396.785156 197.769531 L 396.785156 215.214844 C 396.785156 240.796875 390.113281 265.703125 377.714844 287.714844 L 377.570312 287.972656 C 390.0625 310.050781 396.785156 335.050781 396.785156 360.730469 L 396.785156 378.179688 C 396.785156 418.085938 380.558594 456.355469 351.675781 484.574219 C 322.792969 512.789062 283.621094 528.644531 242.773438 528.644531 L 65.21875 528.644531 L 65.21875 464.6875 L 0.078125 464.6875 L 0.078125 111.335938 Z M 113.566406 111.335938 L 235.367188 111.335938 C 261.171875 111.335938 285.917969 121.585938 304.164062 139.832031 C 322.410156 158.078125 332.660156 182.824219 332.660156 208.628906 L 332.660156 214.957031 C 332.660156 240.761719 322.410156 265.507812 304.164062 283.753906 C 302.695312 285.222656 301.179688 286.644531 299.625 288.011719 C 301.179688 289.378906 302.695312 290.796875 304.164062 292.269531 C 322.410156 310.515625 332.660156 335.261719 332.660156 361.066406 L 332.660156 367.394531 C 332.660156 393.199219 322.410156 417.945312 304.164062 436.191406 C 285.917969 454.4375 261.171875 464.6875 235.367188 464.6875 L 113.566406 464.6875 L 113.566406 481.410156 L 242.773438 481.410156 C 270.800781 481.410156 297.675781 470.535156 317.488281 451.175781 C 337.304688 431.816406 348.4375 405.558594 348.4375 378.179688 L 348.4375 360.730469 C 348.4375 349.910156 346.699219 339.265625 343.367188 329.152344 C 338.316406 313.78125 329.59375 299.636719 317.730469 287.972656 C 329.589844 276.3125 338.316406 262.171875 343.367188 246.796875 L 343.445312 246.558594 C 346.726562 236.515625 348.4375 225.953125 348.4375 215.214844 L 348.4375 197.769531 C 348.4375 170.390625 337.304688 144.132812 317.488281 124.773438 C 297.675781 105.410156 270.800781 94.539062 242.773438 94.539062 C 195.949219 94.539062 147.863281 94.539062 113.566406 94.539062 Z M 65.21875 159.679688 L 48.421875 159.679688 L 48.421875 312.25 C 48.421875 312.25 48.421875 416.34375 48.421875 416.34375 L 235.367188 416.34375 C 248.351562 416.34375 260.800781 411.183594 269.980469 402.007812 C 279.160156 392.828125 284.316406 380.375 284.316406 367.394531 L 284.316406 361.066406 C 284.316406 348.085938 279.160156 335.636719 269.980469 326.453125 C 261.492188 317.964844 250.203125 312.914062 238.285156 312.207031 C 237.3125 312.234375 236.339844 312.25 235.367188 312.25 L 130.378906 312.25 L 130.378906 263.773438 L 235.367188 263.773438 C 236.339844 263.773438 237.3125 263.789062 238.285156 263.816406 C 250.203125 263.105469 261.492188 258.058594 269.980469 249.566406 C 279.160156 240.386719 284.316406 227.9375 284.316406 214.957031 L 284.316406 208.628906 C 284.316406 195.648438 279.160156 183.195312 269.980469 174.015625 C 260.800781 164.835938 248.351562 159.679688 235.367188 159.679688 L 113.566406 159.679688 L 113.566406 159.683594 L 65.21875 159.683594 Z M 113.566406 263.773438 L 113.578125 263.773438 L 113.578125 312.25 L 113.566406 312.25 L 113.566406 399.554688 L 65.21875 399.554688 L 65.21875 176.480469 L 113.566406 176.480469 Z M 113.566406 263.773438 " fill-opacity="1" fill-rule="evenodd"/></g><g fill="#445de6" fill-opacity="1"><g transform="translate(420.571917, 287.119865)"><g><path d="M 21.0625 -22.953125 L 21.0625 0 L 11.15625 0 L 11.15625 -22.953125 L 1.03125 -22.953125 L 1.03125 -30.84375 L 31.15625 -30.84375 L 31.15625 -22.953125 Z M 21.0625 -22.953125 "/></g></g></g><g fill="#445de6" fill-opacity="1"><g transform="translate(459.526434, 287.119865)"><g><path d="M 24.125 0 L 24.125 -11.703125 L 13.21875 -11.703125 L 13.21875 0 L 3.3125 0 L 3.3125 -30.84375 L 13.21875 -30.84375 L 13.21875 -19.59375 L 24.125 -19.59375 L 24.125 -30.84375 L 34.03125 -30.84375 L 34.03125 0 Z M 24.125 0 "/></g></g></g><g fill="#445de6" fill-opacity="1"><g transform="translate(503.456578, 287.119865)"><g><path d="M 3.3125 -30.84375 L 29.984375 -30.84375 L 29.984375 -23.4375 L 13.21875 -23.4375 L 13.21875 -19.1875 L 27.5625 -19.1875 L 27.5625 -12.109375 L 13.21875 -12.109375 L 13.21875 -7.390625 L 30.296875 -7.390625 L 30.296875 0 L 3.3125 0 Z M 3.3125 -30.84375 "/></g></g></g><g fill="#445de6" fill-opacity="1"><g transform="translate(542.411092, 287.119865)"><g><path d="M 23.84375 -30.84375 C 25.394531 -30.84375 26.820312 -30.519531 28.125 -29.875 C 29.425781 -29.238281 30.457031 -28.335938 31.21875 -27.171875 C 31.976562 -26.003906 32.359375 -24.703125 32.359375 -23.265625 C 32.359375 -19.472656 30.640625 -17.082031 27.203125 -16.09375 L 27.203125 -15.90625 C 31.117188 -15.007812 33.078125 -12.441406 33.078125 -8.203125 C 33.078125 -6.585938 32.679688 -5.160156 31.890625 -3.921875 C 31.097656 -2.679688 30.015625 -1.71875 28.640625 -1.03125 C 27.265625 -0.34375 25.757812 0 24.125 0 L 3.3125 0 L 3.3125 -30.84375 Z M 13.21875 -18.828125 L 20.03125 -18.828125 C 20.695312 -18.828125 21.242188 -19.054688 21.671875 -19.515625 C 22.109375 -19.984375 22.328125 -20.5625 22.328125 -21.25 L 22.328125 -21.703125 C 22.328125 -22.359375 22.101562 -22.914062 21.65625 -23.375 C 21.207031 -23.84375 20.664062 -24.078125 20.03125 -24.078125 L 13.21875 -24.078125 Z M 13.21875 -7.171875 L 20.75 -7.171875 C 21.40625 -7.171875 21.953125 -7.398438 22.390625 -7.859375 C 22.828125 -8.328125 23.046875 -8.90625 23.046875 -9.59375 L 23.046875 -10.046875 C 23.046875 -10.734375 22.828125 -11.304688 22.390625 -11.765625 C 21.953125 -12.234375 21.40625 -12.46875 20.75 -12.46875 L 13.21875 -12.46875 Z M 13.21875 -7.171875 "/></g></g></g><g fill="#445de6" fill-opacity="1"><g transform="translate(583.875837, 287.119865)"><g><path d="M 23.984375 0 L 22.6875 -4.34375 L 11.875 -4.34375 L 10.578125 0 L 0.453125 0 L 11.703125 -30.84375 L 23.21875 -30.84375 L 34.46875 0 Z M 13.9375 -11.25 L 20.625 -11.25 L 17.390625 -22.234375 L 17.21875 -22.234375 Z M 13.9375 -11.25 "/></g></g></g><g fill="#445de6" fill-opacity="1"><g transform="translate(625.340581, 287.119865)"><g><path d="M 23.84375 -30.84375 C 25.394531 -30.84375 26.820312 -30.519531 28.125 -29.875 C 29.425781 -29.238281 30.457031 -28.335938 31.21875 -27.171875 C 31.976562 -26.003906 32.359375 -24.703125 32.359375 -23.265625 C 32.359375 -19.472656 30.640625 -17.082031 27.203125 -16.09375 L 27.203125 -15.90625 C 31.117188 -15.007812 33.078125 -12.441406 33.078125 -8.203125 C 33.078125 -6.585938 32.679688 -5.160156 31.890625 -3.921875 C 31.097656 -2.679688 30.015625 -1.71875 28.640625 -1.03125 C 27.265625 -0.34375 25.757812 0 24.125 0 L 3.3125 0 L 3.3125 -30.84375 Z M 13.21875 -18.828125 L 20.03125 -18.828125 C 20.695312 -18.828125 21.242188 -19.054688 21.671875 -19.515625 C 22.109375 -19.984375 22.328125 -20.5625 22.328125 -21.25 L 22.328125 -21.703125 C 22.328125 -22.359375 22.101562 -22.914062 21.65625 -23.375 C 21.207031 -23.84375 20.664062 -24.078125 20.03125 -24.078125 L 13.21875 -24.078125 Z M 13.21875 -7.171875 L 20.75 -7.171875 C 21.40625 -7.171875 21.953125 -7.398438 22.390625 -7.859375 C 22.828125 -8.328125 23.046875 -8.90625 23.046875 -9.59375 L 23.046875 -10.046875 C 23.046875 -10.734375 22.828125 -11.304688 22.390625 -11.765625 C 21.953125 -12.234375 21.40625 -12.46875 20.75 -12.46875 L 13.21875 -12.46875 Z M 13.21875 -7.171875 "/></g></g></g><g fill="#445de6" fill-opacity="1"><g transform="translate(666.805314, 287.119865)"><g><path d="M 34.03125 -12.421875 C 34.03125 -8.203125 32.695312 -4.988281 30.03125 -2.78125 C 27.375 -0.570312 23.59375 0.53125 18.6875 0.53125 C 13.789062 0.53125 10.003906 -0.570312 7.328125 -2.78125 C 4.648438 -4.988281 3.3125 -8.203125 3.3125 -12.421875 L 3.3125 -30.84375 L 13.21875 -30.84375 L 13.21875 -12.546875 C 13.21875 -10.816406 13.679688 -9.4375 14.609375 -8.40625 C 15.535156 -7.375 16.882812 -6.859375 18.65625 -6.859375 C 20.414062 -6.859375 21.765625 -7.378906 22.703125 -8.421875 C 23.648438 -9.472656 24.125 -10.847656 24.125 -12.546875 L 24.125 -30.84375 L 34.03125 -30.84375 Z M 34.03125 -12.421875 "/></g></g></g><g fill="#445de6" fill-opacity="1"><g transform="translate(710.735449, 287.119865)"><g><path d="M 16.265625 -31.375 C 20.210938 -31.375 23.457031 -30.570312 26 -28.96875 C 28.539062 -27.375 29.84375 -25.007812 29.90625 -21.875 L 29.90625 -21.34375 L 20.625 -21.34375 L 20.625 -21.515625 C 20.625 -22.410156 20.296875 -23.15625 19.640625 -23.75 C 18.984375 -24.351562 17.976562 -24.65625 16.625 -24.65625 C 15.3125 -24.65625 14.300781 -24.457031 13.59375 -24.0625 C 12.894531 -23.675781 12.546875 -23.203125 12.546875 -22.640625 C 12.546875 -21.828125 13.023438 -21.226562 13.984375 -20.84375 C 14.941406 -20.457031 16.484375 -20.054688 18.609375 -19.640625 C 21.085938 -19.128906 23.125 -18.597656 24.71875 -18.046875 C 26.320312 -17.492188 27.71875 -16.585938 28.90625 -15.328125 C 30.101562 -14.078125 30.71875 -12.375 30.75 -10.21875 C 30.75 -6.570312 29.515625 -3.867188 27.046875 -2.109375 C 24.585938 -0.347656 21.296875 0.53125 17.171875 0.53125 C 12.359375 0.53125 8.613281 -0.269531 5.9375 -1.875 C 3.257812 -3.488281 1.921875 -6.34375 1.921875 -10.4375 L 11.296875 -10.4375 C 11.296875 -8.882812 11.695312 -7.847656 12.5 -7.328125 C 13.3125 -6.804688 14.566406 -6.546875 16.265625 -6.546875 C 17.523438 -6.546875 18.566406 -6.679688 19.390625 -6.953125 C 20.210938 -7.222656 20.625 -7.773438 20.625 -8.609375 C 20.625 -9.359375 20.164062 -9.914062 19.25 -10.28125 C 18.34375 -10.65625 16.859375 -11.050781 14.796875 -11.46875 C 12.285156 -12.007812 10.207031 -12.570312 8.5625 -13.15625 C 6.914062 -13.738281 5.476562 -14.703125 4.25 -16.046875 C 3.03125 -17.390625 2.421875 -19.210938 2.421875 -21.515625 C 2.421875 -24.890625 3.726562 -27.375 6.34375 -28.96875 C 8.957031 -30.570312 12.265625 -31.375 16.265625 -31.375 Z M 16.265625 -31.375 "/></g></g></g><g fill="#445de6" fill-opacity="1"><g transform="translate(749.689969, 287.119865)"><g><path d="M 21.0625 -22.953125 L 21.0625 0 L 11.15625 0 L 11.15625 -22.953125 L 1.03125 -22.953125 L 1.03125 -30.84375 L 31.15625 -30.84375 L 31.15625 -22.953125 Z M 21.0625 -22.953125 "/></g></g></g><g fill="#445de6" fill-opacity="1"><g transform="translate(788.644489, 287.119865)"><g><path d="M 18.65625 -31.375 C 23.96875 -31.375 28.070312 -30.015625 30.96875 -27.296875 C 33.875 -24.578125 35.328125 -20.617188 35.328125 -15.421875 C 35.328125 -10.222656 33.875 -6.265625 30.96875 -3.546875 C 28.070312 -0.828125 23.96875 0.53125 18.65625 0.53125 C 13.332031 0.53125 9.226562 -0.816406 6.34375 -3.515625 C 3.457031 -6.222656 2.015625 -10.191406 2.015625 -15.421875 C 2.015625 -20.648438 3.457031 -24.613281 6.34375 -27.3125 C 9.226562 -30.019531 13.332031 -31.375 18.65625 -31.375 Z M 18.65625 -23.984375 C 16.53125 -23.984375 14.910156 -23.335938 13.796875 -22.046875 C 12.691406 -20.765625 12.140625 -19.035156 12.140625 -16.859375 L 12.140625 -13.984375 C 12.140625 -11.804688 12.691406 -10.070312 13.796875 -8.78125 C 14.910156 -7.5 16.53125 -6.859375 18.65625 -6.859375 C 20.769531 -6.859375 22.382812 -7.5 23.5 -8.78125 C 24.625 -10.070312 25.1875 -11.804688 25.1875 -13.984375 L 25.1875 -16.859375 C 25.1875 -19.035156 24.625 -20.765625 23.5 -22.046875 C 22.382812 -23.335938 20.769531 -23.984375 18.65625 -23.984375 Z M 18.65625 -23.984375 "/></g></g></g><g fill="#445de6" fill-opacity="1"><g transform="translate(832.574648, 287.119865)"><g><path d="M 32.59375 -21.390625 C 32.59375 -19.503906 32.082031 -17.796875 31.0625 -16.265625 C 30.050781 -14.742188 28.570312 -13.625 26.625 -12.90625 L 33.484375 0 L 22.375 0 L 16.90625 -11.25 L 13.21875 -11.25 L 13.21875 0 L 3.3125 0 L 3.3125 -30.84375 L 22.1875 -30.84375 C 24.394531 -30.84375 26.285156 -30.414062 27.859375 -29.5625 C 29.429688 -28.707031 30.613281 -27.554688 31.40625 -26.109375 C 32.195312 -24.660156 32.59375 -23.085938 32.59375 -21.390625 Z M 22.5 -20.984375 C 22.5 -21.785156 22.226562 -22.453125 21.6875 -22.984375 C 21.15625 -23.523438 20.5 -23.796875 19.71875 -23.796875 L 13.21875 -23.796875 L 13.21875 -18.109375 L 19.71875 -18.109375 C 20.5 -18.109375 21.15625 -18.382812 21.6875 -18.9375 C 22.226562 -19.488281 22.5 -20.171875 22.5 -20.984375 Z M 22.5 -20.984375 "/></g></g></g><g fill="#445de6" fill-opacity="1"><g transform="translate(874.039405, 287.119865)"><g><path d="M 3.3125 -30.84375 L 29.984375 -30.84375 L 29.984375 -23.4375 L 13.21875 -23.4375 L 13.21875 -19.1875 L 27.5625 -19.1875 L 27.5625 -12.109375 L 13.21875 -12.109375 L 13.21875 -7.390625 L 30.296875 -7.390625 L 30.296875 0 L 3.3125 0 Z M 3.3125 -30.84375 "/></g></g></g><g fill="#445de6" fill-opacity="1"><g transform="translate(912.993901, 287.119865)"><g><path d="M 2.734375 0 L 2.734375 -8.921875 L 12.234375 -8.921875 L 12.234375 0 Z M 2.734375 0 "/></g></g></g><g fill="#445de6" fill-opacity="1"><g transform="translate(934.511292, 287.119865)"><g><path d="M 11.703125 0 L 0.765625 -30.84375 L 11.34375 -30.84375 L 17.53125 -10.21875 L 17.703125 -10.21875 L 23.9375 -30.84375 L 34.0625 -30.84375 L 23.171875 0 Z M 11.703125 0 "/></g></g></g><g fill="#445de6" fill-opacity="1"><g transform="translate(975.976049, 287.119865)"><g><path d="M 25.375 0 L 12.421875 -14.96875 L 12.421875 0 L 3.3125 0 L 3.3125 -30.84375 L 11.96875 -30.84375 L 24.921875 -15.640625 L 24.921875 -30.84375 L 34.03125 -30.84375 L 34.03125 0 Z M 25.375 0 "/></g></g></g></svg>