<svg xmlns="http://www.w3.org/2000/svg" xmlns:xlink="http://www.w3.org/1999/xlink" width="1366" zoomAndPan="magnify" viewBox="0 0 1024.5 576" height="768" preserveAspectRatio="xMidYMid meet" version="1.0"><defs><g/><clipPath id="d2aa190ea7"><path d="M 0 80.15625 L 342.582031 80.15625 L 342.582031 496 L 0 496 Z M 0 80.15625 " clip-rule="nonzero"/></clipPath></defs><g clip-path="url(#d2aa190ea7)"><path fill="#0049ad" d="M 56.324219 135.433594 L 56.324219 80.136719 L 209.660156 80.136719 C 244.933594 80.136719 278.761719 93.828125 303.703125 118.195312 C 328.648438 142.566406 342.660156 175.613281 342.660156 210.078125 L 342.660156 225.144531 C 342.660156 247.234375 336.898438 268.742188 326.191406 287.753906 L 326.066406 287.976562 C 336.855469 307.039062 342.660156 328.632812 342.660156 350.808594 L 342.660156 365.875 C 342.660156 400.339844 328.648438 433.386719 303.703125 457.757812 C 278.761719 482.125 244.933594 495.816406 209.660156 495.816406 L 56.324219 495.816406 L 56.324219 440.582031 L 0.0703125 440.582031 L 0.0703125 135.433594 Z M 98.078125 135.433594 L 203.265625 135.433594 C 225.546875 135.433594 246.917969 144.285156 262.675781 160.042969 C 278.433594 175.800781 287.285156 197.171875 287.285156 219.453125 L 287.285156 224.917969 C 287.285156 247.203125 278.433594 268.574219 262.675781 284.332031 C 261.40625 285.601562 260.097656 286.828125 258.753906 288.007812 C 260.097656 289.1875 261.40625 290.414062 262.675781 291.6875 C 278.433594 307.441406 287.285156 328.816406 287.285156 351.097656 L 287.285156 356.5625 C 287.285156 378.847656 278.433594 400.21875 262.675781 415.972656 C 246.917969 431.730469 225.546875 440.582031 203.265625 440.582031 L 98.078125 440.582031 L 98.078125 455.027344 L 209.660156 455.027344 C 233.859375 455.027344 257.070312 445.632812 274.183594 428.914062 C 291.296875 412.195312 300.910156 389.519531 300.910156 365.875 L 300.910156 350.808594 C 300.910156 341.464844 299.410156 332.273438 296.53125 323.535156 C 292.167969 310.261719 284.636719 298.046875 274.390625 287.976562 C 284.632812 277.90625 292.167969 265.691406 296.53125 252.417969 L 296.597656 252.210938 C 299.433594 243.539062 300.910156 234.417969 300.910156 225.144531 L 300.910156 210.078125 C 300.910156 186.433594 291.296875 163.757812 274.183594 147.039062 C 257.070312 130.320312 233.859375 120.929688 209.660156 120.929688 C 169.222656 120.929688 127.695312 120.929688 98.078125 120.929688 Z M 56.324219 177.183594 L 41.820312 177.183594 L 41.820312 308.941406 C 41.820312 308.941406 41.820312 398.835938 41.820312 398.835938 L 203.265625 398.835938 C 214.476562 398.835938 225.226562 394.378906 233.15625 386.453125 C 241.082031 378.527344 245.535156 367.773438 245.535156 356.5625 L 245.535156 351.097656 C 245.535156 339.886719 241.082031 329.136719 233.15625 321.207031 C 225.824219 313.875 216.074219 309.515625 205.78125 308.902344 C 204.941406 308.929688 204.105469 308.941406 203.265625 308.941406 L 112.597656 308.941406 L 112.597656 267.078125 L 203.265625 267.078125 C 204.105469 267.078125 204.941406 267.089844 205.78125 267.117188 C 216.074219 266.5 225.824219 262.140625 233.15625 254.808594 C 241.082031 246.882812 245.535156 236.128906 245.535156 224.917969 L 245.535156 219.453125 C 245.535156 208.246094 241.082031 197.492188 233.15625 189.5625 C 225.226562 181.636719 214.476562 177.183594 203.265625 177.183594 L 98.078125 177.183594 L 98.078125 177.1875 L 56.324219 177.1875 Z M 98.078125 267.078125 L 98.089844 267.078125 L 98.089844 308.941406 L 98.078125 308.941406 L 98.078125 384.335938 L 56.324219 384.335938 L 56.324219 191.691406 L 98.078125 191.691406 Z M 98.078125 267.078125 " fill-opacity="1" fill-rule="evenodd"/></g><g fill="#0049ad" fill-opacity="1"><g transform="translate(314.074176, 326.088519)"><g/></g></g><g fill="#0049ad" fill-opacity="1"><g transform="translate(354.944096, 326.088519)"><g><path d="M 67.421875 0 L 48.53125 0 L 45.296875 -21.625 L 22.3125 -21.625 L 19.0625 0 L 1.875 0 L 20.9375 -119.1875 L 48.359375 -119.1875 Z M 24.6875 -37.796875 L 42.734375 -37.796875 L 33.71875 -98.078125 Z M 24.6875 -37.796875 "/></g></g></g><g fill="#0049ad" fill-opacity="1"><g transform="translate(438.712186, 326.088519)"><g><path d="M 35.078125 -119.1875 C 44.835938 -119.1875 51.898438 -116.914062 56.265625 -112.375 C 60.640625 -107.832031 62.828125 -100.960938 62.828125 -91.765625 L 62.828125 -87.515625 C 62.828125 -81.390625 61.859375 -76.335938 59.921875 -72.359375 C 57.992188 -68.390625 54.929688 -65.441406 50.734375 -63.515625 C 55.847656 -61.578125 59.453125 -58.421875 61.546875 -54.046875 C 63.648438 -49.679688 64.703125 -44.320312 64.703125 -37.96875 L 64.703125 -28.265625 C 64.703125 -19.066406 62.316406 -12.054688 57.546875 -7.234375 C 52.785156 -2.410156 45.691406 0 36.265625 0 L 6.8125 0 L 6.8125 -119.1875 Z M 25.546875 -53.640625 L 25.546875 -17.03125 L 36.265625 -17.03125 C 39.441406 -17.03125 41.851562 -17.878906 43.5 -19.578125 C 45.144531 -21.285156 45.96875 -24.351562 45.96875 -28.78125 L 45.96875 -39.15625 C 45.96875 -44.71875 45.03125 -48.519531 43.15625 -50.5625 C 41.289062 -52.613281 38.203125 -53.640625 33.890625 -53.640625 Z M 25.546875 -102.15625 L 25.546875 -70.65625 L 32.859375 -70.65625 C 36.378906 -70.65625 39.128906 -71.5625 41.109375 -73.375 C 43.097656 -75.195312 44.09375 -78.492188 44.09375 -83.265625 L 44.09375 -89.90625 C 44.09375 -94.21875 43.328125 -97.335938 41.796875 -99.265625 C 40.265625 -101.191406 37.851562 -102.15625 34.5625 -102.15625 Z M 25.546875 -102.15625 "/></g></g></g><g fill="#0049ad" fill-opacity="1"><g transform="translate(522.310019, 326.088519)"><g><path d="M 24.6875 -119.1875 L 24.6875 -27.25 C 24.6875 -22.925781 25.566406 -19.914062 27.328125 -18.21875 C 29.085938 -16.519531 31.441406 -15.671875 34.390625 -15.671875 C 37.347656 -15.671875 39.703125 -16.519531 41.453125 -18.21875 C 43.210938 -19.914062 44.09375 -22.925781 44.09375 -27.25 L 44.09375 -119.1875 L 61.8125 -119.1875 L 61.8125 -28.4375 C 61.8125 -18.789062 59.453125 -11.382812 54.734375 -6.21875 C 50.023438 -1.050781 43.078125 1.53125 33.890625 1.53125 C 24.691406 1.53125 17.734375 -1.050781 13.015625 -6.21875 C 8.304688 -11.382812 5.953125 -18.789062 5.953125 -28.4375 L 5.953125 -119.1875 Z M 24.6875 -119.1875 "/></g></g></g><g fill="#0049ad" fill-opacity="1"><g transform="translate(604.545796, 326.088519)"><g/></g></g><g fill="#0049ad" fill-opacity="1"><g transform="translate(645.40905, 326.088519)"><g><path d="M 4.421875 -90.578125 C 4.421875 -100.222656 6.71875 -107.628906 11.3125 -112.796875 C 15.914062 -117.960938 22.816406 -120.546875 32.015625 -120.546875 C 41.203125 -120.546875 48.09375 -117.960938 52.6875 -112.796875 C 57.289062 -107.628906 59.59375 -100.222656 59.59375 -90.578125 L 59.59375 -86.828125 L 41.890625 -86.828125 L 41.890625 -91.765625 C 41.890625 -96.085938 41.066406 -99.125 39.421875 -100.875 C 37.773438 -102.632812 35.472656 -103.515625 32.515625 -103.515625 C 29.566406 -103.515625 27.269531 -102.632812 25.625 -100.875 C 23.976562 -99.125 23.15625 -96.085938 23.15625 -91.765625 C 23.15625 -87.679688 24.0625 -84.078125 25.875 -80.953125 C 27.695312 -77.835938 29.96875 -74.890625 32.6875 -72.109375 C 35.414062 -69.328125 38.335938 -66.546875 41.453125 -63.765625 C 44.578125 -60.984375 47.5 -57.945312 50.21875 -54.65625 C 52.945312 -51.363281 55.21875 -47.617188 57.03125 -43.421875 C 58.851562 -39.222656 59.765625 -34.285156 59.765625 -28.609375 C 59.765625 -18.953125 57.40625 -11.539062 52.6875 -6.375 C 47.976562 -1.21875 41.03125 1.359375 31.84375 1.359375 C 22.644531 1.359375 15.691406 -1.21875 10.984375 -6.375 C 6.273438 -11.539062 3.921875 -18.953125 3.921875 -28.609375 L 3.921875 -35.921875 L 21.625 -35.921875 L 21.625 -27.40625 C 21.625 -23.09375 22.503906 -20.082031 24.265625 -18.375 C 26.023438 -16.675781 28.378906 -15.828125 31.328125 -15.828125 C 34.273438 -15.828125 36.628906 -16.675781 38.390625 -18.375 C 40.148438 -20.082031 41.03125 -23.09375 41.03125 -27.40625 C 41.03125 -31.5 40.117188 -35.101562 38.296875 -38.21875 C 36.484375 -41.34375 34.210938 -44.296875 31.484375 -47.078125 C 28.765625 -49.859375 25.84375 -52.640625 22.71875 -55.421875 C 19.601562 -58.203125 16.679688 -61.238281 13.953125 -64.53125 C 11.234375 -67.820312 8.960938 -71.566406 7.140625 -75.765625 C 5.328125 -79.960938 4.421875 -84.898438 4.421875 -90.578125 Z M 4.421875 -90.578125 "/></g></g></g><g fill="#0049ad" fill-opacity="1"><g transform="translate(723.558661, 326.088519)"><g><path d="M 1.359375 -119.1875 L 59.25 -119.1875 L 59.25 -102.15625 L 39.671875 -102.15625 L 39.671875 0 L 20.9375 0 L 20.9375 -102.15625 L 1.359375 -102.15625 Z M 1.359375 -119.1875 "/></g></g></g><g fill="#0049ad" fill-opacity="1"><g transform="translate(798.643649, 326.088519)"><g><path d="M 24 -27.40625 C 24 -23.09375 24.878906 -20.054688 26.640625 -18.296875 C 28.398438 -16.546875 30.757812 -15.671875 33.71875 -15.671875 C 36.664062 -15.671875 39.019531 -16.546875 40.78125 -18.296875 C 42.539062 -20.054688 43.421875 -23.09375 43.421875 -27.40625 L 43.421875 -91.765625 C 43.421875 -96.085938 42.539062 -99.125 40.78125 -100.875 C 39.019531 -102.632812 36.664062 -103.515625 33.71875 -103.515625 C 30.757812 -103.515625 28.398438 -102.632812 26.640625 -100.875 C 24.878906 -99.125 24 -96.085938 24 -91.765625 Z M 5.28125 -90.578125 C 5.28125 -100.222656 7.71875 -107.628906 12.59375 -112.796875 C 17.476562 -117.960938 24.519531 -120.546875 33.71875 -120.546875 C 42.90625 -120.546875 49.9375 -117.960938 54.8125 -112.796875 C 59.695312 -107.628906 62.140625 -100.222656 62.140625 -90.578125 L 62.140625 -28.609375 C 62.140625 -18.953125 59.695312 -11.539062 54.8125 -6.375 C 49.9375 -1.21875 42.90625 1.359375 33.71875 1.359375 C 24.519531 1.359375 17.476562 -1.21875 12.59375 -6.375 C 7.71875 -11.539062 5.28125 -18.953125 5.28125 -28.609375 Z M 5.28125 -90.578125 "/></g></g></g><g fill="#0049ad" fill-opacity="1"><g transform="translate(880.538912, 326.088519)"><g><path d="M 45.96875 0 C 45.738281 -0.789062 45.507812 -1.523438 45.28125 -2.203125 C 45.0625 -2.890625 44.863281 -3.742188 44.6875 -4.765625 C 44.519531 -5.785156 44.40625 -7.085938 44.34375 -8.671875 C 44.289062 -10.265625 44.265625 -12.253906 44.265625 -14.640625 L 44.265625 -33.375 C 44.265625 -38.9375 43.300781 -42.851562 41.375 -45.125 C 39.445312 -47.394531 36.328125 -48.53125 32.015625 -48.53125 L 25.546875 -48.53125 L 25.546875 0 L 6.8125 0 L 6.8125 -119.1875 L 35.078125 -119.1875 C 44.835938 -119.1875 51.898438 -116.914062 56.265625 -112.375 C 60.640625 -107.832031 62.828125 -100.960938 62.828125 -91.765625 L 62.828125 -82.40625 C 62.828125 -70.144531 58.738281 -62.085938 50.5625 -58.234375 C 55.332031 -56.304688 58.597656 -53.15625 60.359375 -48.78125 C 62.117188 -44.40625 63 -39.097656 63 -32.859375 L 63 -14.46875 C 63 -11.519531 63.109375 -8.9375 63.328125 -6.71875 C 63.554688 -4.507812 64.128906 -2.269531 65.046875 0 Z M 25.546875 -102.15625 L 25.546875 -65.546875 L 32.859375 -65.546875 C 36.378906 -65.546875 39.128906 -66.453125 41.109375 -68.265625 C 43.097656 -70.085938 44.09375 -73.382812 44.09375 -78.15625 L 44.09375 -89.90625 C 44.09375 -94.21875 43.328125 -97.335938 41.796875 -99.265625 C 40.265625 -101.191406 37.851562 -102.15625 34.5625 -102.15625 Z M 25.546875 -102.15625 "/></g></g></g><g fill="#0049ad" fill-opacity="1"><g transform="translate(963.455716, 326.088519)"><g><path d="M 25.546875 -68.953125 L 51.25 -68.953125 L 51.25 -51.9375 L 25.546875 -51.9375 L 25.546875 -17.03125 L 57.890625 -17.03125 L 57.890625 0 L 6.8125 0 L 6.8125 -119.1875 L 57.890625 -119.1875 L 57.890625 -102.15625 L 25.546875 -102.15625 Z M 25.546875 -68.953125 "/></g></g></g></svg>