<svg xmlns="http://www.w3.org/2000/svg" xmlns:xlink="http://www.w3.org/1999/xlink" width="1366" zoomAndPan="magnify" viewBox="0 0 1024.5 576" height="768" preserveAspectRatio="xMidYMid meet" version="1.0"><defs><g/><clipPath id="11d9b0f888"><path d="M 0 15.980469 L 414.546875 15.980469 L 414.546875 518.234375 L 0 518.234375 Z M 0 15.980469 " clip-rule="nonzero"/></clipPath><clipPath id="594ac71186"><path d="M 395 171 L 1024 171 L 1024 376 L 395 376 Z M 395 171 " clip-rule="nonzero"/></clipPath></defs><g clip-path="url(#11d9b0f888)"><path fill="#445de6" d="M 68.058594 82.777344 L 68.058594 15.960938 L 253.34375 15.960938 C 295.964844 15.960938 336.84375 32.503906 366.984375 61.949219 C 397.125 91.394531 414.058594 131.332031 414.058594 172.976562 L 414.058594 191.183594 C 414.058594 217.875 407.097656 243.867188 394.15625 266.835938 L 394.003906 267.109375 C 407.042969 290.144531 414.058594 316.234375 414.058594 343.03125 L 414.058594 361.238281 C 414.058594 402.882812 397.125 442.820312 366.984375 472.265625 C 336.84375 501.710938 295.964844 518.253906 253.34375 518.253906 L 68.058594 518.253906 L 68.058594 451.511719 L 0.078125 451.511719 L 0.078125 82.777344 Z M 118.507812 82.777344 L 245.613281 82.777344 C 272.539062 82.777344 298.367188 93.476562 317.40625 112.515625 C 336.445312 131.554688 347.144531 157.378906 347.144531 184.308594 L 347.144531 190.910156 C 347.144531 217.839844 336.445312 243.664062 317.40625 262.703125 C 315.871094 264.238281 314.289062 265.722656 312.667969 267.144531 C 314.289062 268.574219 315.871094 270.054688 317.40625 271.589844 C 336.445312 290.628906 347.144531 316.457031 347.144531 343.382812 L 347.144531 349.988281 C 347.144531 376.914062 336.445312 402.738281 317.40625 421.777344 C 298.367188 440.816406 272.539062 451.511719 245.613281 451.511719 L 118.507812 451.511719 L 118.507812 468.964844 L 253.34375 468.964844 C 282.585938 468.964844 310.632812 457.617188 331.308594 437.414062 C 351.988281 417.210938 363.605469 389.808594 363.605469 361.238281 L 363.605469 343.03125 C 363.605469 331.738281 361.792969 320.632812 358.3125 310.078125 C 353.042969 294.035156 343.941406 279.277344 331.558594 267.109375 C 343.9375 254.9375 353.042969 240.179688 358.3125 224.136719 L 358.394531 223.890625 C 361.820312 213.410156 363.605469 202.386719 363.605469 191.183594 L 363.605469 172.976562 C 363.605469 144.40625 351.988281 117.003906 331.308594 96.800781 C 310.632812 76.597656 282.585938 65.25 253.34375 65.25 C 204.476562 65.25 154.300781 65.25 118.507812 65.25 Z M 68.058594 133.230469 L 50.527344 133.230469 L 50.527344 292.441406 C 50.527344 292.441406 50.527344 401.066406 50.527344 401.066406 L 245.613281 401.066406 C 259.160156 401.066406 272.152344 395.683594 281.734375 386.105469 C 291.3125 376.523438 296.691406 363.53125 296.691406 349.988281 L 296.691406 343.382812 C 296.691406 329.835938 291.3125 316.84375 281.734375 307.261719 C 272.875 298.402344 261.09375 293.132812 248.65625 292.394531 C 247.644531 292.425781 246.628906 292.441406 245.613281 292.441406 L 136.054688 292.441406 L 136.054688 241.855469 L 245.613281 241.855469 C 246.628906 241.855469 247.644531 241.867188 248.65625 241.898438 C 261.09375 241.15625 272.875 235.886719 281.734375 227.027344 C 291.3125 217.449219 296.691406 204.457031 296.691406 190.910156 L 296.691406 184.308594 C 296.691406 170.761719 291.3125 157.769531 281.734375 148.1875 C 272.152344 138.609375 259.160156 133.230469 245.613281 133.230469 Z M 118.507812 241.855469 L 118.523438 241.855469 L 118.523438 292.441406 L 118.507812 292.441406 L 118.507812 383.546875 L 68.058594 383.546875 L 68.058594 150.757812 L 118.507812 150.757812 Z M 118.507812 241.855469 " fill-opacity="1" fill-rule="evenodd"/></g><g clip-path="url(#594ac71186)"><path stroke-linecap="butt" transform="matrix(1.160558, 0, 0, 1.160558, 414.193527, 255.040177)" fill="none" stroke-linejoin="miter" d="M 49.994324 -23.430555 C 56.412976 -23.430555 61.054466 -21.932758 63.918794 -18.943894 C 66.799951 -15.971859 68.24053 -11.458271 68.24053 -5.403129 L 68.24053 -2.585923 C 68.24053 1.44635 67.604386 4.775163 66.325368 7.400517 C 65.066545 10.009041 63.060506 11.941032 60.307251 13.199855 C 63.662991 14.475507 66.025809 16.555595 67.392339 19.436752 C 68.779064 22.30108 69.472426 25.828477 69.472426 30.025677 L 69.472426 36.397207 C 69.472426 42.452349 67.903946 47.066912 64.766985 50.240897 C 61.630025 53.414882 56.961608 55.000192 50.761735 55.000192 L 31.39134 55.000192 L 31.39134 -23.430555 Z M 43.703574 19.709385 L 43.703574 43.785221 L 50.761735 43.785221 C 52.858652 43.785221 54.443962 43.226492 55.52103 42.115765 C 56.614927 41.001673 57.163558 38.988902 57.163558 36.070721 L 57.163558 29.231339 C 57.163558 25.565942 56.540878 23.065125 55.30225 21.735619 C 54.080451 20.385918 52.047485 19.709385 49.199987 19.709385 Z M 43.703574 -12.242511 L 43.703574 8.494414 L 48.543648 8.494414 C 50.859345 8.494414 52.666799 7.902026 53.962647 6.717252 C 55.275323 5.512282 55.931662 3.341317 55.931662 0.204356 L 55.931662 -4.171233 C 55.931662 -6.998536 55.420054 -9.048332 54.400206 -10.32735 C 53.397186 -11.603002 51.808511 -12.242511 49.637545 -12.242511 Z M 126.294496 55.000192 L 113.847629 55.000192 L 111.740614 40.776162 L 96.611175 40.776162 L 94.477234 55.000192 L 83.154556 55.000192 L 95.70913 -23.430555 L 113.736556 -23.430555 Z M 98.172923 30.133384 L 110.044232 30.133384 L 104.106895 -9.533012 Z M 160.137993 -23.430555 C 166.556645 -23.430555 171.198135 -21.932758 174.062463 -18.943894 C 176.94362 -15.971859 178.384198 -11.458271 178.384198 -5.403129 L 178.384198 -2.585923 C 178.384198 1.44635 177.748055 4.775163 176.469037 7.400517 C 175.210213 10.009041 173.204174 11.941032 170.450919 13.199855 C 173.806659 14.475507 176.169477 16.555595 177.536007 19.436752 C 178.922732 22.30108 179.616095 25.828477 179.616095 30.025677 L 179.616095 36.397207 C 179.616095 42.452349 178.047614 47.066912 174.910654 50.240897 C 171.773693 53.414882 167.105276 55.000192 160.905404 55.000192 L 141.535009 55.000192 L 141.535009 -23.430555 Z M 153.847242 19.709385 L 153.847242 43.785221 L 160.905404 43.785221 C 163.00232 43.785221 164.58763 43.226492 165.664698 42.115765 C 166.758595 41.001673 167.307227 38.988902 167.307227 36.070721 L 167.307227 29.231339 C 167.307227 25.565942 166.684547 23.065125 165.445919 21.735619 C 164.22412 20.385918 162.191154 19.709385 159.343655 19.709385 Z M 153.847242 -12.242511 L 153.847242 8.494414 L 158.687317 8.494414 C 161.006379 8.494414 162.810468 7.902026 164.106315 6.717252 C 165.418992 5.512282 166.07533 3.341317 166.07533 0.204356 L 166.07533 -4.171233 C 166.07533 -6.998536 165.563723 -9.048332 164.543874 -10.32735 C 163.540855 -11.603002 161.952179 -12.242511 159.78458 -12.242511 Z M 208.316592 -23.430555 L 208.316592 37.080472 C 208.316592 39.907776 208.888784 41.886888 210.0399 43.01781 C 211.20448 44.131902 212.756131 44.687265 214.688122 44.687265 C 216.640308 44.687265 218.191959 44.131902 219.33971 43.01781 C 220.507655 41.886888 221.089945 39.907776 221.089945 37.080472 L 221.089945 -23.430555 L 232.745841 -23.430555 L 232.745841 36.2895 C 232.745841 42.634104 231.19419 47.514569 228.094253 50.924162 C 224.994317 54.316926 220.416778 56.013309 214.361636 56.013309 C 208.306494 56.013309 203.728955 54.316926 200.629019 50.924162 C 197.529082 47.514569 195.977431 42.634104 195.977431 36.2895 L 195.977431 -23.430555 Z M 275.976658 -4.608792 C 275.976658 -10.956761 277.491285 -15.823763 280.517173 -19.216527 C 283.546427 -22.62612 288.086942 -24.3326 294.142084 -24.3326 C 300.197225 -24.3326 304.73774 -22.62612 307.763628 -19.216527 C 310.792882 -15.823763 312.307509 -10.956761 312.307509 -4.608792 L 312.307509 -2.144999 L 300.651614 -2.144999 L 300.651614 -5.403129 C 300.651614 -8.227067 300.106348 -10.216277 299.012451 -11.364028 C 297.935383 -12.531973 296.420756 -13.117629 294.46857 -13.117629 C 292.536579 -13.117629 291.021952 -12.531973 289.928055 -11.364028 C 288.854353 -10.216277 288.315819 -8.227067 288.315819 -5.403129 C 288.315819 -2.703728 288.908206 -0.324081 290.092981 1.739178 C 291.297951 3.778875 292.792383 5.72433 294.579643 7.565443 C 296.383732 9.389727 298.308991 11.210645 300.352054 13.034929 C 302.411947 14.859213 304.337206 16.855154 306.124465 19.02612 C 307.928554 21.197085 309.422986 23.66761 310.611127 26.44106 C 311.812731 29.194315 312.415216 32.438982 312.415216 36.178428 C 312.415216 42.526398 310.866931 47.403496 307.763628 50.81309 C 304.663692 54.205854 300.086153 55.902236 294.031011 55.902236 C 287.979235 55.902236 283.401696 54.205854 280.298394 50.81309 C 277.198457 47.403496 275.650172 42.526398 275.650172 36.178428 L 275.650172 31.36528 L 287.302702 31.36528 L 287.302702 36.972766 C 287.302702 39.800069 287.87826 41.779182 289.026011 42.910103 C 290.193956 44.020829 291.752339 44.576193 293.704525 44.576193 C 295.636516 44.576193 297.178069 44.020829 298.32582 42.910103 C 299.493765 41.779182 300.079421 39.800069 300.079421 36.972766 C 300.079421 34.273364 299.476936 31.903814 298.271966 29.860751 C 297.087192 27.797492 295.59276 25.855404 293.785305 24.034486 C 291.998045 22.190007 290.076152 20.358991 288.012893 18.534707 C 285.96983 16.693594 284.058034 14.694287 282.270775 12.543516 C 280.483515 10.372551 278.985717 7.912124 277.784113 5.158869 C 276.579143 2.385419 275.976658 -0.869346 275.976658 -4.608792 Z M 325.410715 -23.430555 L 363.491801 -23.430555 L 363.491801 -12.242511 L 350.604009 -12.242511 L 350.604009 55.000192 L 338.295141 55.000192 L 338.295141 -12.242511 L 325.410715 -12.242511 Z M 389.731871 36.972766 C 389.731871 39.800069 390.307429 41.796011 391.455179 42.963956 C 392.623125 44.111707 394.174776 44.687265 396.106767 44.687265 C 398.058953 44.687265 399.607238 44.111707 400.758354 42.963956 C 401.906105 41.796011 402.481663 39.800069 402.481663 36.972766 L 402.481663 -5.403129 C 402.481663 -8.227067 401.906105 -10.216277 400.758354 -11.364028 C 399.607238 -12.531973 398.058953 -13.117629 396.106767 -13.117629 C 394.174776 -13.117629 392.623125 -12.531973 391.455179 -11.364028 C 390.307429 -10.216277 389.731871 -8.227067 389.731871 -5.403129 Z M 377.396076 -4.608792 C 377.396076 -10.956761 379.00158 -15.823763 382.209224 -19.216527 C 385.420233 -22.62612 390.051625 -24.3326 396.106767 -24.3326 C 402.161909 -24.3326 406.793301 -22.62612 410.00431 -19.216527 C 413.215319 -15.823763 414.817458 -10.956761 414.817458 -4.608792 L 414.817458 36.178428 C 414.817458 42.526398 413.215319 47.403496 410.00431 50.81309 C 406.793301 54.205854 402.161909 55.902236 396.106767 55.902236 C 390.051625 55.902236 385.420233 54.205854 382.209224 50.81309 C 379.00158 47.403496 377.396076 42.526398 377.396076 36.178428 Z M 458.071836 55.000192 C 457.927105 54.471755 457.772277 53.987074 457.607351 53.549516 C 457.46262 53.095127 457.334718 52.529667 457.223645 51.853133 C 457.115939 51.179966 457.04189 50.321677 457.004866 49.281633 C 456.967842 48.24159 456.951013 46.939011 456.951013 45.37053 L 456.951013 33.034736 C 456.951013 29.365973 456.311503 26.794473 455.035851 25.320236 C 453.777028 23.822438 451.727233 23.075222 448.879734 23.075222 L 444.615218 23.075222 L 444.615218 55.000192 L 432.302984 55.000192 L 432.302984 -23.430555 L 450.905968 -23.430555 C 457.324621 -23.430555 461.966111 -21.932758 464.830438 -18.943894 C 467.711595 -15.971859 469.152174 -11.458271 469.152174 -5.403129 L 469.152174 0.779914 C 469.152174 8.841095 466.469601 14.138923 461.107822 16.673399 C 464.244783 17.952417 466.388821 20.029139 467.536572 22.910296 C 468.704517 25.774624 469.290173 29.258266 469.290173 33.361222 L 469.290173 45.481603 C 469.290173 47.413594 469.360856 49.109976 469.508952 50.567383 C 469.653684 52.028157 470.027291 53.50576 470.629776 55.000192 Z M 444.615218 -12.242511 L 444.615218 11.860251 L 449.455292 11.860251 C 451.770989 11.860251 453.578443 11.267864 454.870925 10.083089 C 456.183602 8.878119 456.843306 6.707154 456.843306 3.570194 L 456.843306 -4.171233 C 456.843306 -6.998536 456.331698 -9.048332 455.308484 -10.32735 C 454.305464 -11.603002 452.720155 -12.242511 450.549189 -12.242511 Z M 499.182176 9.615238 L 516.115705 9.615238 L 516.115705 20.833574 L 499.182176 20.833574 L 499.182176 43.785221 L 520.491294 43.785221 L 520.491294 55.000192 L 486.869943 55.000192 L 486.869943 -23.430555 L 520.491294 -23.430555 L 520.491294 -12.242511 L 499.182176 -12.242511 Z M 499.182176 9.615238 " stroke="#bfbfbf" stroke-width="8.404275" stroke-opacity="1" stroke-miterlimit="4"/></g><g fill="#445de6" fill-opacity="1"><g transform="translate(414.193527, 318.870871)"><g/></g></g><g fill="#445de6" fill-opacity="1"><g transform="translate(445.419792, 318.870871)"><g><path d="M 26.796875 -91.03125 C 34.242188 -91.03125 39.632812 -89.296875 42.96875 -85.828125 C 46.3125 -82.359375 47.984375 -77.113281 47.984375 -70.09375 L 47.984375 -66.84375 C 47.984375 -62.164062 47.242188 -58.304688 45.765625 -55.265625 C 44.296875 -52.234375 41.957031 -49.976562 38.75 -48.5 C 42.65625 -47.03125 45.410156 -44.625 47.015625 -41.28125 C 48.617188 -37.945312 49.421875 -33.851562 49.421875 -29 L 49.421875 -21.59375 C 49.421875 -14.5625 47.597656 -9.203125 43.953125 -5.515625 C 40.316406 -1.835938 34.898438 0 27.703125 0 L 5.203125 0 L 5.203125 -91.03125 Z M 19.5 -40.96875 L 19.5 -13 L 27.703125 -13 C 30.128906 -13 31.96875 -13.648438 33.21875 -14.953125 C 34.476562 -16.253906 35.109375 -18.597656 35.109375 -21.984375 L 35.109375 -29.90625 C 35.109375 -34.15625 34.394531 -37.0625 32.96875 -38.625 C 31.539062 -40.1875 29.175781 -40.96875 25.875 -40.96875 Z M 19.5 -78.03125 L 19.5 -53.96875 L 25.09375 -53.96875 C 27.78125 -53.96875 29.882812 -54.660156 31.40625 -56.046875 C 32.925781 -57.429688 33.6875 -59.945312 33.6875 -63.59375 L 33.6875 -68.671875 C 33.6875 -71.960938 33.097656 -74.34375 31.921875 -75.8125 C 30.753906 -77.289062 28.914062 -78.03125 26.40625 -78.03125 Z M 19.5 -78.03125 "/></g></g></g><g fill="#445de6" fill-opacity="1"><g transform="translate(509.268944, 318.870871)"><g><path d="M 51.5 0 L 37.0625 0 L 34.59375 -16.515625 L 17.03125 -16.515625 L 14.5625 0 L 1.4375 0 L 16 -91.03125 L 36.9375 -91.03125 Z M 18.859375 -28.875 L 32.640625 -28.875 L 25.75 -74.90625 Z M 18.859375 -28.875 "/></g></g></g><g fill="#445de6" fill-opacity="1"><g transform="translate(573.248148, 318.870871)"><g><path d="M 26.796875 -91.03125 C 34.242188 -91.03125 39.632812 -89.296875 42.96875 -85.828125 C 46.3125 -82.359375 47.984375 -77.113281 47.984375 -70.09375 L 47.984375 -66.84375 C 47.984375 -62.164062 47.242188 -58.304688 45.765625 -55.265625 C 44.296875 -52.234375 41.957031 -49.976562 38.75 -48.5 C 42.65625 -47.03125 45.410156 -44.625 47.015625 -41.28125 C 48.617188 -37.945312 49.421875 -33.851562 49.421875 -29 L 49.421875 -21.59375 C 49.421875 -14.5625 47.597656 -9.203125 43.953125 -5.515625 C 40.316406 -1.835938 34.898438 0 27.703125 0 L 5.203125 0 L 5.203125 -91.03125 Z M 19.5 -40.96875 L 19.5 -13 L 27.703125 -13 C 30.128906 -13 31.96875 -13.648438 33.21875 -14.953125 C 34.476562 -16.253906 35.109375 -18.597656 35.109375 -21.984375 L 35.109375 -29.90625 C 35.109375 -34.15625 34.394531 -37.0625 32.96875 -38.625 C 31.539062 -40.1875 29.175781 -40.96875 25.875 -40.96875 Z M 19.5 -78.03125 L 19.5 -53.96875 L 25.09375 -53.96875 C 27.78125 -53.96875 29.882812 -54.660156 31.40625 -56.046875 C 32.925781 -57.429688 33.6875 -59.945312 33.6875 -63.59375 L 33.6875 -68.671875 C 33.6875 -71.960938 33.097656 -74.34375 31.921875 -75.8125 C 30.753906 -77.289062 28.914062 -78.03125 26.40625 -78.03125 Z M 19.5 -78.03125 "/></g></g></g><g fill="#445de6" fill-opacity="1"><g transform="translate(637.097304, 318.870871)"><g><path d="M 18.859375 -91.03125 L 18.859375 -20.8125 C 18.859375 -17.507812 19.53125 -15.207031 20.875 -13.90625 C 22.21875 -12.613281 24.015625 -11.96875 26.265625 -11.96875 C 28.523438 -11.96875 30.328125 -12.613281 31.671875 -13.90625 C 33.015625 -15.207031 33.6875 -17.507812 33.6875 -20.8125 L 33.6875 -91.03125 L 47.203125 -91.03125 L 47.203125 -21.71875 C 47.203125 -14.34375 45.398438 -8.679688 41.796875 -4.734375 C 38.203125 -0.796875 32.894531 1.171875 25.875 1.171875 C 18.851562 1.171875 13.539062 -0.796875 9.9375 -4.734375 C 6.34375 -8.679688 4.546875 -14.34375 4.546875 -21.71875 L 4.546875 -91.03125 Z M 18.859375 -91.03125 "/></g></g></g><g fill="#445de6" fill-opacity="1"><g transform="translate(699.90617, 318.870871)"><g/></g></g><g fill="#445de6" fill-opacity="1"><g transform="translate(731.116037, 318.870871)"><g><path d="M 3.375 -69.1875 C 3.375 -76.550781 5.128906 -82.207031 8.640625 -86.15625 C 12.160156 -90.101562 17.429688 -92.078125 24.453125 -92.078125 C 31.472656 -92.078125 36.738281 -90.101562 40.25 -86.15625 C 43.757812 -82.207031 45.515625 -76.550781 45.515625 -69.1875 L 45.515625 -66.328125 L 31.984375 -66.328125 L 31.984375 -70.09375 C 31.984375 -73.382812 31.351562 -75.703125 30.09375 -77.046875 C 28.84375 -78.390625 27.09375 -79.0625 24.84375 -79.0625 C 22.582031 -79.0625 20.820312 -78.390625 19.5625 -77.046875 C 18.3125 -75.703125 17.6875 -73.382812 17.6875 -70.09375 C 17.6875 -66.96875 18.378906 -64.210938 19.765625 -61.828125 C 21.148438 -59.453125 22.882812 -57.203125 24.96875 -55.078125 C 27.050781 -52.953125 29.285156 -50.828125 31.671875 -48.703125 C 34.054688 -46.578125 36.285156 -44.253906 38.359375 -41.734375 C 40.441406 -39.222656 42.175781 -36.363281 43.5625 -33.15625 C 44.945312 -29.945312 45.640625 -26.175781 45.640625 -21.84375 C 45.640625 -14.476562 43.84375 -8.820312 40.25 -4.875 C 36.65625 -0.925781 31.34375 1.046875 24.3125 1.046875 C 17.289062 1.046875 11.976562 -0.925781 8.375 -4.875 C 4.78125 -8.820312 2.984375 -14.476562 2.984375 -21.84375 L 2.984375 -27.4375 L 16.515625 -27.4375 L 16.515625 -20.9375 C 16.515625 -17.644531 17.1875 -15.347656 18.53125 -14.046875 C 19.875 -12.742188 21.671875 -12.09375 23.921875 -12.09375 C 26.179688 -12.09375 27.984375 -12.742188 29.328125 -14.046875 C 30.671875 -15.347656 31.34375 -17.644531 31.34375 -20.9375 C 31.34375 -24.0625 30.648438 -26.8125 29.265625 -29.1875 C 27.878906 -31.570312 26.144531 -33.828125 24.0625 -35.953125 C 21.976562 -38.078125 19.742188 -40.203125 17.359375 -42.328125 C 14.972656 -44.453125 12.738281 -46.769531 10.65625 -49.28125 C 8.582031 -51.800781 6.847656 -54.664062 5.453125 -57.875 C 4.066406 -61.082031 3.375 -64.851562 3.375 -69.1875 Z M 3.375 -69.1875 "/></g></g></g><g fill="#445de6" fill-opacity="1"><g transform="translate(790.804009, 318.870871)"><g><path d="M 1.046875 -91.03125 L 45.25 -91.03125 L 45.25 -78.03125 L 30.296875 -78.03125 L 30.296875 0 L 16 0 L 16 -78.03125 L 1.046875 -78.03125 Z M 1.046875 -91.03125 "/></g></g></g><g fill="#445de6" fill-opacity="1"><g transform="translate(848.151332, 318.870871)"><g><path d="M 18.34375 -20.9375 C 18.34375 -17.644531 19.015625 -15.328125 20.359375 -13.984375 C 21.703125 -12.640625 23.5 -11.96875 25.75 -11.96875 C 28 -11.96875 29.796875 -12.640625 31.140625 -13.984375 C 32.484375 -15.328125 33.15625 -17.644531 33.15625 -20.9375 L 33.15625 -70.09375 C 33.15625 -73.382812 32.484375 -75.703125 31.140625 -77.046875 C 29.796875 -78.390625 28 -79.0625 25.75 -79.0625 C 23.5 -79.0625 21.703125 -78.390625 20.359375 -77.046875 C 19.015625 -75.703125 18.34375 -73.382812 18.34375 -70.09375 Z M 4.03125 -69.1875 C 4.03125 -76.550781 5.894531 -82.207031 9.625 -86.15625 C 13.351562 -90.101562 18.726562 -92.078125 25.75 -92.078125 C 32.769531 -92.078125 38.144531 -90.101562 41.875 -86.15625 C 45.601562 -82.207031 47.46875 -76.550781 47.46875 -69.1875 L 47.46875 -21.84375 C 47.46875 -14.476562 45.601562 -8.820312 41.875 -4.875 C 38.144531 -0.925781 32.769531 1.046875 25.75 1.046875 C 18.726562 1.046875 13.351562 -0.925781 9.625 -4.875 C 5.894531 -8.820312 4.03125 -14.476562 4.03125 -21.84375 Z M 4.03125 -69.1875 "/></g></g></g><g fill="#445de6" fill-opacity="1"><g transform="translate(910.700129, 318.870871)"><g><path d="M 35.109375 0 C 34.941406 -0.601562 34.769531 -1.164062 34.59375 -1.6875 C 34.414062 -2.207031 34.257812 -2.859375 34.125 -3.640625 C 34 -4.421875 33.914062 -5.414062 33.875 -6.625 C 33.832031 -7.84375 33.8125 -9.363281 33.8125 -11.1875 L 33.8125 -25.484375 C 33.8125 -29.734375 33.070312 -32.722656 31.59375 -34.453125 C 30.125 -36.191406 27.742188 -37.0625 24.453125 -37.0625 L 19.5 -37.0625 L 19.5 0 L 5.203125 0 L 5.203125 -91.03125 L 26.796875 -91.03125 C 34.242188 -91.03125 39.632812 -89.296875 42.96875 -85.828125 C 46.3125 -82.359375 47.984375 -77.113281 47.984375 -70.09375 L 47.984375 -62.9375 C 47.984375 -53.570312 44.863281 -47.414062 38.625 -44.46875 C 42.257812 -43 44.75 -40.59375 46.09375 -37.25 C 47.445312 -33.914062 48.125 -29.863281 48.125 -25.09375 L 48.125 -11.046875 C 48.125 -8.796875 48.207031 -6.820312 48.375 -5.125 C 48.550781 -3.4375 48.984375 -1.726562 49.671875 0 Z M 19.5 -78.03125 L 19.5 -50.0625 L 25.09375 -50.0625 C 27.78125 -50.0625 29.882812 -50.753906 31.40625 -52.140625 C 32.925781 -53.535156 33.6875 -56.050781 33.6875 -59.6875 L 33.6875 -68.671875 C 33.6875 -71.960938 33.097656 -74.34375 31.921875 -75.8125 C 30.753906 -77.289062 28.914062 -78.03125 26.40625 -78.03125 Z M 19.5 -78.03125 "/></g></g></g><g fill="#445de6" fill-opacity="1"><g transform="translate(974.029137, 318.870871)"><g><path d="M 19.5 -52.671875 L 39.140625 -52.671875 L 39.140625 -39.671875 L 19.5 -39.671875 L 19.5 -13 L 44.21875 -13 L 44.21875 0 L 5.203125 0 L 5.203125 -91.03125 L 44.21875 -91.03125 L 44.21875 -78.03125 L 19.5 -78.03125 Z M 19.5 -52.671875 "/></g></g></g></svg>