<svg xmlns="http://www.w3.org/2000/svg" xmlns:xlink="http://www.w3.org/1999/xlink" width="1366" zoomAndPan="magnify" viewBox="0 0 1024.5 576" height="768" preserveAspectRatio="xMidYMid meet" version="1.0"><defs><g/><clipPath id="883ddfae5a"><path d="M 0 29.800781 L 409.300781 29.800781 L 409.300781 526.058594 L 0 526.058594 Z M 0 29.800781 " clip-rule="nonzero"/></clipPath><clipPath id="6f3b9e1d1a"><path d="M 370 153 L 1024 153 L 1024 389 L 370 389 Z M 370 153 " clip-rule="nonzero"/></clipPath></defs><g clip-path="url(#883ddfae5a)"><path fill="#445de6" d="M 67.265625 95.8125 L 67.265625 29.78125 L 250.375 29.78125 C 292.5 29.78125 332.898438 46.128906 362.683594 75.226562 C 392.46875 104.332031 409.207031 143.796875 409.207031 184.953125 L 409.207031 202.945312 C 409.207031 229.324219 402.324219 255.011719 389.539062 277.714844 L 389.386719 277.980469 C 402.273438 300.746094 409.207031 326.53125 409.207031 353.015625 L 409.207031 371.007812 C 409.207031 412.164062 392.46875 451.632812 362.683594 480.730469 C 332.898438 509.832031 292.5 526.179688 250.375 526.179688 L 67.265625 526.179688 L 67.265625 460.222656 L 0.0820312 460.222656 L 0.0820312 95.8125 Z M 117.121094 95.8125 L 242.738281 95.8125 C 269.347656 95.8125 294.871094 106.386719 313.6875 125.203125 C 332.503906 144.019531 343.074219 169.539062 343.074219 196.152344 L 343.074219 202.679688 C 343.074219 229.289062 332.503906 254.8125 313.6875 273.625 C 312.167969 275.144531 310.605469 276.609375 309.003906 278.019531 C 310.605469 279.429688 312.167969 280.890625 313.6875 282.410156 C 332.503906 301.226562 343.074219 326.75 343.074219 353.359375 L 343.074219 359.886719 C 343.074219 386.5 332.503906 412.019531 313.6875 430.835938 C 294.871094 449.652344 269.347656 460.222656 242.738281 460.222656 L 117.121094 460.222656 L 117.121094 477.472656 L 250.375 477.472656 C 279.277344 477.472656 306.992188 466.257812 327.429688 446.289062 C 347.863281 426.324219 359.347656 399.242188 359.347656 371.007812 L 359.347656 353.015625 C 359.347656 341.855469 357.554688 330.878906 354.117188 320.445312 C 348.90625 304.59375 339.910156 290.007812 327.675781 277.980469 C 339.910156 265.953125 348.90625 251.371094 354.117188 235.515625 L 354.195312 235.269531 C 357.582031 224.914062 359.347656 214.019531 359.347656 202.945312 L 359.347656 184.953125 C 359.347656 156.71875 347.863281 129.636719 327.429688 109.671875 C 306.992188 89.707031 279.277344 78.492188 250.375 78.492188 C 202.082031 78.492188 152.496094 78.492188 117.121094 78.492188 Z M 67.265625 145.671875 L 49.941406 145.671875 L 49.941406 303.015625 C 49.941406 303.015625 49.941406 410.367188 49.941406 410.367188 L 242.738281 410.367188 C 256.125 410.367188 268.964844 405.046875 278.433594 395.582031 C 287.898438 386.113281 293.21875 373.273438 293.21875 359.886719 L 293.21875 353.359375 C 293.21875 339.972656 287.898438 327.132812 278.433594 317.664062 C 269.675781 308.910156 258.035156 303.703125 245.742188 302.972656 C 244.742188 303 243.742188 303.015625 242.738281 303.015625 L 134.460938 303.015625 L 134.460938 253.023438 L 242.738281 253.023438 C 243.742188 253.023438 244.742188 253.039062 245.742188 253.070312 C 258.035156 252.335938 269.675781 247.128906 278.433594 238.371094 C 287.898438 228.90625 293.21875 216.066406 293.21875 202.679688 L 293.21875 196.152344 C 293.21875 182.765625 287.898438 169.925781 278.433594 160.457031 C 268.964844 150.988281 256.125 145.671875 242.738281 145.671875 L 117.121094 145.671875 L 117.121094 145.675781 L 67.265625 145.675781 Z M 117.121094 253.023438 L 117.136719 253.023438 L 117.136719 303.015625 L 117.121094 303.015625 L 117.121094 393.054688 L 67.265625 393.054688 L 67.265625 162.996094 L 117.121094 162.996094 Z M 117.121094 253.023438 " fill-opacity="1" fill-rule="evenodd"/></g><g clip-path="url(#6f3b9e1d1a)"><path stroke-linecap="butt" transform="matrix(1.340104, 0, 0, 1.340104, 396.914894, 249.941084)" fill="none" stroke-linejoin="miter" d="M 71.277098 55.001233 L 58.830532 55.001233 L 56.72307 40.773672 L 41.597724 40.773672 L 39.464027 55.001233 L 28.136778 55.001233 L 40.694109 -23.429617 L 58.722682 -23.429617 Z M 43.154273 30.134337 L 55.029521 30.134337 L 49.091897 -9.531438 Z M 105.121844 -23.429617 C 111.543339 -23.429617 116.183838 -21.93428 119.046257 -18.943607 C 121.929079 -15.970422 123.369033 -11.458178 123.369033 -5.401044 L 123.369033 -2.585264 C 123.369033 1.446024 122.730673 4.774824 121.453953 7.401137 C 120.194722 10.009961 118.18928 11.94253 115.434712 13.198846 C 118.792662 14.475567 121.15372 16.556796 122.520801 19.436703 C 123.908287 22.299122 124.599115 25.829049 124.599115 30.023571 L 124.599115 36.398428 C 124.599115 42.452647 123.030907 47.066912 119.894489 50.241223 C 116.758071 53.41262 112.088423 55.001233 105.888459 55.001233 L 86.521954 55.001233 L 86.521954 -23.429617 Z M 98.831519 19.710703 L 98.831519 43.78475 L 105.888459 43.78475 C 107.987178 43.78475 109.572876 43.228007 110.648469 42.11452 C 111.741551 41.003948 112.28955 38.986847 112.28955 36.069045 L 112.28955 29.230722 C 112.28955 25.563795 111.668679 23.065737 110.429852 21.736549 C 109.208515 20.386956 107.173924 19.710703 104.328995 19.710703 Z M 98.831519 -12.242283 L 98.831519 8.49422 L 103.673146 8.49422 C 105.987565 8.49422 107.794795 7.902498 109.089005 6.716139 C 110.403618 5.512291 111.059468 3.343615 111.059468 0.207197 L 111.059468 -4.170962 C 111.059468 -6.998402 110.549363 -9.050482 109.526238 -10.327202 C 108.523517 -11.603922 106.937818 -12.242283 104.766228 -12.242283 Z M 153.299087 -23.429617 L 153.299087 37.080511 C 153.299087 39.907951 153.87332 41.887159 155.021785 43.018135 C 156.190655 44.131621 157.741374 44.68545 159.673944 44.68545 C 161.624003 44.68545 163.174723 44.131621 164.323188 43.018135 C 165.492057 41.887159 166.075035 39.907951 166.075035 37.080511 L 166.075035 -23.429617 L 177.728751 -23.429617 L 177.728751 36.287662 C 177.728751 42.636285 176.178031 47.51289 173.076592 50.923307 C 169.978068 54.316235 165.398781 56.012699 159.344562 56.012699 C 153.290343 56.012699 148.713971 54.316235 145.612532 50.923307 C 142.511093 47.51289 140.963288 42.636285 140.963288 36.287662 L 140.963288 -23.429617 Z M 220.962347 -4.608195 C 220.962347 -10.953903 222.475173 -15.824678 225.50374 -19.217606 C 228.529392 -22.628023 233.070785 -24.333232 239.125004 -24.333232 C 245.179223 -24.333232 249.720616 -22.628023 252.749183 -19.217606 C 255.77775 -15.824678 257.290576 -10.953903 257.290576 -4.608195 L 257.290576 -2.148031 L 245.63686 -2.148031 L 245.63686 -5.401044 C 245.63686 -8.228484 245.088862 -10.216437 243.995779 -11.364902 C 242.920186 -12.533771 241.404445 -13.116749 239.454386 -13.116749 C 237.521817 -13.116749 236.006076 -12.533771 234.912993 -11.364902 C 233.8374 -10.216437 233.298146 -8.228484 233.298146 -5.401044 C 233.298146 -2.701859 233.892783 -0.323312 235.076227 1.737513 C 236.280075 3.780848 237.775412 5.722163 239.562237 7.564371 C 241.369467 9.38909 243.293292 11.210894 245.336627 13.035613 C 247.397452 14.860332 249.321277 16.857029 251.108102 19.025704 C 252.912417 21.197295 254.407754 23.669118 255.594113 26.441175 C 256.797961 29.192828 257.398427 32.440012 257.398427 36.179811 C 257.398427 42.525519 255.850623 47.405039 252.749183 50.815456 C 249.647744 54.205469 245.071372 55.901933 239.017153 55.901933 C 232.962934 55.901933 228.383648 54.205469 225.285123 50.815456 C 222.183684 47.405039 220.632964 42.525519 220.632964 36.179811 L 220.632964 31.364419 L 232.28668 31.364419 L 232.28668 36.97266 C 232.28668 39.8001 232.860913 41.779308 234.009378 42.907369 C 235.178248 44.020856 236.737712 44.577599 238.687771 44.577599 C 240.620341 44.577599 242.162316 44.020856 243.310781 42.907369 C 244.47965 41.779308 245.062628 39.8001 245.062628 36.97266 C 245.062628 34.273475 244.459246 31.903673 243.255398 29.860337 C 242.071954 27.799513 240.576618 25.858198 238.769388 24.033479 C 236.982563 22.191271 235.058737 20.357807 232.997913 18.533089 C 230.954577 16.693795 229.039497 14.694183 227.252672 12.542997 C 225.465846 10.374321 223.970509 7.911242 222.766661 5.156675 C 221.562813 2.384618 220.962347 -0.871311 220.962347 -4.608195 Z M 270.395906 -23.429617 L 308.473068 -23.429617 L 308.473068 -12.242283 L 295.589269 -12.242283 L 295.589269 55.001233 L 283.279704 55.001233 L 283.279704 -12.242283 L 270.395906 -12.242283 Z M 334.718705 36.97266 C 334.718705 39.8001 335.292938 41.796797 336.441403 42.962752 C 337.607358 44.111217 339.158077 44.68545 341.090647 44.68545 C 343.043621 44.68545 344.59434 44.111217 345.742806 42.962752 C 346.891271 41.796797 347.465504 39.8001 347.465504 36.97266 L 347.465504 -5.401044 C 347.465504 -8.228484 346.891271 -10.216437 345.742806 -11.364902 C 344.59434 -12.533771 343.043621 -13.116749 341.090647 -13.116749 C 339.158077 -13.116749 337.607358 -12.533771 336.441403 -11.364902 C 335.292938 -10.216437 334.718705 -8.228484 334.718705 -5.401044 Z M 322.379991 -4.608195 C 322.379991 -10.953903 323.986093 -15.824678 327.195383 -19.217606 C 330.404673 -22.628023 335.036428 -24.333232 341.090647 -24.333232 C 347.144866 -24.333232 351.779536 -22.628023 354.988826 -19.217606 C 358.198116 -15.824678 359.804218 -10.953903 359.804218 -4.608195 L 359.804218 36.179811 C 359.804218 42.525519 358.198116 47.405039 354.988826 50.815456 C 351.779536 54.205469 347.144866 55.901933 341.090647 55.901933 C 335.036428 55.901933 330.404673 54.205469 327.195383 50.815456 C 323.986093 47.405039 322.379991 42.525519 322.379991 36.179811 Z M 403.058218 55.001233 C 402.909559 54.470724 402.75507 53.986852 402.591836 53.549619 C 402.446092 53.094897 402.317837 52.529409 402.209986 51.853156 C 402.09922 51.179817 402.026348 50.32284 401.99137 49.282226 C 401.953476 48.244526 401.935987 46.938657 401.935987 45.370448 L 401.935987 33.031734 C 401.935987 29.367721 401.297627 26.796792 400.020906 25.318944 C 398.761675 23.823607 396.709595 23.074482 393.864666 23.074482 L 389.597272 23.074482 L 389.597272 55.001233 L 377.287707 55.001233 L 377.287707 -23.429617 L 395.890512 -23.429617 C 402.309092 -23.429617 406.949591 -21.93428 409.814925 -18.943607 C 412.694833 -15.970422 414.134787 -11.458178 414.134787 -5.401044 L 414.134787 0.78143 C 414.134787 8.841091 411.456006 14.140355 406.092615 16.673391 C 409.229033 17.950111 411.374389 20.03134 412.522854 22.911248 C 413.688809 25.773666 414.271786 29.256956 414.271786 33.361116 L 414.271786 45.481214 C 414.271786 47.413783 414.344658 49.110247 414.490403 50.567691 C 414.636147 52.028049 415.012167 53.505896 415.612634 55.001233 Z M 389.597272 -12.242283 L 389.597272 11.860913 L 394.438899 11.860913 C 396.756234 11.860913 398.560548 11.266277 399.857673 10.082833 C 401.169372 8.878985 401.825221 6.707394 401.825221 3.570976 L 401.825221 -4.170962 C 401.825221 -6.998402 401.315116 -9.050482 400.294906 -10.327202 C 399.292185 -11.603922 397.703572 -12.242283 395.534896 -12.242283 Z M 444.166862 9.616451 L 461.099437 9.616451 L 461.099437 20.832934 L 444.166862 20.832934 L 444.166862 43.78475 L 465.474682 43.78475 L 465.474682 55.001233 L 431.854381 55.001233 L 431.854381 -23.429617 L 465.474682 -23.429617 L 465.474682 -12.242283 L 444.166862 -12.242283 Z M 444.166862 9.616451 " stroke="#bfbfbf" stroke-width="8.404275" stroke-opacity="1" stroke-miterlimit="4"/></g><g fill="#445de6" fill-opacity="1"><g transform="translate(396.914894, 323.646785)"><g/></g></g><g fill="#445de6" fill-opacity="1"><g transform="translate(432.972058, 323.646785)"><g><path d="M 59.46875 0 L 42.796875 0 L 39.9375 -19.0625 L 19.671875 -19.0625 L 16.8125 0 L 1.65625 0 L 18.46875 -105.109375 L 42.640625 -105.109375 Z M 21.765625 -33.328125 L 37.6875 -33.328125 L 29.734375 -86.484375 Z M 21.765625 -33.328125 "/></g></g></g><g fill="#445de6" fill-opacity="1"><g transform="translate(506.849245, 323.646785)"><g><path d="M 30.9375 -105.109375 C 39.539062 -105.109375 45.769531 -103.101562 49.625 -99.09375 C 53.476562 -95.09375 55.40625 -89.039062 55.40625 -80.9375 L 55.40625 -77.1875 C 55.40625 -71.78125 54.550781 -67.320312 52.84375 -63.8125 C 51.144531 -60.3125 48.445312 -57.710938 44.75 -56.015625 C 49.25 -54.304688 52.425781 -51.523438 54.28125 -47.671875 C 56.132812 -43.816406 57.0625 -39.085938 57.0625 -33.484375 L 57.0625 -24.921875 C 57.0625 -16.816406 54.957031 -10.632812 50.75 -6.375 C 46.550781 -2.125 40.296875 0 31.984375 0 L 6 0 L 6 -105.109375 Z M 22.53125 -47.296875 L 22.53125 -15.015625 L 31.984375 -15.015625 C 34.785156 -15.015625 36.910156 -15.765625 38.359375 -17.265625 C 39.816406 -18.765625 40.546875 -21.46875 40.546875 -25.375 L 40.546875 -34.53125 C 40.546875 -39.4375 39.71875 -42.789062 38.0625 -44.59375 C 36.414062 -46.394531 33.6875 -47.296875 29.875 -47.296875 Z M 22.53125 -90.09375 L 22.53125 -62.3125 L 28.984375 -62.3125 C 32.085938 -62.3125 34.515625 -63.113281 36.265625 -64.71875 C 38.015625 -66.320312 38.890625 -69.222656 38.890625 -73.421875 L 38.890625 -79.28125 C 38.890625 -83.082031 38.210938 -85.832031 36.859375 -87.53125 C 35.515625 -89.238281 33.390625 -90.09375 30.484375 -90.09375 Z M 22.53125 -90.09375 "/></g></g></g><g fill="#445de6" fill-opacity="1"><g transform="translate(580.576258, 323.646785)"><g><path d="M 21.765625 -105.109375 L 21.765625 -24.03125 C 21.765625 -20.21875 22.539062 -17.5625 24.09375 -16.0625 C 25.644531 -14.5625 27.722656 -13.8125 30.328125 -13.8125 C 32.929688 -13.8125 35.007812 -14.5625 36.5625 -16.0625 C 38.113281 -17.5625 38.890625 -20.21875 38.890625 -24.03125 L 38.890625 -105.109375 L 54.5 -105.109375 L 54.5 -25.078125 C 54.5 -16.566406 52.421875 -10.035156 48.265625 -5.484375 C 44.117188 -0.929688 37.988281 1.34375 29.875 1.34375 C 21.769531 1.34375 15.640625 -0.929688 11.484375 -5.484375 C 7.328125 -10.035156 5.25 -16.566406 5.25 -25.078125 L 5.25 -105.109375 Z M 21.765625 -105.109375 "/></g></g></g><g fill="#445de6" fill-opacity="1"><g transform="translate(653.102058, 323.646785)"><g/></g></g><g fill="#445de6" fill-opacity="1"><g transform="translate(689.140287, 323.646785)"><g><path d="M 3.90625 -79.890625 C 3.90625 -88.390625 5.929688 -94.914062 9.984375 -99.46875 C 14.035156 -104.03125 20.117188 -106.3125 28.234375 -106.3125 C 36.335938 -106.3125 42.414062 -104.03125 46.46875 -99.46875 C 50.53125 -94.914062 52.5625 -88.390625 52.5625 -79.890625 L 52.5625 -76.578125 L 36.9375 -76.578125 L 36.9375 -80.9375 C 36.9375 -84.738281 36.207031 -87.414062 34.75 -88.96875 C 33.300781 -90.519531 31.28125 -91.296875 28.6875 -91.296875 C 26.082031 -91.296875 24.050781 -90.519531 22.59375 -88.96875 C 21.144531 -87.414062 20.421875 -84.738281 20.421875 -80.9375 C 20.421875 -77.332031 21.21875 -74.148438 22.8125 -71.390625 C 24.414062 -68.640625 26.421875 -66.035156 28.828125 -63.578125 C 31.234375 -61.128906 33.8125 -58.679688 36.5625 -56.234375 C 39.3125 -53.785156 41.890625 -51.109375 44.296875 -48.203125 C 46.703125 -45.296875 48.703125 -41.988281 50.296875 -38.28125 C 51.898438 -34.582031 52.703125 -30.226562 52.703125 -25.21875 C 52.703125 -16.71875 50.625 -10.1875 46.46875 -5.625 C 42.3125 -1.070312 36.179688 1.203125 28.078125 1.203125 C 19.972656 1.203125 13.84375 -1.070312 9.6875 -5.625 C 5.53125 -10.1875 3.453125 -16.71875 3.453125 -25.21875 L 3.453125 -31.6875 L 19.0625 -31.6875 L 19.0625 -24.171875 C 19.0625 -20.367188 19.835938 -17.71875 21.390625 -16.21875 C 22.941406 -14.71875 25.019531 -13.96875 27.625 -13.96875 C 30.226562 -13.96875 32.304688 -14.71875 33.859375 -16.21875 C 35.410156 -17.71875 36.1875 -20.367188 36.1875 -24.171875 C 36.1875 -27.773438 35.382812 -30.953125 33.78125 -33.703125 C 32.175781 -36.460938 30.171875 -39.066406 27.765625 -41.515625 C 25.367188 -43.972656 22.796875 -46.425781 20.046875 -48.875 C 17.296875 -51.332031 14.71875 -54.007812 12.3125 -56.90625 C 9.90625 -59.8125 7.898438 -63.113281 6.296875 -66.8125 C 4.703125 -70.519531 3.90625 -74.878906 3.90625 -79.890625 Z M 3.90625 -79.890625 "/></g></g></g><g fill="#445de6" fill-opacity="1"><g transform="translate(758.06236, 323.646785)"><g><path d="M 1.203125 -105.109375 L 52.25 -105.109375 L 52.25 -90.09375 L 34.984375 -90.09375 L 34.984375 0 L 18.46875 0 L 18.46875 -90.09375 L 1.203125 -90.09375 Z M 1.203125 -105.109375 "/></g></g></g><g fill="#445de6" fill-opacity="1"><g transform="translate(824.281672, 323.646785)"><g><path d="M 21.171875 -24.171875 C 21.171875 -20.367188 21.945312 -17.691406 23.5 -16.140625 C 25.050781 -14.585938 27.128906 -13.8125 29.734375 -13.8125 C 32.335938 -13.8125 34.414062 -14.585938 35.96875 -16.140625 C 37.519531 -17.691406 38.296875 -20.367188 38.296875 -24.171875 L 38.296875 -80.9375 C 38.296875 -84.738281 37.519531 -87.414062 35.96875 -88.96875 C 34.414062 -90.519531 32.335938 -91.296875 29.734375 -91.296875 C 27.128906 -91.296875 25.050781 -90.519531 23.5 -88.96875 C 21.945312 -87.414062 21.171875 -84.738281 21.171875 -80.9375 Z M 4.65625 -79.890625 C 4.65625 -88.390625 6.804688 -94.914062 11.109375 -99.46875 C 15.410156 -104.03125 21.617188 -106.3125 29.734375 -106.3125 C 37.835938 -106.3125 44.039062 -104.03125 48.34375 -99.46875 C 52.65625 -94.914062 54.8125 -88.390625 54.8125 -79.890625 L 54.8125 -25.21875 C 54.8125 -16.71875 52.65625 -10.1875 48.34375 -5.625 C 44.039062 -1.070312 37.835938 1.203125 29.734375 1.203125 C 21.617188 1.203125 15.410156 -1.070312 11.109375 -5.625 C 6.804688 -10.1875 4.65625 -16.71875 4.65625 -25.21875 Z M 4.65625 -79.890625 "/></g></g></g><g fill="#445de6" fill-opacity="1"><g transform="translate(896.507158, 323.646785)"><g><path d="M 40.546875 0 C 40.335938 -0.695312 40.132812 -1.347656 39.9375 -1.953125 C 39.738281 -2.554688 39.5625 -3.304688 39.40625 -4.203125 C 39.257812 -5.109375 39.160156 -6.257812 39.109375 -7.65625 C 39.066406 -9.0625 39.046875 -10.8125 39.046875 -12.90625 L 39.046875 -29.4375 C 39.046875 -34.332031 38.191406 -37.78125 36.484375 -39.78125 C 34.785156 -41.789062 32.035156 -42.796875 28.234375 -42.796875 L 22.53125 -42.796875 L 22.53125 0 L 6 0 L 6 -105.109375 L 30.9375 -105.109375 C 39.539062 -105.109375 45.769531 -103.101562 49.625 -99.09375 C 53.476562 -95.09375 55.40625 -89.039062 55.40625 -80.9375 L 55.40625 -72.671875 C 55.40625 -61.859375 51.800781 -54.753906 44.59375 -51.359375 C 48.800781 -49.648438 51.679688 -46.867188 53.234375 -43.015625 C 54.785156 -39.160156 55.5625 -34.484375 55.5625 -28.984375 L 55.5625 -12.765625 C 55.5625 -10.160156 55.660156 -7.878906 55.859375 -5.921875 C 56.054688 -3.972656 56.554688 -2 57.359375 0 Z M 22.53125 -90.09375 L 22.53125 -57.8125 L 28.984375 -57.8125 C 32.085938 -57.8125 34.515625 -58.609375 36.265625 -60.203125 C 38.015625 -61.804688 38.890625 -64.710938 38.890625 -68.921875 L 38.890625 -79.28125 C 38.890625 -83.082031 38.210938 -85.832031 36.859375 -87.53125 C 35.515625 -89.238281 33.390625 -90.09375 30.484375 -90.09375 Z M 22.53125 -90.09375 "/></g></g></g><g fill="#445de6" fill-opacity="1"><g transform="translate(969.633558, 323.646785)"><g><path d="M 22.53125 -60.8125 L 45.203125 -60.8125 L 45.203125 -45.796875 L 22.53125 -45.796875 L 22.53125 -15.015625 L 51.046875 -15.015625 L 51.046875 0 L 6 0 L 6 -105.109375 L 51.046875 -105.109375 L 51.046875 -90.09375 L 22.53125 -90.09375 Z M 22.53125 -60.8125 "/></g></g></g></svg>