<svg xmlns="http://www.w3.org/2000/svg" xmlns:xlink="http://www.w3.org/1999/xlink" width="1366" zoomAndPan="magnify" viewBox="0 0 1024.5 576" height="768" preserveAspectRatio="xMidYMid meet" version="1.0"><defs><g/><clipPath id="9970a1e1d0"><path d="M 0 70.777344 L 316.34375 70.777344 L 316.34375 454.59375 L 0 454.59375 Z M 0 70.777344 " clip-rule="nonzero"/></clipPath></defs><g clip-path="url(#9970a1e1d0)"><path fill="#445de6" d="M 52.035156 121.855469 L 52.035156 70.765625 L 193.714844 70.765625 C 226.304688 70.765625 257.5625 83.414062 280.609375 105.925781 C 303.65625 128.445312 316.605469 158.980469 316.605469 190.824219 L 316.605469 204.746094 C 316.605469 225.15625 311.28125 245.03125 301.386719 262.59375 L 301.269531 262.800781 C 311.238281 280.417969 316.605469 300.367188 316.605469 320.855469 L 316.605469 334.777344 C 316.605469 366.621094 303.65625 397.160156 280.609375 419.675781 C 257.5625 442.191406 226.304688 454.839844 193.714844 454.839844 L 52.035156 454.839844 L 52.035156 403.804688 L 0.0585938 403.804688 L 0.0585938 121.855469 Z M 90.613281 121.855469 L 187.804688 121.855469 C 208.394531 121.855469 228.140625 130.035156 242.699219 144.59375 C 257.257812 159.152344 265.4375 178.898438 265.4375 199.488281 L 265.4375 204.539062 C 265.4375 225.128906 257.257812 244.875 242.699219 259.433594 C 241.523438 260.609375 240.316406 261.742188 239.074219 262.832031 C 240.316406 263.921875 241.523438 265.054688 242.699219 266.230469 C 257.257812 280.789062 265.4375 300.535156 265.4375 321.125 L 265.4375 326.175781 C 265.4375 346.765625 257.257812 366.507812 242.699219 381.070312 C 228.140625 395.628906 208.394531 403.804688 187.804688 403.804688 L 90.613281 403.804688 L 90.613281 417.152344 L 193.714844 417.152344 C 216.074219 417.152344 237.519531 408.472656 253.332031 393.023438 C 269.144531 377.578125 278.027344 356.625 278.027344 334.777344 L 278.027344 320.855469 C 278.027344 312.222656 276.640625 303.730469 273.980469 295.65625 C 269.949219 283.390625 262.988281 272.105469 253.523438 262.800781 C 262.988281 253.496094 269.949219 242.210938 273.980469 229.945312 L 274.039062 229.753906 C 276.660156 221.742188 278.027344 213.3125 278.027344 204.746094 L 278.027344 190.824219 C 278.027344 168.976562 269.144531 148.023438 253.332031 132.578125 C 237.519531 117.128906 216.074219 108.453125 193.714844 108.453125 C 156.347656 108.453125 117.980469 108.453125 90.613281 108.453125 Z M 52.035156 160.433594 L 38.632812 160.433594 L 38.632812 282.171875 C 38.632812 282.171875 38.632812 365.230469 38.632812 365.230469 L 187.804688 365.230469 C 198.164062 365.230469 208.097656 361.117188 215.421875 353.792969 C 222.746094 346.464844 226.859375 336.53125 226.859375 326.175781 L 226.859375 321.125 C 226.859375 310.765625 222.746094 300.832031 215.421875 293.507812 C 208.648438 286.730469 199.640625 282.703125 190.128906 282.136719 C 189.355469 282.160156 188.582031 282.171875 187.804688 282.171875 L 104.03125 282.171875 L 104.03125 243.492188 L 187.804688 243.492188 C 188.582031 243.492188 189.355469 243.503906 190.128906 243.527344 C 199.640625 242.957031 208.648438 238.929688 215.421875 232.15625 C 222.746094 224.832031 226.859375 214.894531 226.859375 204.539062 L 226.859375 199.488281 C 226.859375 189.128906 222.746094 179.195312 215.421875 171.871094 C 208.097656 164.546875 198.164062 160.433594 187.804688 160.433594 Z M 90.613281 243.492188 L 90.625 243.492188 L 90.625 282.171875 L 90.613281 282.171875 L 90.613281 351.835938 L 52.035156 351.835938 L 52.035156 173.835938 L 90.613281 173.835938 Z M 90.613281 243.492188 " fill-opacity="1" fill-rule="evenodd"/></g><g fill="#445de6" fill-opacity="1"><g transform="translate(338.946846, 274.560134)"><g><path d="M 23.125 -25.203125 L 23.125 0 L 12.25 0 L 12.25 -25.203125 L 1.125 -25.203125 L 1.125 -33.859375 L 34.203125 -33.859375 L 34.203125 -25.203125 Z M 23.125 -25.203125 "/></g></g></g><g fill="#445de6" fill-opacity="1"><g transform="translate(382.249952, 274.560134)"><g><path d="M 26.484375 0 L 26.484375 -12.84375 L 14.515625 -12.84375 L 14.515625 0 L 3.640625 0 L 3.640625 -33.859375 L 14.515625 -33.859375 L 14.515625 -21.515625 L 26.484375 -21.515625 L 26.484375 -33.859375 L 37.359375 -33.859375 L 37.359375 0 Z M 26.484375 0 "/></g></g></g><g fill="#445de6" fill-opacity="1"><g transform="translate(431.015005, 274.560134)"><g><path d="M 3.640625 -33.859375 L 32.921875 -33.859375 L 32.921875 -25.734375 L 14.515625 -25.734375 L 14.515625 -21.0625 L 30.265625 -21.0625 L 30.265625 -13.28125 L 14.515625 -13.28125 L 14.515625 -8.125 L 33.265625 -8.125 L 33.265625 0 L 3.640625 0 Z M 3.640625 -33.859375 "/></g></g></g><g fill="#445de6" fill-opacity="1"><g transform="translate(474.31812, 274.560134)"><g><path d="M 26.1875 -33.859375 C 27.894531 -33.859375 29.460938 -33.503906 30.890625 -32.796875 C 32.316406 -32.097656 33.445312 -31.109375 34.28125 -29.828125 C 35.113281 -28.546875 35.53125 -27.117188 35.53125 -25.546875 C 35.53125 -21.378906 33.644531 -18.753906 29.875 -17.671875 L 29.875 -17.46875 C 34.175781 -16.488281 36.328125 -13.664062 36.328125 -9 C 36.328125 -7.226562 35.890625 -5.660156 35.015625 -4.296875 C 34.148438 -2.941406 32.960938 -1.882812 31.453125 -1.125 C 29.941406 -0.375 28.285156 0 26.484375 0 L 3.640625 0 L 3.640625 -33.859375 Z M 14.515625 -20.671875 L 22 -20.671875 C 22.71875 -20.671875 23.316406 -20.925781 23.796875 -21.4375 C 24.273438 -21.945312 24.515625 -22.578125 24.515625 -23.328125 L 24.515625 -23.828125 C 24.515625 -24.546875 24.265625 -25.160156 23.765625 -25.671875 C 23.273438 -26.179688 22.6875 -26.4375 22 -26.4375 L 14.515625 -26.4375 Z M 14.515625 -7.875 L 22.78125 -7.875 C 23.507812 -7.875 24.109375 -8.128906 24.578125 -8.640625 C 25.054688 -9.148438 25.296875 -9.78125 25.296875 -10.53125 L 25.296875 -11.03125 C 25.296875 -11.78125 25.054688 -12.410156 24.578125 -12.921875 C 24.109375 -13.429688 23.507812 -13.6875 22.78125 -13.6875 L 14.515625 -13.6875 Z M 14.515625 -7.875 "/></g></g></g><g fill="#445de6" fill-opacity="1"><g transform="translate(520.376807, 274.560134)"><g><path d="M 26.328125 0 L 24.90625 -4.78125 L 13.046875 -4.78125 L 11.609375 0 L 0.484375 0 L 12.84375 -33.859375 L 25.5 -33.859375 L 37.84375 0 Z M 15.3125 -12.359375 L 22.640625 -12.359375 L 19.09375 -24.40625 L 18.90625 -24.40625 Z M 15.3125 -12.359375 "/></g></g></g><g fill="#445de6" fill-opacity="1"><g transform="translate(566.435494, 274.560134)"><g><path d="M 26.1875 -33.859375 C 27.894531 -33.859375 29.460938 -33.503906 30.890625 -32.796875 C 32.316406 -32.097656 33.445312 -31.109375 34.28125 -29.828125 C 35.113281 -28.546875 35.53125 -27.117188 35.53125 -25.546875 C 35.53125 -21.378906 33.644531 -18.753906 29.875 -17.671875 L 29.875 -17.46875 C 34.175781 -16.488281 36.328125 -13.664062 36.328125 -9 C 36.328125 -7.226562 35.890625 -5.660156 35.015625 -4.296875 C 34.148438 -2.941406 32.960938 -1.882812 31.453125 -1.125 C 29.941406 -0.375 28.285156 0 26.484375 0 L 3.640625 0 L 3.640625 -33.859375 Z M 14.515625 -20.671875 L 22 -20.671875 C 22.71875 -20.671875 23.316406 -20.925781 23.796875 -21.4375 C 24.273438 -21.945312 24.515625 -22.578125 24.515625 -23.328125 L 24.515625 -23.828125 C 24.515625 -24.546875 24.265625 -25.160156 23.765625 -25.671875 C 23.273438 -26.179688 22.6875 -26.4375 22 -26.4375 L 14.515625 -26.4375 Z M 14.515625 -7.875 L 22.78125 -7.875 C 23.507812 -7.875 24.109375 -8.128906 24.578125 -8.640625 C 25.054688 -9.148438 25.296875 -9.78125 25.296875 -10.53125 L 25.296875 -11.03125 C 25.296875 -11.78125 25.054688 -12.410156 24.578125 -12.921875 C 24.109375 -13.429688 23.507812 -13.6875 22.78125 -13.6875 L 14.515625 -13.6875 Z M 14.515625 -7.875 "/></g></g></g><g fill="#445de6" fill-opacity="1"><g transform="translate(612.494181, 274.560134)"><g><path d="M 37.359375 -13.640625 C 37.359375 -9.003906 35.894531 -5.472656 32.96875 -3.046875 C 30.050781 -0.617188 25.90625 0.59375 20.53125 0.59375 C 15.144531 0.59375 10.984375 -0.617188 8.046875 -3.046875 C 5.109375 -5.472656 3.640625 -9.003906 3.640625 -13.640625 L 3.640625 -33.859375 L 14.515625 -33.859375 L 14.515625 -13.78125 C 14.515625 -11.875 15.023438 -10.351562 16.046875 -9.21875 C 17.066406 -8.09375 18.539062 -7.53125 20.46875 -7.53125 C 22.40625 -7.53125 23.890625 -8.101562 24.921875 -9.25 C 25.960938 -10.394531 26.484375 -11.90625 26.484375 -13.78125 L 26.484375 -33.859375 L 37.359375 -33.859375 Z M 37.359375 -13.640625 "/></g></g></g><g fill="#445de6" fill-opacity="1"><g transform="translate(661.259226, 274.560134)"><g><path d="M 17.859375 -34.453125 C 22.191406 -34.453125 25.753906 -33.570312 28.546875 -31.8125 C 31.335938 -30.0625 32.765625 -27.460938 32.828125 -24.015625 L 32.828125 -23.421875 L 22.640625 -23.421875 L 22.640625 -23.625 C 22.640625 -24.601562 22.273438 -25.421875 21.546875 -26.078125 C 20.828125 -26.734375 19.734375 -27.0625 18.265625 -27.0625 C 16.816406 -27.0625 15.707031 -26.847656 14.9375 -26.421875 C 14.164062 -26.003906 13.78125 -25.484375 13.78125 -24.859375 C 13.78125 -23.972656 14.304688 -23.316406 15.359375 -22.890625 C 16.410156 -22.460938 18.097656 -22.019531 20.421875 -21.5625 C 23.148438 -21 25.390625 -20.414062 27.140625 -19.8125 C 28.898438 -19.207031 30.4375 -18.210938 31.75 -16.828125 C 33.0625 -15.453125 33.734375 -13.582031 33.765625 -11.21875 C 33.765625 -7.21875 32.410156 -4.25 29.703125 -2.3125 C 26.992188 -0.375 23.375 0.59375 18.84375 0.59375 C 13.5625 0.59375 9.453125 -0.289062 6.515625 -2.0625 C 3.578125 -3.832031 2.109375 -6.96875 2.109375 -11.46875 L 12.40625 -11.46875 C 12.40625 -9.757812 12.847656 -8.617188 13.734375 -8.046875 C 14.617188 -7.472656 15.992188 -7.1875 17.859375 -7.1875 C 19.242188 -7.1875 20.382812 -7.332031 21.28125 -7.625 C 22.1875 -7.925781 22.640625 -8.535156 22.640625 -9.453125 C 22.640625 -10.273438 22.140625 -10.890625 21.140625 -11.296875 C 20.140625 -11.703125 18.503906 -12.132812 16.234375 -12.59375 C 13.484375 -13.1875 11.203125 -13.800781 9.390625 -14.4375 C 7.585938 -15.082031 6.015625 -16.140625 4.671875 -17.609375 C 3.328125 -19.085938 2.65625 -21.09375 2.65625 -23.625 C 2.65625 -27.332031 4.085938 -30.0625 6.953125 -31.8125 C 9.828125 -33.570312 13.460938 -34.453125 17.859375 -34.453125 Z M 17.859375 -34.453125 "/></g></g></g><g fill="#445de6" fill-opacity="1"><g transform="translate(704.562341, 274.560134)"><g><path d="M 23.125 -25.203125 L 23.125 0 L 12.25 0 L 12.25 -25.203125 L 1.125 -25.203125 L 1.125 -33.859375 L 34.203125 -33.859375 L 34.203125 -25.203125 Z M 23.125 -25.203125 "/></g></g></g><g fill="#445de6" fill-opacity="1"><g transform="translate(747.865455, 274.560134)"><g><path d="M 20.46875 -34.453125 C 26.3125 -34.453125 30.820312 -32.957031 34 -29.96875 C 37.1875 -26.988281 38.78125 -22.644531 38.78125 -16.9375 C 38.78125 -11.21875 37.1875 -6.863281 34 -3.875 C 30.820312 -0.894531 26.3125 0.59375 20.46875 0.59375 C 14.632812 0.59375 10.132812 -0.890625 6.96875 -3.859375 C 3.800781 -6.828125 2.21875 -11.1875 2.21875 -16.9375 C 2.21875 -22.675781 3.800781 -27.03125 6.96875 -30 C 10.132812 -32.96875 14.632812 -34.453125 20.46875 -34.453125 Z M 20.46875 -26.328125 C 18.144531 -26.328125 16.375 -25.617188 15.15625 -24.203125 C 13.945312 -22.796875 13.34375 -20.894531 13.34375 -18.5 L 13.34375 -15.359375 C 13.34375 -12.960938 13.945312 -11.054688 15.15625 -9.640625 C 16.375 -8.234375 18.144531 -7.53125 20.46875 -7.53125 C 22.800781 -7.53125 24.582031 -8.234375 25.8125 -9.640625 C 27.039062 -11.054688 27.65625 -12.960938 27.65625 -15.359375 L 27.65625 -18.5 C 27.65625 -20.894531 27.039062 -22.796875 25.8125 -24.203125 C 24.582031 -25.617188 22.800781 -26.328125 20.46875 -26.328125 Z M 20.46875 -26.328125 "/></g></g></g><g fill="#445de6" fill-opacity="1"><g transform="translate(796.6305, 274.560134)"><g><path d="M 35.78125 -23.484375 C 35.78125 -21.410156 35.222656 -19.535156 34.109375 -17.859375 C 32.992188 -16.191406 31.367188 -14.960938 29.234375 -14.171875 L 36.765625 0 L 24.5625 0 L 18.5625 -12.359375 L 14.515625 -12.359375 L 14.515625 0 L 3.640625 0 L 3.640625 -33.859375 L 24.359375 -33.859375 C 26.785156 -33.859375 28.859375 -33.390625 30.578125 -32.453125 C 32.304688 -31.523438 33.601562 -30.265625 34.46875 -28.671875 C 35.34375 -27.078125 35.78125 -25.347656 35.78125 -23.484375 Z M 24.703125 -23.03125 C 24.703125 -23.914062 24.40625 -24.65625 23.8125 -25.25 C 23.226562 -25.84375 22.507812 -26.140625 21.65625 -26.140625 L 14.515625 -26.140625 L 14.515625 -19.890625 L 21.65625 -19.890625 C 22.507812 -19.890625 23.226562 -20.191406 23.8125 -20.796875 C 24.40625 -21.398438 24.703125 -22.144531 24.703125 -23.03125 Z M 24.703125 -23.03125 "/></g></g></g><g fill="#445de6" fill-opacity="1"><g transform="translate(842.689187, 274.560134)"><g><path d="M 3.640625 -33.859375 L 32.921875 -33.859375 L 32.921875 -25.734375 L 14.515625 -25.734375 L 14.515625 -21.0625 L 30.265625 -21.0625 L 30.265625 -13.28125 L 14.515625 -13.28125 L 14.515625 -8.125 L 33.265625 -8.125 L 33.265625 0 L 3.640625 0 Z M 3.640625 -33.859375 "/></g></g></g><g fill="#445de6" fill-opacity="1"><g transform="translate(885.99227, 274.560134)"><g><path d="M 3 0 L 3 -9.796875 L 13.4375 -9.796875 L 13.4375 0 Z M 3 0 "/></g></g></g><g fill="#445de6" fill-opacity="1"><g transform="translate(910.153986, 274.560134)"><g><path d="M 12.84375 0 L 0.84375 -33.859375 L 12.453125 -33.859375 L 19.25 -11.21875 L 19.4375 -11.21875 L 26.28125 -33.859375 L 37.40625 -33.859375 L 25.453125 0 Z M 12.84375 0 "/></g></g></g><g fill="#445de6" fill-opacity="1"><g transform="translate(956.212673, 274.560134)"><g><path d="M 27.859375 0 L 13.640625 -16.4375 L 13.640625 0 L 3.640625 0 L 3.640625 -33.859375 L 13.140625 -33.859375 L 27.359375 -17.171875 L 27.359375 -33.859375 L 37.359375 -33.859375 L 37.359375 0 Z M 27.859375 0 "/></g></g></g></svg>