<svg xmlns="http://www.w3.org/2000/svg" xmlns:xlink="http://www.w3.org/1999/xlink" width="1366" zoomAndPan="magnify" viewBox="0 0 1024.5 576" height="768" preserveAspectRatio="xMidYMid meet" version="1.0"><defs><g/><clipPath id="706ff872c8"><path d="M 0 80.15625 L 342.582031 80.15625 L 342.582031 496 L 0 496 Z M 0 80.15625 " clip-rule="nonzero"/></clipPath><clipPath id="b586476c56"><path d="M 293 139 L 1024 139 L 1024 400 L 293 400 Z M 293 139 " clip-rule="nonzero"/></clipPath></defs><g clip-path="url(#706ff872c8)"><path fill="#445de6" d="M 56.324219 135.433594 L 56.324219 80.136719 L 209.660156 80.136719 C 244.933594 80.136719 278.761719 93.828125 303.703125 118.195312 C 328.648438 142.566406 342.660156 175.613281 342.660156 210.078125 L 342.660156 225.144531 C 342.660156 247.234375 336.898438 268.742188 326.191406 287.753906 L 326.066406 287.976562 C 336.855469 307.039062 342.660156 328.632812 342.660156 350.808594 L 342.660156 365.875 C 342.660156 400.339844 328.648438 433.386719 303.703125 457.757812 C 278.761719 482.125 244.933594 495.816406 209.660156 495.816406 L 56.324219 495.816406 L 56.324219 440.582031 L 0.0703125 440.582031 L 0.0703125 135.433594 Z M 98.078125 135.433594 L 203.265625 135.433594 C 225.546875 135.433594 246.917969 144.285156 262.675781 160.042969 C 278.433594 175.800781 287.285156 197.171875 287.285156 219.453125 L 287.285156 224.917969 C 287.285156 247.203125 278.433594 268.574219 262.675781 284.332031 C 261.40625 285.601562 260.097656 286.828125 258.753906 288.007812 C 260.097656 289.1875 261.40625 290.414062 262.675781 291.6875 C 278.433594 307.441406 287.285156 328.816406 287.285156 351.097656 L 287.285156 356.5625 C 287.285156 378.847656 278.433594 400.21875 262.675781 415.972656 C 246.917969 431.730469 225.546875 440.582031 203.265625 440.582031 L 98.078125 440.582031 L 98.078125 455.027344 L 209.660156 455.027344 C 233.859375 455.027344 257.070312 445.632812 274.183594 428.914062 C 291.296875 412.195312 300.910156 389.519531 300.910156 365.875 L 300.910156 350.808594 C 300.910156 341.464844 299.410156 332.273438 296.53125 323.535156 C 292.167969 310.261719 284.636719 298.046875 274.390625 287.976562 C 284.632812 277.90625 292.167969 265.691406 296.53125 252.417969 L 296.597656 252.210938 C 299.433594 243.539062 300.910156 234.417969 300.910156 225.144531 L 300.910156 210.078125 C 300.910156 186.433594 291.296875 163.757812 274.183594 147.039062 C 257.070312 130.320312 233.859375 120.929688 209.660156 120.929688 C 169.222656 120.929688 127.695312 120.929688 98.078125 120.929688 Z M 56.324219 177.183594 L 41.820312 177.183594 L 41.820312 308.941406 C 41.820312 308.941406 41.820312 398.835938 41.820312 398.835938 L 203.265625 398.835938 C 214.476562 398.835938 225.226562 394.378906 233.15625 386.453125 C 241.082031 378.527344 245.535156 367.773438 245.535156 356.5625 L 245.535156 351.097656 C 245.535156 339.886719 241.082031 329.136719 233.15625 321.207031 C 225.824219 313.875 216.074219 309.515625 205.78125 308.902344 C 204.941406 308.929688 204.105469 308.941406 203.265625 308.941406 L 112.597656 308.941406 L 112.597656 267.078125 L 203.265625 267.078125 C 204.105469 267.078125 204.941406 267.089844 205.78125 267.117188 C 216.074219 266.5 225.824219 262.140625 233.15625 254.808594 C 241.082031 246.882812 245.535156 236.128906 245.535156 224.917969 L 245.535156 219.453125 C 245.535156 208.246094 241.082031 197.492188 233.15625 189.5625 C 225.226562 181.636719 214.476562 177.183594 203.265625 177.183594 L 98.078125 177.183594 L 98.078125 177.1875 L 56.324219 177.1875 Z M 98.078125 267.078125 L 98.089844 267.078125 L 98.089844 308.941406 L 98.078125 308.941406 L 98.078125 384.335938 L 56.324219 384.335938 L 56.324219 191.691406 L 98.078125 191.691406 Z M 98.078125 267.078125 " fill-opacity="1" fill-rule="evenodd"/></g><g clip-path="url(#b586476c56)"><path stroke-linecap="butt" transform="matrix(1.481102, 0, 0, 1.481102, 322.459125, 245.936721)" fill="none" stroke-linejoin="miter" d="M 71.276803 55.000746 L 58.830939 55.000746 L 56.723661 40.774641 L 41.595568 40.774641 L 39.461916 55.000746 L 28.136945 55.000746 L 40.693579 -23.430084 L 58.720169 -23.430084 Z M 43.156905 30.132755 L 55.027817 30.132755 L 49.091043 -9.533654 Z M 105.122483 -23.430084 C 111.541901 -23.430084 116.183715 -21.934682 119.047925 -18.943877 C 121.927959 -15.971533 123.367977 -11.456315 123.367977 -5.400857 L 123.367977 -2.58412 C 123.367977 1.445818 122.729727 4.77421 121.453228 7.401054 C 120.195191 10.009437 118.190772 11.942647 115.434695 13.200684 C 118.792098 14.477183 121.152566 16.55545 122.521373 19.438122 C 123.906005 22.299694 124.59964 25.828528 124.59964 30.024622 L 124.59964 36.399204 C 124.59964 42.452024 123.03039 47.067464 119.894528 50.240249 C 116.758667 53.413034 112.090479 55.000746 105.887328 55.000746 L 86.520942 55.000746 L 86.520942 -23.430084 Z M 98.829661 19.709773 L 98.829661 43.783908 L 105.887328 43.783908 C 107.986693 43.783908 109.571767 43.227418 110.647824 42.114437 C 111.742343 41.004094 112.290921 38.986488 112.290921 36.06953 L 112.290921 29.230766 C 112.290921 25.564788 111.671133 23.067176 110.428921 21.735292 C 109.207807 20.384946 107.174376 19.709773 104.328628 19.709773 Z M 98.829661 -12.242258 L 98.829661 8.495573 L 103.671916 8.495573 C 105.990186 8.495573 107.794164 7.902159 109.089124 6.717969 C 110.402547 5.51268 111.059258 3.342105 111.059258 0.206243 L 111.059258 -4.171832 C 111.059258 -6.996481 110.547603 -9.048374 109.526932 -10.324872 C 108.524722 -11.601371 106.937011 -12.242258 104.766435 -12.242258 Z M 153.299764 -23.430084 L 153.299764 37.082289 C 153.299764 39.909576 153.874716 41.887621 155.021982 43.019064 C 156.190348 44.129407 157.741136 44.685897 159.674346 44.685897 C 161.626018 44.685897 163.174168 44.129407 164.324072 43.019064 C 165.492438 41.887621 166.075302 39.909576 166.075302 37.082289 L 166.075302 -23.430084 L 177.727309 -23.430084 L 177.727309 36.288433 C 177.727309 42.634004 176.179159 47.513183 173.077583 50.923334 C 169.978645 54.315023 165.400129 56.010868 159.344672 56.010868 C 153.289214 56.010868 148.713335 54.315023 145.61176 50.923334 C 142.512822 47.513183 140.962034 42.634004 140.962034 36.288433 L 140.962034 -23.430084 Z M 220.962113 -4.609639 C 220.962113 -10.95521 222.475978 -15.823839 225.503706 -19.215528 C 228.528797 -22.628317 233.07039 -24.332073 239.125848 -24.332073 C 245.181305 -24.332073 249.722898 -22.628317 252.747989 -19.215528 C 255.775717 -15.823839 257.289582 -10.95521 257.289582 -4.609639 L 257.289582 -2.146313 L 245.637574 -2.146313 L 245.637574 -5.400857 C 245.637574 -8.228144 245.088996 -10.216739 243.994477 -11.366643 C 242.91842 -12.532371 241.404556 -13.115236 239.452884 -13.115236 C 237.522312 -13.115236 236.008448 -12.532371 234.913929 -11.366643 C 233.837872 -10.216739 233.299844 -8.228144 233.299844 -5.400857 C 233.299844 -2.702803 233.89062 -0.323873 235.077447 1.738569 C 236.280099 3.779912 237.775502 5.723672 239.563655 7.564573 C 241.37027 9.38965 243.29293 11.212089 245.336911 13.037166 C 247.396716 14.859605 249.319376 16.856113 251.10753 19.026688 C 252.914145 21.197264 254.409547 23.668502 255.593737 26.440403 C 256.799026 29.193843 257.400352 32.440475 257.400352 36.1803 C 257.400352 42.525871 255.849564 47.40505 252.747989 50.815201 C 249.649051 54.20689 245.070534 55.902735 239.017714 55.902735 C 232.962257 55.902735 228.383741 54.20689 225.284803 50.815201 C 222.183227 47.40505 220.632439 42.525871 220.632439 36.1803 L 220.632439 31.364418 L 232.287084 31.364418 L 232.287084 36.971519 C 232.287084 39.798805 232.862036 41.776851 234.009303 42.908293 C 235.177668 44.021273 236.736368 44.577764 238.68804 44.577764 C 240.62125 44.577764 242.161488 44.021273 243.311392 42.908293 C 244.479758 41.776851 245.062622 39.798805 245.062622 36.971519 C 245.062622 34.273464 244.461296 31.902447 243.256007 29.861104 C 242.071817 27.798661 240.576414 25.857539 238.769799 24.032462 C 236.984283 22.191561 235.058986 20.358572 232.999181 18.533495 C 230.9552 16.692594 229.040452 14.696087 227.252299 12.543973 C 225.466783 10.373398 223.97138 7.910071 222.766091 5.156632 C 221.563439 2.38473 220.962113 -0.869814 220.962113 -4.609639 Z M 270.394794 -23.430084 L 308.473492 -23.430084 L 308.473492 -12.242258 L 295.589821 -12.242258 L 295.589821 55.000746 L 283.278465 55.000746 L 283.278465 -12.242258 L 270.394794 -12.242258 Z M 334.718202 36.971519 C 334.718202 39.798805 335.293154 41.795313 336.44042 42.963678 C 337.608786 44.113582 339.159574 44.685897 341.090146 44.685897 C 343.041818 44.685897 344.592606 44.113582 345.74251 42.963678 C 346.889776 41.795313 347.464728 39.798805 347.464728 36.971519 L 347.464728 -5.400857 C 347.464728 -8.228144 346.889776 -10.216739 345.74251 -11.366643 C 344.592606 -12.532371 343.041818 -13.115236 341.090146 -13.115236 C 339.159574 -13.115236 337.608786 -12.532371 336.44042 -11.366643 C 335.293154 -10.216739 334.718202 -8.228144 334.718202 -5.400857 Z M 322.380472 -4.609639 C 322.380472 -10.95521 323.984007 -15.823839 327.193716 -19.215528 C 330.403425 -22.628317 335.037327 -24.332073 341.090146 -24.332073 C 347.145604 -24.332073 351.779505 -22.628317 354.989214 -19.215528 C 358.198923 -15.823839 359.802459 -10.95521 359.802459 -4.609639 L 359.802459 36.1803 C 359.802459 42.525871 358.198923 47.40505 354.989214 50.815201 C 351.779505 54.20689 347.145604 55.902735 341.090146 55.902735 C 335.037327 55.902735 330.403425 54.20689 327.193716 50.815201 C 323.984007 47.40505 322.380472 42.525871 322.380472 36.1803 Z M 403.055724 55.000746 C 402.910668 54.470629 402.755061 53.987986 402.591543 53.550179 C 402.446486 53.09391 402.317254 52.529507 402.209121 51.854334 C 402.09835 51.179161 402.027141 50.322008 401.990217 49.282875 C 401.953293 48.243742 401.934832 46.938231 401.934832 45.371619 L 401.934832 33.033889 C 401.934832 29.367911 401.296582 26.796452 400.020083 25.319511 C 398.762046 23.824108 396.710154 23.075088 393.864405 23.075088 L 389.597101 23.075088 L 389.597101 55.000746 L 377.288382 55.000746 L 377.288382 -23.430084 L 395.889924 -23.430084 C 402.309342 -23.430084 406.951156 -21.934682 409.812728 -18.943877 C 412.6954 -15.971533 414.135417 -11.456315 414.135417 -5.400857 L 414.135417 0.781195 C 414.135417 8.841072 411.455825 14.139597 406.094002 16.674132 C 409.229864 17.950631 411.374066 20.028898 412.521332 22.91157 C 413.689698 25.77578 414.272562 29.25714 414.272562 33.360926 L 414.272562 45.479752 C 414.272562 47.412962 414.346409 49.108807 414.491466 50.567286 C 414.636522 52.028402 415.011032 53.505343 415.612358 55.000746 Z M 389.597101 -12.242258 L 389.597101 11.860888 L 394.439357 11.860888 C 396.754989 11.860888 398.561604 11.267474 399.856565 10.080647 C 401.169987 8.877995 401.826699 6.70742 401.826699 3.571558 L 401.826699 -4.171832 C 401.826699 -6.996481 401.315044 -9.048374 400.294372 -10.324872 C 399.292163 -11.601371 397.704451 -12.242258 395.533876 -12.242258 Z M 444.164788 9.616465 L 461.099497 9.616465 L 461.099497 20.833303 L 444.164788 20.833303 L 444.164788 43.783908 L 465.474934 43.783908 L 465.474934 55.000746 L 431.856069 55.000746 L 431.856069 -23.430084 L 465.474934 -23.430084 L 465.474934 -12.242258 L 444.164788 -12.242258 Z M 444.164788 9.616465 " stroke="#bfbfbf" stroke-width="8.404275" stroke-opacity="1" stroke-miterlimit="4"/></g><g fill="#445de6" fill-opacity="1"><g transform="translate(322.459125, 327.397333)"><g/></g></g><g fill="#445de6" fill-opacity="1"><g transform="translate(362.310027, 327.397333)"><g><path d="M 65.71875 0 L 47.296875 0 L 44.140625 -21.078125 L 21.734375 -21.078125 L 18.59375 0 L 1.828125 0 L 20.40625 -116.171875 L 47.125 -116.171875 Z M 24.0625 -36.84375 L 41.65625 -36.84375 L 32.859375 -95.59375 Z M 24.0625 -36.84375 "/></g></g></g><g fill="#445de6" fill-opacity="1"><g transform="translate(443.960167, 327.397333)"><g><path d="M 34.1875 -116.171875 C 43.695312 -116.171875 50.582031 -113.957031 54.84375 -109.53125 C 59.101562 -105.101562 61.234375 -98.410156 61.234375 -89.453125 L 61.234375 -85.296875 C 61.234375 -79.328125 60.289062 -74.40625 58.40625 -70.53125 C 56.53125 -66.65625 53.546875 -63.78125 49.453125 -61.90625 C 54.429688 -60.019531 57.941406 -56.945312 59.984375 -52.6875 C 62.035156 -48.425781 63.0625 -43.195312 63.0625 -37 L 63.0625 -27.546875 C 63.0625 -18.585938 60.738281 -11.753906 56.09375 -7.046875 C 51.445312 -2.347656 44.53125 0 35.34375 0 L 6.640625 0 L 6.640625 -116.171875 Z M 24.890625 -52.28125 L 24.890625 -16.59375 L 35.34375 -16.59375 C 38.445312 -16.59375 40.800781 -17.421875 42.40625 -19.078125 C 44.007812 -20.742188 44.8125 -23.734375 44.8125 -28.046875 L 44.8125 -38.171875 C 44.8125 -43.585938 43.894531 -47.289062 42.0625 -49.28125 C 40.238281 -51.28125 37.226562 -52.28125 33.03125 -52.28125 Z M 24.890625 -99.578125 L 24.890625 -68.875 L 32.03125 -68.875 C 35.457031 -68.875 38.140625 -69.757812 40.078125 -71.53125 C 42.015625 -73.300781 42.984375 -76.507812 42.984375 -81.15625 L 42.984375 -87.625 C 42.984375 -91.820312 42.234375 -94.863281 40.734375 -96.75 C 39.242188 -98.632812 36.894531 -99.578125 33.6875 -99.578125 Z M 24.890625 -99.578125 "/></g></g></g><g fill="#445de6" fill-opacity="1"><g transform="translate(525.444333, 327.397333)"><g><path d="M 24.0625 -116.171875 L 24.0625 -26.546875 C 24.0625 -22.347656 24.914062 -19.414062 26.625 -17.75 C 28.34375 -16.09375 30.640625 -15.265625 33.515625 -15.265625 C 36.398438 -15.265625 38.695312 -16.09375 40.40625 -17.75 C 42.125 -19.414062 42.984375 -22.347656 42.984375 -26.546875 L 42.984375 -116.171875 L 60.234375 -116.171875 L 60.234375 -27.71875 C 60.234375 -18.3125 57.9375 -11.085938 53.34375 -6.046875 C 48.757812 -1.015625 41.988281 1.5 33.03125 1.5 C 24.0625 1.5 17.28125 -1.015625 12.6875 -6.046875 C 8.101562 -11.085938 5.8125 -18.3125 5.8125 -27.71875 L 5.8125 -116.171875 Z M 24.0625 -116.171875 "/></g></g></g><g fill="#445de6" fill-opacity="1"><g transform="translate(605.600902, 327.397333)"><g/></g></g><g fill="#445de6" fill-opacity="1"><g transform="translate(645.430876, 327.397333)"><g><path d="M 4.3125 -88.28125 C 4.3125 -97.6875 6.550781 -104.90625 11.03125 -109.9375 C 15.507812 -114.976562 22.234375 -117.5 31.203125 -117.5 C 40.160156 -117.5 46.878906 -114.976562 51.359375 -109.9375 C 55.835938 -104.90625 58.078125 -97.6875 58.078125 -88.28125 L 58.078125 -84.640625 L 40.828125 -84.640625 L 40.828125 -89.453125 C 40.828125 -93.648438 40.023438 -96.609375 38.421875 -98.328125 C 36.816406 -100.046875 34.578125 -100.90625 31.703125 -100.90625 C 28.816406 -100.90625 26.570312 -100.046875 24.96875 -98.328125 C 23.363281 -96.609375 22.5625 -93.648438 22.5625 -89.453125 C 22.5625 -85.460938 23.445312 -81.945312 25.21875 -78.90625 C 26.988281 -75.863281 29.203125 -72.988281 31.859375 -70.28125 C 34.515625 -67.570312 37.363281 -64.859375 40.40625 -62.140625 C 43.445312 -59.429688 46.296875 -56.472656 48.953125 -53.265625 C 51.609375 -50.054688 53.820312 -46.40625 55.59375 -42.3125 C 57.363281 -38.21875 58.25 -33.40625 58.25 -27.875 C 58.25 -18.476562 55.953125 -11.257812 51.359375 -6.21875 C 46.765625 -1.1875 39.988281 1.328125 31.03125 1.328125 C 22.070312 1.328125 15.296875 -1.1875 10.703125 -6.21875 C 6.109375 -11.257812 3.8125 -18.476562 3.8125 -27.875 L 3.8125 -35.015625 L 21.078125 -35.015625 L 21.078125 -26.71875 C 21.078125 -22.507812 21.929688 -19.578125 23.640625 -17.921875 C 25.359375 -16.265625 27.65625 -15.4375 30.53125 -15.4375 C 33.40625 -15.4375 35.703125 -16.265625 37.421875 -17.921875 C 39.140625 -19.578125 40 -22.507812 40 -26.71875 C 40 -30.695312 39.113281 -34.207031 37.34375 -37.25 C 35.570312 -40.289062 33.359375 -43.164062 30.703125 -45.875 C 28.046875 -48.59375 25.195312 -51.304688 22.15625 -54.015625 C 19.113281 -56.722656 16.265625 -59.679688 13.609375 -62.890625 C 10.953125 -66.097656 8.738281 -69.75 6.96875 -73.84375 C 5.195312 -77.9375 4.3125 -82.75 4.3125 -88.28125 Z M 4.3125 -88.28125 "/></g></g></g><g fill="#445de6" fill-opacity="1"><g transform="translate(721.604554, 327.397333)"><g><path d="M 1.328125 -116.171875 L 57.75 -116.171875 L 57.75 -99.578125 L 38.671875 -99.578125 L 38.671875 0 L 20.40625 0 L 20.40625 -99.578125 L 1.328125 -99.578125 Z M 1.328125 -116.171875 "/></g></g></g><g fill="#445de6" fill-opacity="1"><g transform="translate(794.791099, 327.397333)"><g><path d="M 23.40625 -26.71875 C 23.40625 -22.507812 24.257812 -19.546875 25.96875 -17.828125 C 27.6875 -16.117188 29.984375 -15.265625 32.859375 -15.265625 C 35.734375 -15.265625 38.023438 -16.117188 39.734375 -17.828125 C 41.453125 -19.546875 42.3125 -22.507812 42.3125 -26.71875 L 42.3125 -89.453125 C 42.3125 -93.648438 41.453125 -96.609375 39.734375 -98.328125 C 38.023438 -100.046875 35.734375 -100.90625 32.859375 -100.90625 C 29.984375 -100.90625 27.6875 -100.046875 25.96875 -98.328125 C 24.257812 -96.609375 23.40625 -93.648438 23.40625 -89.453125 Z M 5.140625 -88.28125 C 5.140625 -97.6875 7.519531 -104.90625 12.28125 -109.9375 C 17.039062 -114.976562 23.898438 -117.5 32.859375 -117.5 C 41.816406 -117.5 48.675781 -114.976562 53.4375 -109.9375 C 58.195312 -104.90625 60.578125 -97.6875 60.578125 -88.28125 L 60.578125 -27.875 C 60.578125 -18.476562 58.195312 -11.257812 53.4375 -6.21875 C 48.675781 -1.1875 41.816406 1.328125 32.859375 1.328125 C 23.898438 1.328125 17.039062 -1.1875 12.28125 -6.21875 C 7.519531 -11.257812 5.140625 -18.476562 5.140625 -27.875 Z M 5.140625 -88.28125 "/></g></g></g><g fill="#445de6" fill-opacity="1"><g transform="translate(874.615755, 327.397333)"><g><path d="M 44.8125 0 C 44.582031 -0.769531 44.359375 -1.488281 44.140625 -2.15625 C 43.921875 -2.820312 43.726562 -3.648438 43.5625 -4.640625 C 43.394531 -5.640625 43.28125 -6.910156 43.21875 -8.453125 C 43.164062 -10.003906 43.140625 -11.941406 43.140625 -14.265625 L 43.140625 -32.53125 C 43.140625 -37.945312 42.195312 -41.757812 40.3125 -43.96875 C 38.4375 -46.1875 35.398438 -47.296875 31.203125 -47.296875 L 24.890625 -47.296875 L 24.890625 0 L 6.640625 0 L 6.640625 -116.171875 L 34.1875 -116.171875 C 43.695312 -116.171875 50.582031 -113.957031 54.84375 -109.53125 C 59.101562 -105.101562 61.234375 -98.410156 61.234375 -89.453125 L 61.234375 -80.328125 C 61.234375 -68.367188 57.25 -60.507812 49.28125 -56.75 C 53.9375 -54.875 57.117188 -51.804688 58.828125 -47.546875 C 60.546875 -43.285156 61.40625 -38.113281 61.40625 -32.03125 L 61.40625 -14.109375 C 61.40625 -11.234375 61.515625 -8.710938 61.734375 -6.546875 C 61.953125 -4.390625 62.503906 -2.207031 63.390625 0 Z M 24.890625 -99.578125 L 24.890625 -63.890625 L 32.03125 -63.890625 C 35.457031 -63.890625 38.140625 -64.773438 40.078125 -66.546875 C 42.015625 -68.316406 42.984375 -71.523438 42.984375 -76.171875 L 42.984375 -87.625 C 42.984375 -91.820312 42.234375 -94.863281 40.734375 -96.75 C 39.242188 -98.632812 36.894531 -99.578125 33.6875 -99.578125 Z M 24.890625 -99.578125 "/></g></g></g><g fill="#445de6" fill-opacity="1"><g transform="translate(955.436115, 327.397333)"><g><path d="M 24.890625 -67.21875 L 49.953125 -67.21875 L 49.953125 -50.609375 L 24.890625 -50.609375 L 24.890625 -16.59375 L 56.421875 -16.59375 L 56.421875 0 L 6.640625 0 L 6.640625 -116.171875 L 56.421875 -116.171875 L 56.421875 -99.578125 L 24.890625 -99.578125 Z M 24.890625 -67.21875 "/></g></g></g></svg>