<svg xmlns="http://www.w3.org/2000/svg" xmlns:xlink="http://www.w3.org/1999/xlink" width="1366" zoomAndPan="magnify" viewBox="0 0 1024.5 576" height="768" preserveAspectRatio="xMidYMid meet" version="1.0"><defs><clipPath id="5ba718ce7f"><path d="M 284.480469 0.140625 L 759 0.140625 L 759 575.859375 L 284.480469 575.859375 Z M 284.480469 0.140625 " clip-rule="nonzero"/></clipPath></defs><g clip-path="url(#5ba718ce7f)"><path fill="#0c0ee5" d="M 362.484375 76.699219 L 362.484375 0.117188 L 574.851562 0.117188 C 623.703125 0.117188 670.558594 19.078125 705.101562 52.824219 C 739.644531 86.578125 759.054688 132.351562 759.054688 180.082031 L 759.054688 200.949219 C 759.054688 231.542969 751.078125 261.335938 736.246094 287.660156 L 736.070312 287.972656 C 751.015625 314.375 759.054688 344.277344 759.054688 374.996094 L 759.054688 395.859375 C 759.054688 443.59375 739.644531 489.367188 705.101562 523.117188 C 670.558594 556.867188 623.703125 575.824219 574.851562 575.824219 L 362.484375 575.824219 L 362.484375 499.332031 L 284.570312 499.332031 L 284.570312 76.699219 Z M 420.308594 76.699219 L 565.992188 76.699219 C 596.855469 76.699219 626.453125 88.960938 648.277344 110.785156 C 670.101562 132.605469 682.359375 162.207031 682.359375 193.070312 L 682.359375 200.636719 C 682.359375 231.5 670.101562 261.101562 648.277344 282.921875 C 646.515625 284.683594 644.703125 286.382812 642.847656 288.015625 C 644.703125 289.652344 646.515625 291.347656 648.277344 293.109375 C 670.101562 314.933594 682.359375 344.53125 682.359375 375.394531 L 682.359375 382.964844 C 682.359375 413.828125 670.101562 443.425781 648.277344 465.246094 C 626.453125 487.070312 596.855469 499.332031 565.992188 499.332031 L 420.308594 499.332031 L 420.308594 519.332031 L 574.851562 519.332031 C 608.367188 519.332031 640.515625 506.328125 664.214844 483.167969 C 687.914062 460.015625 701.230469 428.609375 701.230469 395.859375 L 701.230469 374.996094 C 701.230469 362.050781 699.152344 349.320312 695.164062 337.222656 C 689.125 318.835938 678.691406 301.917969 664.5 287.972656 C 678.6875 274.023438 689.121094 257.109375 695.164062 238.722656 L 695.257812 238.4375 C 699.183594 226.425781 701.230469 213.789062 701.230469 200.949219 L 701.230469 180.082031 C 701.230469 147.335938 687.914062 115.929688 664.214844 92.773438 C 640.515625 69.617188 608.367188 56.613281 574.851562 56.613281 C 518.84375 56.613281 461.332031 56.613281 420.308594 56.613281 Z M 362.484375 134.523438 L 342.394531 134.523438 L 342.394531 317.007812 C 342.394531 317.007812 342.394531 441.507812 342.394531 441.507812 L 565.992188 441.507812 C 581.519531 441.507812 596.410156 435.339844 607.390625 424.359375 C 618.367188 413.382812 624.535156 398.492188 624.535156 382.964844 L 624.535156 375.394531 C 624.535156 359.867188 618.367188 344.976562 607.390625 333.996094 C 597.234375 323.84375 583.734375 317.804688 569.476562 316.953125 C 568.316406 316.988281 567.15625 317.007812 565.992188 317.007812 L 440.417969 317.007812 L 440.417969 259.027344 L 565.992188 259.027344 C 567.15625 259.027344 568.316406 259.042969 569.476562 259.078125 C 583.734375 258.230469 597.234375 252.191406 607.390625 242.035156 C 618.367188 231.054688 624.535156 216.164062 624.535156 200.636719 L 624.535156 193.070312 C 624.535156 177.542969 618.367188 162.652344 607.390625 151.671875 C 596.410156 140.691406 581.519531 134.523438 565.992188 134.523438 L 420.308594 134.523438 L 420.308594 134.527344 L 362.484375 134.527344 Z M 420.308594 259.027344 L 420.324219 259.027344 L 420.324219 317.007812 L 420.308594 317.007812 L 420.308594 421.429688 L 362.484375 421.429688 L 362.484375 154.617188 L 420.308594 154.617188 Z M 420.308594 259.027344 " fill-opacity="1" fill-rule="evenodd"/></g></svg>