<svg xmlns="http://www.w3.org/2000/svg" xmlns:xlink="http://www.w3.org/1999/xlink" width="40" zoomAndPan="magnify" viewBox="0 0 30 30.000001" height="40" preserveAspectRatio="xMidYMid meet" version="1.0"><defs><clipPath id="a8f5678c64"><path d="M 3.386719 0 L 27.339844 0 L 27.339844 29.03125 L 3.386719 29.03125 Z M 3.386719 0 " clip-rule="nonzero"/></clipPath></defs><g clip-path="url(#a8f5678c64)"><path fill="#0049ad" d="M 7.316406 3.859375 L 7.316406 0 L 18.023438 0 C 20.488281 0 22.851562 0.953125 24.59375 2.65625 C 26.335938 4.359375 27.3125 6.667969 27.3125 9.074219 L 27.3125 10.125 C 27.3125 11.667969 26.910156 13.171875 26.164062 14.5 L 26.15625 14.515625 C 26.910156 15.847656 27.3125 17.355469 27.3125 18.902344 L 27.3125 19.957031 C 27.3125 22.363281 26.335938 24.671875 24.59375 26.371094 C 22.851562 28.074219 20.488281 29.03125 18.023438 29.03125 L 7.316406 29.03125 L 7.316406 25.171875 L 3.386719 25.171875 L 3.386719 3.859375 Z M 10.230469 3.859375 L 17.578125 3.859375 C 19.132812 3.859375 20.628906 4.480469 21.726562 5.578125 C 22.828125 6.679688 23.445312 8.171875 23.445312 9.730469 L 23.445312 10.109375 C 23.445312 11.667969 22.828125 13.160156 21.726562 14.261719 C 21.640625 14.347656 21.546875 14.433594 21.453125 14.515625 C 21.546875 14.597656 21.640625 14.683594 21.726562 14.773438 C 22.828125 15.875 23.445312 17.367188 23.445312 18.921875 L 23.445312 19.304688 C 23.445312 20.859375 22.828125 22.355469 21.726562 23.453125 C 20.628906 24.554688 19.132812 25.171875 17.578125 25.171875 L 10.230469 25.171875 L 10.230469 26.183594 L 18.023438 26.183594 C 19.714844 26.183594 21.335938 25.527344 22.53125 24.359375 C 23.726562 23.191406 24.398438 21.605469 24.398438 19.957031 L 24.398438 18.902344 C 24.398438 18.25 24.292969 17.609375 24.09375 17 C 23.789062 16.070312 23.261719 15.21875 22.546875 14.515625 C 23.261719 13.8125 23.789062 12.957031 24.09375 12.03125 L 24.097656 12.015625 C 24.292969 11.410156 24.398438 10.773438 24.398438 10.125 L 24.398438 9.074219 C 24.398438 7.421875 23.726562 5.839844 22.53125 4.671875 C 21.335938 3.503906 19.714844 2.847656 18.023438 2.847656 C 15.199219 2.847656 12.300781 2.847656 10.230469 2.847656 Z M 7.316406 6.777344 L 6.300781 6.777344 L 6.300781 15.980469 C 6.300781 15.980469 6.300781 22.257812 6.300781 22.257812 L 17.578125 22.257812 C 18.359375 22.257812 19.113281 21.945312 19.664062 21.390625 C 20.21875 20.839844 20.53125 20.089844 20.53125 19.304688 L 20.53125 18.921875 C 20.53125 18.140625 20.21875 17.390625 19.664062 16.835938 C 19.152344 16.324219 18.472656 16.019531 17.753906 15.976562 C 17.695312 15.976562 17.636719 15.980469 17.578125 15.980469 L 11.246094 15.980469 L 11.246094 13.054688 L 17.578125 13.054688 C 17.636719 13.054688 17.695312 13.054688 17.753906 13.058594 C 18.472656 13.015625 19.152344 12.710938 19.664062 12.199219 C 20.21875 11.644531 20.53125 10.894531 20.53125 10.109375 L 20.53125 9.730469 C 20.53125 8.945312 20.21875 8.195312 19.664062 7.640625 C 19.113281 7.085938 18.359375 6.777344 17.578125 6.777344 Z M 10.230469 13.054688 L 10.230469 21.246094 L 7.316406 21.246094 L 7.316406 7.789062 L 10.230469 7.789062 Z M 10.230469 13.054688 " fill-opacity="1" fill-rule="evenodd"/></g></svg>