<svg xmlns="http://www.w3.org/2000/svg" xmlns:xlink="http://www.w3.org/1999/xlink" width="1366" zoomAndPan="magnify" viewBox="0 0 1024.5 576" height="768" preserveAspectRatio="xMidYMid meet" version="1.0"><defs><clipPath id="bbee8e783d"><path d="M 249.480469 0.140625 L 724 0.140625 L 724 575.859375 L 249.480469 575.859375 Z M 249.480469 0.140625 " clip-rule="nonzero"/></clipPath></defs><g clip-path="url(#bbee8e783d)"><path fill="#445de6" d="M 327.484375 76.699219 L 327.484375 0.117188 L 539.847656 0.117188 C 588.703125 0.117188 635.554688 19.078125 670.097656 52.824219 C 704.644531 86.578125 724.054688 132.351562 724.054688 180.082031 L 724.054688 200.949219 C 724.054688 231.542969 716.074219 261.335938 701.246094 287.660156 L 701.070312 287.972656 C 716.015625 314.375 724.054688 344.277344 724.054688 374.996094 L 724.054688 395.859375 C 724.054688 443.59375 704.644531 489.367188 670.097656 523.117188 C 635.554688 556.867188 588.703125 575.824219 539.847656 575.824219 L 327.484375 575.824219 L 327.484375 499.332031 L 249.566406 499.332031 L 249.566406 76.699219 Z M 385.308594 76.699219 L 530.992188 76.699219 C 561.851562 76.699219 591.453125 88.960938 613.277344 110.785156 C 635.101562 132.605469 647.359375 162.207031 647.359375 193.070312 L 647.359375 200.636719 C 647.359375 231.5 635.101562 261.101562 613.277344 282.921875 C 611.515625 284.683594 609.703125 286.382812 607.84375 288.015625 C 609.703125 289.652344 611.515625 291.347656 613.277344 293.109375 C 635.101562 314.933594 647.359375 344.53125 647.359375 375.394531 L 647.359375 382.964844 C 647.359375 413.828125 635.101562 443.425781 613.277344 465.246094 C 591.453125 487.070312 561.851562 499.332031 530.992188 499.332031 L 385.308594 499.332031 L 385.308594 519.332031 L 539.847656 519.332031 C 573.367188 519.332031 605.511719 506.328125 629.210938 483.167969 C 652.914062 460.015625 666.230469 428.609375 666.230469 395.859375 L 666.230469 374.996094 C 666.230469 362.050781 664.152344 349.320312 660.164062 337.222656 C 654.125 318.835938 643.6875 301.917969 629.5 287.972656 C 643.6875 274.023438 654.121094 257.109375 660.164062 238.722656 L 660.253906 238.4375 C 664.183594 226.425781 666.230469 213.789062 666.230469 200.949219 L 666.230469 180.082031 C 666.230469 147.335938 652.914062 115.929688 629.210938 92.773438 C 605.511719 69.617188 573.367188 56.613281 539.847656 56.613281 C 483.839844 56.613281 426.332031 56.613281 385.308594 56.613281 Z M 327.484375 134.523438 L 307.390625 134.523438 L 307.390625 317.007812 C 307.390625 317.007812 307.390625 441.507812 307.390625 441.507812 L 530.992188 441.507812 C 546.519531 441.507812 561.40625 435.339844 572.390625 424.359375 C 583.367188 413.382812 589.535156 398.492188 589.535156 382.964844 L 589.535156 375.394531 C 589.535156 359.867188 583.367188 344.976562 572.390625 333.996094 C 562.234375 323.84375 548.730469 317.804688 534.476562 316.953125 C 533.316406 316.988281 532.15625 317.007812 530.992188 317.007812 L 405.417969 317.007812 L 405.417969 259.027344 L 530.992188 259.027344 C 532.15625 259.027344 533.316406 259.042969 534.476562 259.078125 C 548.730469 258.230469 562.234375 252.191406 572.390625 242.035156 C 583.367188 231.054688 589.535156 216.164062 589.535156 200.636719 L 589.535156 193.070312 C 589.535156 177.542969 583.367188 162.652344 572.390625 151.671875 C 561.40625 140.691406 546.519531 134.523438 530.992188 134.523438 L 385.308594 134.523438 L 385.308594 134.527344 L 327.484375 134.527344 Z M 385.308594 259.027344 L 385.324219 259.027344 L 385.324219 317.007812 L 385.308594 317.007812 L 385.308594 421.429688 L 327.484375 421.429688 L 327.484375 154.617188 L 385.308594 154.617188 Z M 385.308594 259.027344 " fill-opacity="1" fill-rule="evenodd"/></g></svg>