<svg xmlns="http://www.w3.org/2000/svg" xmlns:xlink="http://www.w3.org/1999/xlink" width="1366" zoomAndPan="magnify" viewBox="0 0 1024.5 576" height="768" preserveAspectRatio="xMidYMid meet" version="1.0"><defs><g/><clipPath id="5866a245e8"><path d="M 0 28.59375 L 428 28.59375 L 428 547.339844 L 0 547.339844 Z M 0 28.59375 " clip-rule="nonzero"/></clipPath><clipPath id="38f6ec4efc"><path d="M 400 185 L 1024 185 L 1024 383 L 400 383 Z M 400 185 " clip-rule="nonzero"/></clipPath></defs><g clip-path="url(#5866a245e8)"><path fill="#445de6" d="M 70.300781 97.582031 L 70.300781 28.570312 L 261.671875 28.570312 C 305.695312 28.570312 347.917969 45.65625 379.046875 76.070312 C 410.179688 106.484375 427.667969 147.734375 427.667969 190.746094 L 427.667969 209.550781 C 427.667969 237.117188 420.480469 263.964844 407.117188 287.6875 L 406.957031 287.96875 C 420.421875 311.761719 427.667969 338.710938 427.667969 366.390625 L 427.667969 385.191406 C 427.667969 428.207031 410.179688 469.453125 379.046875 499.867188 C 347.917969 530.28125 305.695312 547.367188 261.671875 547.367188 L 70.300781 547.367188 L 70.300781 478.433594 L 0.0898438 478.433594 L 0.0898438 97.582031 Z M 122.410156 97.582031 L 253.691406 97.582031 C 281.503906 97.582031 308.175781 108.632812 327.839844 128.296875 C 347.507812 147.964844 358.554688 174.636719 358.554688 202.449219 L 358.554688 209.269531 C 358.554688 237.082031 347.507812 263.753906 327.839844 283.417969 C 326.253906 285.003906 324.621094 286.535156 322.949219 288.007812 C 324.621094 289.484375 326.253906 291.011719 327.839844 292.597656 C 347.507812 312.265625 358.554688 338.9375 358.554688 366.75 L 358.554688 373.570312 C 358.554688 401.382812 347.507812 428.054688 327.839844 447.71875 C 308.175781 467.386719 281.503906 478.433594 253.691406 478.433594 L 122.410156 478.433594 L 122.410156 496.460938 L 261.671875 496.460938 C 291.878906 496.460938 320.847656 484.738281 342.203125 463.871094 C 363.5625 443.003906 375.558594 414.703125 375.558594 385.191406 L 375.558594 366.390625 C 375.558594 354.726562 373.6875 343.253906 370.09375 332.351562 C 364.652344 315.78125 355.25 300.539062 342.460938 287.96875 C 355.246094 275.398438 364.648438 260.15625 370.09375 243.589844 L 370.175781 243.332031 C 373.714844 232.507812 375.558594 221.121094 375.558594 209.550781 L 375.558594 190.746094 C 375.558594 161.234375 363.5625 132.933594 342.203125 112.066406 C 320.847656 91.199219 291.878906 79.480469 261.671875 79.480469 C 211.203125 79.480469 159.375 79.480469 122.410156 79.480469 Z M 70.300781 149.691406 L 52.195312 149.691406 L 52.195312 314.132812 C 52.195312 314.132812 52.195312 426.328125 52.195312 426.328125 L 253.691406 426.328125 C 267.683594 426.328125 281.101562 420.769531 290.996094 410.875 C 300.890625 400.980469 306.449219 387.5625 306.449219 373.570312 L 306.449219 366.75 C 306.449219 352.757812 300.890625 339.339844 290.996094 329.445312 C 281.847656 320.292969 269.679688 314.851562 256.832031 314.085938 C 255.785156 314.117188 254.738281 314.132812 253.691406 314.132812 L 140.53125 314.132812 L 140.53125 261.886719 L 253.691406 261.886719 C 254.738281 261.886719 255.785156 261.902344 256.832031 261.933594 C 269.679688 261.167969 281.847656 255.722656 290.996094 246.574219 C 300.890625 236.679688 306.449219 223.261719 306.449219 209.269531 L 306.449219 202.449219 C 306.449219 188.457031 300.890625 175.039062 290.996094 165.144531 C 281.101562 155.25 267.683594 149.691406 253.691406 149.691406 L 122.410156 149.691406 L 122.410156 149.695312 L 70.300781 149.695312 Z M 122.410156 261.886719 L 122.425781 261.886719 L 122.425781 314.132812 L 122.410156 314.132812 L 122.410156 408.234375 L 70.300781 408.234375 L 70.300781 167.796875 L 122.410156 167.796875 Z M 122.410156 261.886719 " fill-opacity="1" fill-rule="evenodd"/></g><g clip-path="url(#38f6ec4efc)"><path stroke-linecap="butt" transform="matrix(1.121235, 0, 0, 1.121235, 418.107192, 265.937926)" fill="none" stroke-linejoin="miter" d="M 49.995663 -23.429491 C 56.412975 -23.429491 61.056991 -21.934905 63.917258 -18.94225 C 66.801913 -15.970498 68.240757 -11.455386 68.240757 -5.400398 L 68.240757 -2.585421 C 68.240757 1.445432 67.603206 4.776023 66.324621 7.399387 C 65.06694 10.008815 63.060223 11.94237 60.307956 13.200052 C 63.662935 14.475153 66.025007 16.555031 67.394173 19.436202 C 68.780759 22.299953 69.470567 25.829127 69.470567 30.023721 L 69.470567 36.399227 C 69.470567 42.454215 67.90282 47.066875 64.767326 50.240692 C 61.628348 53.41451 56.959945 54.999676 50.762117 54.999676 L 31.39173 54.999676 L 31.39173 -23.429491 Z M 43.703771 19.711429 L 43.703771 43.785058 L 50.762117 43.785058 C 52.859415 43.785058 54.444581 43.227637 55.521101 42.116278 C 56.61504 41.001436 57.16201 38.987751 57.16201 36.068258 L 57.16201 29.229396 C 57.16201 25.564351 56.541879 23.066408 55.301617 21.735564 C 54.078774 20.387302 52.04767 19.711429 49.201338 19.711429 Z M 43.703771 -12.23926 L 43.703771 8.493326 L 48.546368 8.493326 C 50.859666 8.493326 52.667801 7.901066 53.960322 6.716546 C 55.273746 5.514607 55.932199 3.344148 55.932199 0.205169 L 55.932199 -4.170587 C 55.932199 -6.996016 55.420069 -9.048023 54.399291 -10.326608 C 53.395933 -11.601709 51.810766 -12.23926 49.640307 -12.23926 Z M 126.292694 54.999676 L 113.848265 54.999676 L 111.740516 40.774983 L 96.613497 40.774983 L 94.477877 54.999676 L 83.151775 54.999676 L 95.711172 -23.429491 L 113.736781 -23.429491 Z M 98.170793 30.131722 L 110.043865 30.131722 L 104.107329 -9.532283 Z M 160.138614 -23.429491 C 166.55941 -23.429491 171.199942 -21.934905 174.063693 -18.94225 C 176.944864 -15.970498 178.383708 -11.455386 178.383708 -5.400398 L 178.383708 -2.585421 C 178.383708 1.445432 177.746157 4.776023 176.471056 7.399387 C 175.213375 10.008815 173.206658 11.94237 170.450907 13.200052 C 173.805886 14.475153 176.167959 16.555031 177.537124 19.436202 C 178.92371 22.299953 179.617002 25.829127 179.617002 30.023721 L 179.617002 36.399227 C 179.617002 42.454215 178.049255 47.066875 174.910277 50.240692 C 171.774783 53.41451 167.10638 54.999676 160.905069 54.999676 L 141.538165 54.999676 L 141.538165 -23.429491 Z M 153.846722 19.711429 L 153.846722 43.785058 L 160.905069 43.785058 C 163.002366 43.785058 164.587533 43.227637 165.664052 42.116278 C 166.757991 41.001436 167.304961 38.987751 167.304961 36.068258 L 167.304961 29.229396 C 167.304961 25.564351 166.68483 23.066408 165.444568 21.735564 C 164.225209 20.387302 162.190621 19.711429 159.344289 19.711429 Z M 153.846722 -12.23926 L 153.846722 8.493326 L 158.689319 8.493326 C 161.006101 8.493326 162.810752 7.901066 164.106757 6.716546 C 165.416697 5.514607 166.07515 3.344148 166.07515 0.205169 L 166.07515 -4.170587 C 166.07515 -6.996016 165.56302 -9.048023 164.542242 -10.326608 C 163.538884 -11.601709 161.953717 -12.23926 159.783258 -12.23926 Z M 208.313744 -23.429491 L 208.313744 37.082068 C 208.313744 39.907496 208.888585 41.886342 210.038266 43.018604 C 211.205367 44.129962 212.755695 44.687383 214.689249 44.687383 C 216.640224 44.687383 218.190552 44.129962 219.340233 43.018604 C 220.507334 41.886342 221.089142 39.907496 221.089142 37.082068 L 221.089142 -23.429491 L 232.74273 -23.429491 L 232.74273 36.287742 C 232.74273 42.635377 231.195886 47.512812 228.09523 50.923533 C 224.994574 54.316835 220.416753 56.013486 214.361764 56.013486 C 208.306776 56.013486 203.728955 54.316835 200.628299 50.923533 C 197.527643 47.512812 195.977316 42.635377 195.977316 36.287742 L 195.977316 -23.429491 Z M 275.977714 -4.609557 C 275.977714 -10.953707 277.489719 -15.824175 280.517213 -19.217477 C 283.544707 -22.628198 288.08769 -24.331816 294.142678 -24.331816 C 300.197666 -24.331816 304.737165 -22.628198 307.764659 -19.217477 C 310.792153 -15.824175 312.307642 -10.953707 312.307642 -4.609557 L 312.307642 -2.146451 L 300.654055 -2.146451 L 300.654055 -5.400398 C 300.654055 -8.229311 300.107085 -10.215124 299.009662 -11.364805 C 297.936626 -12.531906 296.421137 -13.117198 294.470163 -13.117198 C 292.536608 -13.117198 291.024603 -12.531906 289.930664 -11.364805 C 288.854144 -10.215124 288.314142 -8.229311 288.314142 -5.400398 C 288.314142 -2.703873 288.906402 -0.324381 290.094406 1.738078 C 291.296346 3.779633 292.790931 5.72364 294.578163 7.56313 C 296.386298 9.388684 298.309402 11.210755 300.350957 13.036309 C 302.413415 14.85838 304.336519 16.858129 306.123751 19.028588 C 307.928402 21.195563 309.422987 23.669119 310.610991 26.438806 C 311.812931 29.194557 312.415643 32.441536 312.415643 36.179742 C 312.415643 42.527376 310.865315 47.404812 307.764659 50.815533 C 304.664004 54.205351 300.086182 55.902002 294.031194 55.902002 C 287.976206 55.902002 283.398384 54.205351 280.301212 50.815533 C 277.200556 47.404812 275.650229 42.527376 275.650229 36.179742 L 275.650229 31.365016 L 287.303816 31.365016 L 287.303816 36.974067 C 287.303816 39.799496 287.878657 41.778341 289.024854 42.907119 C 290.191955 44.021962 291.752734 44.575899 293.703709 44.575899 C 295.637264 44.575899 297.17714 44.021962 298.326821 42.907119 C 299.493922 41.778341 300.079214 39.799496 300.079214 36.974067 C 300.079214 34.274058 299.476502 31.901534 298.271079 29.859979 C 297.086559 27.79752 295.591973 25.856998 293.787322 24.031443 C 292.00009 22.191953 290.073503 20.359431 288.014528 18.533876 C 285.972973 16.690902 284.056838 14.694637 282.269606 12.545082 C 280.482374 10.374623 278.987788 7.911518 277.782365 5.155767 C 276.580425 2.38608 275.977714 -0.87135 275.977714 -4.609557 Z M 325.410525 -23.429491 L 363.489363 -23.429491 L 363.489363 -12.23926 L 350.605965 -12.23926 L 350.605965 54.999676 L 338.293923 54.999676 L 338.293923 -12.23926 L 325.410525 -12.23926 Z M 389.733451 36.974067 C 389.733451 39.799496 390.308292 41.795761 391.457973 42.962862 C 392.625074 44.112543 394.175402 44.687383 396.108956 44.687383 C 398.059931 44.687383 399.610259 44.112543 400.756456 42.962862 C 401.906137 41.795761 402.480978 39.799496 402.480978 36.974067 L 402.480978 -5.400398 C 402.480978 -8.229311 401.906137 -10.215124 400.756456 -11.364805 C 399.610259 -12.531906 398.059931 -13.117198 396.108956 -13.117198 C 394.175402 -13.117198 392.625074 -12.531906 391.457973 -11.364805 C 390.308292 -10.215124 389.733451 -8.229311 389.733451 -5.400398 Z M 377.397023 -4.609557 C 377.397023 -10.953707 378.999609 -15.824175 382.211748 -19.217477 C 385.420404 -22.628198 390.053968 -24.331816 396.108956 -24.331816 C 402.160461 -24.331816 406.794025 -22.628198 410.002681 -19.217477 C 413.21482 -15.824175 414.817406 -10.953707 414.817406 -4.609557 L 414.817406 36.179742 C 414.817406 42.527376 413.21482 47.404812 410.002681 50.815533 C 406.794025 54.205351 402.160461 55.902002 396.108956 55.902002 C 390.053968 55.902002 385.420404 54.205351 382.211748 50.815533 C 378.999609 47.404812 377.397023 42.527376 377.397023 36.179742 Z M 458.073294 54.999676 C 457.926971 54.470126 457.770196 53.98935 457.606454 53.550381 C 457.460131 53.093992 457.334711 52.529603 457.223227 51.85373 C 457.115226 51.177857 457.042065 50.320822 457.007226 49.282625 C 456.968903 48.244428 456.951484 46.937972 456.951484 45.370224 L 456.951484 33.033796 C 456.951484 29.368751 456.313933 26.797646 455.035348 25.32048 C 453.777667 23.82241 451.72566 23.076859 448.882811 23.076859 L 444.615055 23.076859 L 444.615055 54.999676 L 432.303014 54.999676 L 432.303014 -23.429491 L 450.906947 -23.429491 C 457.324259 -23.429491 461.964791 -21.934905 464.828542 -18.94225 C 467.709713 -15.970498 469.152041 -11.455386 469.152041 -5.400398 L 469.152041 0.78001 C 469.152041 8.841715 466.469451 14.1407 461.107756 16.673483 C 464.246734 17.952068 466.389322 20.028462 467.539003 22.913117 C 468.706104 25.773384 469.287912 29.257267 469.287912 33.361281 L 469.287912 45.481709 C 469.287912 47.41178 469.361074 49.108431 469.507397 50.568177 C 469.65372 52.027924 470.026495 53.505091 470.629207 54.999676 Z M 444.615055 -12.23926 L 444.615055 11.858757 L 449.454168 11.858757 C 451.77095 11.858757 453.575601 11.266497 454.871606 10.081977 C 456.185029 8.876553 456.843483 6.706094 456.843483 3.5706 L 456.843483 -4.170587 C 456.843483 -6.996016 456.331353 -9.048023 455.310575 -10.326608 C 454.307217 -11.601709 452.718566 -12.23926 450.551591 -12.23926 Z M 499.18311 9.615136 L 516.114779 9.615136 L 516.114779 20.833239 L 499.18311 20.833239 L 499.18311 43.785058 L 520.490536 43.785058 L 520.490536 54.999676 L 486.871068 54.999676 L 486.871068 -23.429491 L 520.490536 -23.429491 L 520.490536 -12.23926 L 499.18311 -12.23926 Z M 499.18311 9.615136 " stroke="#bfbfbf" stroke-width="8.404275" stroke-opacity="1" stroke-miterlimit="4"/></g><g fill="#445de6" fill-opacity="1"><g transform="translate(418.107192, 327.605832)"><g/></g></g><g fill="#445de6" fill-opacity="1"><g transform="translate(448.275412, 327.605832)"><g><path d="M 25.875 -87.953125 C 33.082031 -87.953125 38.296875 -86.273438 41.515625 -82.921875 C 44.742188 -79.566406 46.359375 -74.5 46.359375 -67.71875 L 46.359375 -64.578125 C 46.359375 -60.054688 45.644531 -56.328125 44.21875 -53.390625 C 42.800781 -50.460938 40.539062 -48.285156 37.4375 -46.859375 C 41.207031 -45.441406 43.867188 -43.117188 45.421875 -39.890625 C 46.972656 -36.660156 47.75 -32.703125 47.75 -28.015625 L 47.75 -20.859375 C 47.75 -14.066406 45.988281 -8.890625 42.46875 -5.328125 C 38.945312 -1.773438 33.710938 0 26.765625 0 L 5.03125 0 L 5.03125 -87.953125 Z M 18.84375 -39.578125 L 18.84375 -12.5625 L 26.765625 -12.5625 C 29.109375 -12.5625 30.882812 -13.1875 32.09375 -14.4375 C 33.3125 -15.695312 33.921875 -17.960938 33.921875 -21.234375 L 33.921875 -28.890625 C 33.921875 -32.992188 33.226562 -35.800781 31.84375 -37.3125 C 30.46875 -38.820312 28.1875 -39.578125 25 -39.578125 Z M 18.84375 -75.390625 L 18.84375 -52.140625 L 24.25 -52.140625 C 26.84375 -52.140625 28.875 -52.804688 30.34375 -54.140625 C 31.8125 -55.484375 32.546875 -57.914062 32.546875 -61.4375 L 32.546875 -66.34375 C 32.546875 -69.519531 31.976562 -71.820312 30.84375 -73.25 C 29.71875 -74.675781 27.9375 -75.390625 25.5 -75.390625 Z M 18.84375 -75.390625 "/></g></g></g><g fill="#445de6" fill-opacity="1"><g transform="translate(509.961149, 327.605832)"><g><path d="M 49.75 0 L 35.8125 0 L 33.421875 -15.953125 L 16.453125 -15.953125 L 14.078125 0 L 1.375 0 L 15.453125 -87.953125 L 35.6875 -87.953125 Z M 18.21875 -27.890625 L 31.53125 -27.890625 L 24.875 -72.375 Z M 18.21875 -27.890625 "/></g></g></g><g fill="#445de6" fill-opacity="1"><g transform="translate(571.772533, 327.605832)"><g><path d="M 25.875 -87.953125 C 33.082031 -87.953125 38.296875 -86.273438 41.515625 -82.921875 C 44.742188 -79.566406 46.359375 -74.5 46.359375 -67.71875 L 46.359375 -64.578125 C 46.359375 -60.054688 45.644531 -56.328125 44.21875 -53.390625 C 42.800781 -50.460938 40.539062 -48.285156 37.4375 -46.859375 C 41.207031 -45.441406 43.867188 -43.117188 45.421875 -39.890625 C 46.972656 -36.660156 47.75 -32.703125 47.75 -28.015625 L 47.75 -20.859375 C 47.75 -14.066406 45.988281 -8.890625 42.46875 -5.328125 C 38.945312 -1.773438 33.710938 0 26.765625 0 L 5.03125 0 L 5.03125 -87.953125 Z M 18.84375 -39.578125 L 18.84375 -12.5625 L 26.765625 -12.5625 C 29.109375 -12.5625 30.882812 -13.1875 32.09375 -14.4375 C 33.3125 -15.695312 33.921875 -17.960938 33.921875 -21.234375 L 33.921875 -28.890625 C 33.921875 -32.992188 33.226562 -35.800781 31.84375 -37.3125 C 30.46875 -38.820312 28.1875 -39.578125 25 -39.578125 Z M 18.84375 -75.390625 L 18.84375 -52.140625 L 24.25 -52.140625 C 26.84375 -52.140625 28.875 -52.804688 30.34375 -54.140625 C 31.8125 -55.484375 32.546875 -57.914062 32.546875 -61.4375 L 32.546875 -66.34375 C 32.546875 -69.519531 31.976562 -71.820312 30.84375 -73.25 C 29.71875 -74.675781 27.9375 -75.390625 25.5 -75.390625 Z M 18.84375 -75.390625 "/></g></g></g><g fill="#445de6" fill-opacity="1"><g transform="translate(633.458274, 327.605832)"><g><path d="M 18.21875 -87.953125 L 18.21875 -20.109375 C 18.21875 -16.921875 18.863281 -14.695312 20.15625 -13.4375 C 21.457031 -12.1875 23.195312 -11.5625 25.375 -11.5625 C 27.550781 -11.5625 29.289062 -12.1875 30.59375 -13.4375 C 31.894531 -14.695312 32.546875 -16.921875 32.546875 -20.109375 L 32.546875 -87.953125 L 45.609375 -87.953125 L 45.609375 -20.984375 C 45.609375 -13.859375 43.867188 -8.390625 40.390625 -4.578125 C 36.910156 -0.773438 31.78125 1.125 25 1.125 C 18.21875 1.125 13.085938 -0.773438 9.609375 -4.578125 C 6.128906 -8.390625 4.390625 -13.859375 4.390625 -20.984375 L 4.390625 -87.953125 Z M 18.21875 -87.953125 "/></g></g></g><g fill="#445de6" fill-opacity="1"><g transform="translate(694.138975, 327.605832)"><g/></g></g><g fill="#445de6" fill-opacity="1"><g transform="translate(724.291352, 327.605832)"><g><path d="M 3.265625 -66.84375 C 3.265625 -73.957031 4.957031 -79.421875 8.34375 -83.234375 C 11.738281 -87.046875 16.832031 -88.953125 23.625 -88.953125 C 30.40625 -88.953125 35.488281 -87.046875 38.875 -83.234375 C 42.269531 -79.421875 43.96875 -73.957031 43.96875 -66.84375 L 43.96875 -64.078125 L 30.90625 -64.078125 L 30.90625 -67.71875 C 30.90625 -70.90625 30.296875 -73.144531 29.078125 -74.4375 C 27.867188 -75.738281 26.175781 -76.390625 24 -76.390625 C 21.820312 -76.390625 20.125 -75.738281 18.90625 -74.4375 C 17.695312 -73.144531 17.09375 -70.90625 17.09375 -67.71875 C 17.09375 -64.707031 17.757812 -62.046875 19.09375 -59.734375 C 20.4375 -57.429688 22.113281 -55.253906 24.125 -53.203125 C 26.132812 -51.148438 28.289062 -49.097656 30.59375 -47.046875 C 32.894531 -44.992188 35.050781 -42.753906 37.0625 -40.328125 C 39.070312 -37.898438 40.742188 -35.132812 42.078125 -32.03125 C 43.421875 -28.9375 44.09375 -25.296875 44.09375 -21.109375 C 44.09375 -13.984375 42.351562 -8.515625 38.875 -4.703125 C 35.40625 -0.898438 30.28125 1 23.5 1 C 16.707031 1 11.570312 -0.898438 8.09375 -4.703125 C 4.625 -8.515625 2.890625 -13.984375 2.890625 -21.109375 L 2.890625 -26.515625 L 15.953125 -26.515625 L 15.953125 -20.234375 C 15.953125 -17.046875 16.597656 -14.820312 17.890625 -13.5625 C 19.191406 -12.3125 20.9375 -11.6875 23.125 -11.6875 C 25.300781 -11.6875 27.035156 -12.3125 28.328125 -13.5625 C 29.628906 -14.820312 30.28125 -17.046875 30.28125 -20.234375 C 30.28125 -23.242188 29.609375 -25.898438 28.265625 -28.203125 C 26.929688 -30.503906 25.257812 -32.679688 23.25 -34.734375 C 21.238281 -36.785156 19.078125 -38.835938 16.765625 -40.890625 C 14.460938 -42.941406 12.304688 -45.179688 10.296875 -47.609375 C 8.285156 -50.046875 6.609375 -52.8125 5.265625 -55.90625 C 3.929688 -59.007812 3.265625 -62.65625 3.265625 -66.84375 Z M 3.265625 -66.84375 "/></g></g></g><g fill="#445de6" fill-opacity="1"><g transform="translate(781.956904, 327.605832)"><g><path d="M 1 -87.953125 L 43.71875 -87.953125 L 43.71875 -75.390625 L 29.28125 -75.390625 L 29.28125 0 L 15.453125 0 L 15.453125 -75.390625 L 1 -75.390625 Z M 1 -87.953125 "/></g></g></g><g fill="#445de6" fill-opacity="1"><g transform="translate(837.361116, 327.605832)"><g><path d="M 17.71875 -20.234375 C 17.71875 -17.046875 18.363281 -14.800781 19.65625 -13.5 C 20.957031 -12.207031 22.695312 -11.5625 24.875 -11.5625 C 27.050781 -11.5625 28.785156 -12.207031 30.078125 -13.5 C 31.378906 -14.800781 32.03125 -17.046875 32.03125 -20.234375 L 32.03125 -67.71875 C 32.03125 -70.90625 31.378906 -73.144531 30.078125 -74.4375 C 28.785156 -75.738281 27.050781 -76.390625 24.875 -76.390625 C 22.695312 -76.390625 20.957031 -75.738281 19.65625 -74.4375 C 18.363281 -73.144531 17.71875 -70.90625 17.71875 -67.71875 Z M 3.890625 -66.84375 C 3.890625 -73.957031 5.691406 -79.421875 9.296875 -83.234375 C 12.898438 -87.046875 18.09375 -88.953125 24.875 -88.953125 C 31.65625 -88.953125 36.847656 -87.046875 40.453125 -83.234375 C 44.054688 -79.421875 45.859375 -73.957031 45.859375 -66.84375 L 45.859375 -21.109375 C 45.859375 -13.984375 44.054688 -8.515625 40.453125 -4.703125 C 36.847656 -0.898438 31.65625 1 24.875 1 C 18.09375 1 12.898438 -0.898438 9.296875 -4.703125 C 5.691406 -8.515625 3.890625 -13.984375 3.890625 -21.109375 Z M 3.890625 -66.84375 "/></g></g></g><g fill="#445de6" fill-opacity="1"><g transform="translate(897.790558, 327.605832)"><g><path d="M 33.921875 0 C 33.753906 -0.582031 33.585938 -1.125 33.421875 -1.625 C 33.253906 -2.132812 33.109375 -2.765625 32.984375 -3.515625 C 32.859375 -4.273438 32.773438 -5.238281 32.734375 -6.40625 C 32.691406 -7.582031 32.671875 -9.050781 32.671875 -10.8125 L 32.671875 -24.625 C 32.671875 -28.726562 31.957031 -31.617188 30.53125 -33.296875 C 29.101562 -34.972656 26.800781 -35.8125 23.625 -35.8125 L 18.84375 -35.8125 L 18.84375 0 L 5.03125 0 L 5.03125 -87.953125 L 25.875 -87.953125 C 33.082031 -87.953125 38.296875 -86.273438 41.515625 -82.921875 C 44.742188 -79.566406 46.359375 -74.5 46.359375 -67.71875 L 46.359375 -60.8125 C 46.359375 -51.757812 43.34375 -45.8125 37.3125 -42.96875 C 40.832031 -41.539062 43.238281 -39.210938 44.53125 -35.984375 C 45.832031 -32.765625 46.484375 -28.851562 46.484375 -24.25 L 46.484375 -10.671875 C 46.484375 -8.492188 46.566406 -6.585938 46.734375 -4.953125 C 46.898438 -3.328125 47.320312 -1.675781 48 0 Z M 18.84375 -75.390625 L 18.84375 -48.375 L 24.25 -48.375 C 26.84375 -48.375 28.875 -49.039062 30.34375 -50.375 C 31.8125 -51.71875 32.546875 -54.148438 32.546875 -57.671875 L 32.546875 -66.34375 C 32.546875 -69.519531 31.976562 -71.820312 30.84375 -73.25 C 29.71875 -74.675781 27.9375 -75.390625 25.5 -75.390625 Z M 18.84375 -75.390625 "/></g></g></g><g fill="#445de6" fill-opacity="1"><g transform="translate(958.973776, 327.605832)"><g><path d="M 18.84375 -50.890625 L 37.8125 -50.890625 L 37.8125 -38.328125 L 18.84375 -38.328125 L 18.84375 -12.5625 L 42.71875 -12.5625 L 42.71875 0 L 5.03125 0 L 5.03125 -87.953125 L 42.71875 -87.953125 L 42.71875 -75.390625 L 18.84375 -75.390625 Z M 18.84375 -50.890625 "/></g></g></g></svg>