<?xml version="1.0" standalone="no"?>
<!DOCTYPE svg PUBLIC "-//W3C//DTD SVG 20010904//EN"
 "http://www.w3.org/TR/2001/REC-SVG-20010904/DTD/svg10.dtd">
<svg version="1.0" xmlns="http://www.w3.org/2000/svg"
 width="64.000000pt" height="64.000000pt" viewBox="0 0 64.000000 64.000000"
 preserveAspectRatio="xMidYMid meet">

<g transform="translate(0.000000,64.000000) scale(0.100000,-0.100000)"
fill="#000000" stroke="none">
<path d="M154 524 c-36 -13 -46 -23 -72 -77 -38 -76 -51 -133 -52 -214 0 -62
1 -63 37 -86 21 -13 53 -29 72 -37 32 -13 35 -12 53 10 19 24 19 24 -7 38 -40
21 -23 25 29 8 60 -20 152 -20 212 0 52 17 69 13 29 -8 -26 -14 -26 -14 -7
-38 18 -22 21 -23 53 -10 19 8 51 24 72 37 37 23 37 23 37 91 0 78 -20 156
-58 224 -22 39 -35 51 -71 63 -54 18 -77 19 -88 3 -5 -8 -32 -13 -73 -13 -41
0 -68 5 -73 13 -10 15 -41 14 -93 -4z m102 -189 c52 -52 -13 -128 -68 -78 -24
21 -23 58 2 83 26 26 36 25 66 -5z m194 5 c37 -37 14 -100 -35 -100 -48 0 -65
69 -25 102 28 23 35 23 60 -2z"/>
</g>
</svg>
